Georama-ExtraLight.ufo
<glyph name="exclam" format="2">
  <advance width="209.38800000000003"/>
  <unicode hex="0021"/>
  <outline>
    <contour>
      <point x="87.04400000000001" y="263.55" type="line"/>
      <point x="122.488" y="263.55" type="line"/>
      <point x="124.072" y="740.0" type="line"/>
      <point x="85.62200000000001" y="740.0" type="line"/>
    </contour>
    <contour>
      <point x="79.97200000000001" y="24.956000000000003" type="curve" smooth="yes"/>
      <point x="79.97200000000001" y="3.484"/>
      <point x="84.37799999999999" y="-0.9359999999999999"/>
      <point x="104.69400000000002" y="-0.9359999999999999" type="curve" smooth="yes"/>
      <point x="125.92" y="-0.9359999999999999"/>
      <point x="129.41600000000003" y="3.484"/>
      <point x="129.41600000000003" y="24.956000000000003" type="curve" smooth="yes"/>
      <point x="129.41600000000003" y="46.517999999999994"/>
      <point x="125.92" y="50.937999999999995"/>
      <point x="104.69400000000002" y="50.937999999999995" type="curve" smooth="yes"/>
      <point x="83.46799999999999" y="50.937999999999995"/>
      <point x="79.97200000000001" y="46.517999999999994"/>
    </contour>
  </outline>
</glyph>
<glyph name="numbersign" format="2">
  <advance width="573.3560000000001"/>
  <unicode hex="0023"/>
  <outline>
    <contour>
      <point x="88.352" y="472.672" type="line"/>
      <point x="191.83599999999998" y="472.672" type="line"/>
      <point x="146.168" y="221.362" type="line"/>
      <point x="50.294000000000004" y="221.362" type="line"/>
      <point x="50.294000000000004" y="189.472" type="line"/>
      <point x="141.092" y="189.472" type="line"/>
      <point x="107.638" y="0.0" type="line"/>
      <point x="143.74800000000002" y="0.0" type="line"/>
      <point x="177.202" y="189.472" type="line"/>
      <point x="341.91600000000005" y="189.472" type="line"/>
      <point x="308.46200000000005" y="0.0" type="line"/>
      <point x="344.572" y="0.0" type="line"/>
      <point x="378.026" y="189.472" type="line"/>
      <point x="485.04" y="189.472" type="line"/>
      <point x="485.04" y="221.362" type="line"/>
      <point x="383.10200000000003" y="221.362" type="line"/>
      <point x="428.77" y="472.672" type="line"/>
      <point x="523.098" y="472.672" type="line"/>
      <point x="523.098" y="504.598" type="line"/>
      <point x="433.99199999999996" y="504.598" type="line"/>
      <point x="469.648" y="700.0" type="line"/>
      <point x="433.538" y="700.0" type="line"/>
      <point x="397.88200000000006" y="504.598" type="line"/>
      <point x="233.168" y="504.598" type="line"/>
      <point x="268.824" y="700.0" type="line"/>
      <point x="232.714" y="700.0" type="line"/>
      <point x="197.05800000000002" y="504.598" type="line"/>
      <point x="88.352" y="504.598" type="line"/>
    </contour>
    <contour>
      <point x="227.946" y="472.672" type="line"/>
      <point x="392.65999999999997" y="472.672" type="line"/>
      <point x="346.992" y="221.362" type="line"/>
      <point x="182.278" y="221.362" type="line"/>
    </contour>
  </outline>
</glyph>
<glyph name="dollar" format="2">
  <advance width="573.3560000000001"/>
  <unicode hex="0024"/>
  <outline>
    <contour>
      <point x="278.494" y="-10.0" type="curve" smooth="yes"/>
      <point x="428.30600000000004" y="-10.432"/>
      <point x="507.59400000000005" y="45.02"/>
      <point x="507.59400000000005" y="152.444" type="curve" smooth="yes"/>
      <point x="507.59400000000005" y="255.84"/>
      <point x="444.48400000000004" y="313.14200000000005"/>
      <point x="314.44599999999997" y="363.398" type="curve" smooth="yes"/>
      <point x="191.966" y="411.56800000000004"/>
      <point x="130.202" y="464.518"/>
      <point x="130.202" y="551.182" type="curve" smooth="yes"/>
      <point x="130.202" y="629.5120000000002"/>
      <point x="193.83800000000002" y="675.72"/>
      <point x="305.582" y="675.72" type="curve" smooth="yes"/>
      <point x="355.83200000000005" y="675.72"/>
      <point x="420.834" y="664.356"/>
      <point x="469.1" y="648.65" type="curve"/>
      <point x="479.14400000000006" y="681.1719999999999" type="line"/>
      <point x="429.55800000000005" y="698.55"/>
      <point x="359.018" y="710.0"/>
      <point x="301.42" y="710.0" type="curve" smooth="yes"/>
      <point x="167.546" y="709.272"/>
      <point x="91.31599999999999" y="650.996"/>
      <point x="91.31599999999999" y="549.9580000000001" type="curve" smooth="yes"/>
      <point x="91.31599999999999" y="446.59"/>
      <point x="156.394" y="385.88399999999996"/>
      <point x="284.474" y="335.19" type="curve" smooth="yes"/>
      <point x="408.318" y="285.736"/>
      <point x="469.036" y="234.572"/>
      <point x="469.036" y="149.34800000000004" type="curve" smooth="yes"/>
      <point x="469.036" y="68.52400000000002"/>
      <point x="407.934" y="24.214"/>
      <point x="283.37600000000003" y="24.214" type="curve" smooth="yes"/>
      <point x="222.154" y="24.214"/>
      <point x="136.486" y="38.794"/>
      <point x="75.422" y="60.18600000000001" type="curve"/>
      <point x="65.834" y="26.806" type="line"/>
      <point x="126.132" y="5.2120000000000015"/>
      <point x="214.48600000000002" y="-9.856"/>
    </contour>
    <contour>
      <point x="281.246" y="-105.0" type="line"/>
      <point x="315.412" y="-105.0" type="line"/>
      <point x="315.412" y="0.4899999999999995" type="line"/>
      <point x="281.246" y="-3.104" type="line"/>
    </contour>
    <contour>
      <point x="281.246" y="701.6759999999999" type="line"/>
      <point x="315.412" y="703.7039999999998" type="line"/>
      <point x="315.412" y="804.892" type="line"/>
      <point x="281.246" y="804.892" type="line"/>
    </contour>
  </outline>
</glyph>
<glyph name="ampersand" format="2">
  <advance width="619.924"/>
  <unicode hex="0026"/>
  <outline>
    <contour>
      <point x="578.556" y="-11.904" type="line"/>
      <point x="616.432" y="0.4920000000000009" type="line"/>
      <point x="205.032" y="406.404" type="line" smooth="yes"/>
      <point x="159.456" y="456.128"/>
      <point x="140.044" y="502.248"/>
      <point x="140.044" y="550.0240000000001" type="curve" smooth="yes"/>
      <point x="140.044" y="631.216"/>
      <point x="188.592" y="675.96"/>
      <point x="285.55600000000004" y="675.96" type="curve" smooth="yes"/>
      <point x="375.388" y="675.96"/>
      <point x="421.28" y="632.068"/>
      <point x="421.28" y="554.9920000000001" type="curve" smooth="yes"/>
      <point x="421.28" y="496.78799999999995"/>
      <point x="400.868" y="455.52"/>
      <point x="347.892" y="429.584" type="curve"/>
      <point x="365.896" y="408.172" type="line"/>
      <point x="431.252" y="441.252"/>
      <point x="457.48" y="492.216"/>
      <point x="457.48" y="560.412" type="curve" smooth="yes"/>
      <point x="457.48" y="656.8359999999999"/>
      <point x="398.336" y="710.0"/>
      <point x="284.836" y="710.0" type="curve" smooth="yes"/>
      <point x="161.06" y="710.0"/>
      <point x="100.964" y="652.448"/>
      <point x="100.964" y="549.6640000000001" type="curve" smooth="yes"/>
      <point x="100.964" y="494.976"/>
      <point x="123.572" y="439.4"/>
      <point x="171.408" y="384.74399999999997" type="curve" smooth="yes"/>
    </contour>
    <contour>
      <point x="269.404" y="-10.0" type="curve" smooth="yes"/>
      <point x="361.22799999999995" y="-10.0"/>
      <point x="434.344" y="25.511999999999997"/>
      <point x="482.456" y="89.976" type="curve"/>
      <point x="461.16" y="115.908" type="line"/>
      <point x="418.072" y="56.62"/>
      <point x="358.228" y="23.139999999999997"/>
      <point x="271.92400000000004" y="23.139999999999997" type="curve" smooth="yes"/>
      <point x="149.96" y="23.139999999999997"/>
      <point x="78.02000000000001" y="88.86800000000001"/>
      <point x="78.02000000000001" y="187.632" type="curve" smooth="yes"/>
      <point x="78.02000000000001" y="274.00399999999996"/>
      <point x="116.156" y="327.732"/>
      <point x="196.05200000000002" y="375.132" type="curve"/>
      <point x="175.60800000000003" y="398.36" type="line"/>
      <point x="83.88799999999999" y="350.08000000000004"/>
      <point x="40.199999999999996" y="284.06399999999996"/>
      <point x="40.199999999999996" y="185.292" type="curve" smooth="yes"/>
      <point x="40.199999999999996" y="67.22800000000001"/>
      <point x="123.868" y="-10.0"/>
    </contour>
    <contour>
      <point x="501.288" y="105.65199999999999" type="line"/>
      <point x="538.2040000000001" y="162.78399999999996"/>
      <point x="558.1040000000002" y="235.68800000000002"/>
      <point x="558.1040000000002" y="316.756" type="curve" smooth="yes"/>
      <point x="558.1040000000002" y="339.73999999999995"/>
      <point x="555.94" y="357.216"/>
      <point x="551.3" y="376.52799999999996" type="curve"/>
      <point x="517.54" y="372.396" type="line"/>
      <point x="522.18" y="353.44399999999996"/>
      <point x="523.836" y="337.476"/>
      <point x="523.6560000000001" y="318.196" type="curve" smooth="yes"/>
      <point x="523.476" y="245.268"/>
      <point x="507.212" y="181.816"/>
      <point x="477.16" y="135.728" type="curve"/>
    </contour>
  </outline>
</glyph>
<glyph name="quotesingle" format="2">
  <advance width="151.382"/>
  <unicode hex="0027"/>
  <outline>
    <contour>
      <point x="61.96" y="427.0" type="line"/>
      <point x="89.26" y="427.0" type="line"/>
      <point x="94.656" y="700.0" type="line"/>
      <point x="56.726000000000006" y="700.0" type="line"/>
    </contour>
  </outline>
</glyph>
<glyph name="parenleft" format="2">
  <advance width="293.896"/>
  <unicode hex="0028"/>
  <outline>
    <contour>
      <point x="87.3" y="265.0" type="curve" smooth="yes"/>
      <point x="87.3" y="5.096000000000001"/>
      <point x="150.334" y="-189.72"/>
      <point x="276.99" y="-220.546" type="curve"/>
      <point x="276.99" y="-185.036" type="line"/>
      <point x="175.47" y="-150.456"/>
      <point x="122.864" y="19.682000000000002"/>
      <point x="122.864" y="265.0" type="curve" smooth="yes"/>
      <point x="122.864" y="510.318"/>
      <point x="175.47" y="680.456"/>
      <point x="276.99" y="715.0360000000001" type="curve"/>
      <point x="276.99" y="750.5459999999999" type="line"/>
      <point x="150.334" y="719.7199999999999"/>
      <point x="87.3" y="524.904"/>
    </contour>
  </outline>
</glyph>
<glyph name="parenright" format="2">
  <advance width="293.896"/>
  <unicode hex="0029"/>
  <outline>
    <contour>
      <point x="16.906000000000002" y="-185.036" type="curve"/>
      <point x="16.906000000000002" y="-220.546" type="line"/>
      <point x="143.562" y="-189.72"/>
      <point x="206.59600000000003" y="5.096000000000001"/>
      <point x="206.59600000000003" y="265.0" type="curve" smooth="yes"/>
      <point x="206.59600000000003" y="524.904"/>
      <point x="143.562" y="719.7199999999999"/>
      <point x="16.906000000000002" y="750.5459999999999" type="curve"/>
      <point x="16.906000000000002" y="715.0360000000001" type="line"/>
      <point x="118.426" y="680.456"/>
      <point x="171.032" y="510.318"/>
      <point x="171.032" y="265.0" type="curve" smooth="yes"/>
      <point x="171.032" y="19.682000000000002"/>
      <point x="118.426" y="-150.456"/>
    </contour>
  </outline>
</glyph>
<glyph name="asterisk" format="2">
  <advance width="305.356"/>
  <unicode hex="002A"/>
  <outline>
    <contour>
      <point x="72.688" y="363.77599999999995" type="line"/>
      <point x="153.042" y="482.16400000000004" type="line"/>
      <point x="231.94000000000003" y="363.412" type="line"/>
      <point x="251.846" y="377.008" type="line"/>
      <point x="174.182" y="500.49399999999997" type="line"/>
      <point x="299.79600000000005" y="551.39" type="line"/>
      <point x="291.508" y="573.632" type="line"/>
      <point x="167.068" y="527.094" type="line"/>
      <point x="165.934" y="675.394" type="line"/>
      <point x="140.15" y="675.394" type="line"/>
      <point x="139.016" y="527.094" type="line"/>
      <point x="13.848" y="573.632" type="line"/>
      <point x="5.5600000000000005" y="551.39" type="line"/>
      <point x="131.90200000000002" y="500.49399999999997" type="line"/>
      <point x="52.418" y="377.736" type="line"/>
    </contour>
  </outline>
</glyph>
<glyph name="plus" format="2">
  <advance width="456.692"/>
  <unicode hex="002B"/>
  <outline>
    <contour>
      <point x="210.498" y="77.454" type="line"/>
      <point x="246.15800000000002" y="77.454" type="line"/>
      <point x="246.15800000000002" y="275.22" type="line"/>
      <point x="408.038" y="275.22" type="line"/>
      <point x="408.038" y="309.44" type="line"/>
      <point x="246.15800000000002" y="309.44" type="line"/>
      <point x="246.15800000000002" y="507.17" type="line"/>
      <point x="210.498" y="507.17" type="line"/>
      <point x="210.498" y="309.44" type="line"/>
      <point x="48.654" y="309.44" type="line"/>
      <point x="48.654" y="275.22" type="line"/>
      <point x="210.498" y="275.22" type="line"/>
    </contour>
  </outline>
</glyph>
<glyph name="comma" format="2">
  <advance width="154.424"/>
  <unicode hex="002C"/>
  <outline>
    <contour>
      <point x="59.062" y="38.746" type="line"/>
      <point x="66.92" y="17.54"/>
      <point x="71.324" y="-5.69"/>
      <point x="71.324" y="-24.838" type="curve" smooth="yes"/>
      <point x="71.324" y="-85.03999999999999"/>
      <point x="48.154" y="-151.66"/>
      <point x="-1.1479999999999972" y="-183.246" type="curve"/>
      <point x="23.196" y="-200.942" type="line"/>
      <point x="83.92" y="-163.928"/>
      <point x="108.53200000000001" y="-85.33"/>
      <point x="108.53200000000001" y="-24.092000000000002" type="curve" smooth="yes"/>
      <point x="108.53200000000001" y="0.20799999999999963"/>
      <point x="104.242" y="24.206000000000003"/>
      <point x="95.858" y="45.934" type="curve"/>
    </contour>
  </outline>
</glyph>
<glyph name="hyphen" format="2">
  <advance width="295.022"/>
  <unicode hex="002D"/>
  <outline>
    <contour>
      <point x="34.158" y="253.11" type="line"/>
      <point x="260.86400000000003" y="253.11" type="line"/>
      <point x="260.86400000000003" y="288.194" type="line"/>
      <point x="34.158" y="288.194" type="line"/>
    </contour>
  </outline>
</glyph>
<glyph name="period" format="2">
  <advance width="155.0"/>
  <unicode hex="002E"/>
  <outline>
    <contour>
      <point x="52.96000000000001" y="25.118" type="curve" smooth="yes"/>
      <point x="52.96000000000001" y="3.646"/>
      <point x="57.36600000000001" y="-0.774"/>
      <point x="77.682" y="-0.774" type="curve" smooth="yes"/>
      <point x="98.908" y="-0.774"/>
      <point x="102.404" y="3.646"/>
      <point x="102.404" y="25.118" type="curve" smooth="yes"/>
      <point x="102.404" y="46.68"/>
      <point x="98.908" y="51.1"/>
      <point x="77.682" y="51.1" type="curve" smooth="yes"/>
      <point x="56.456" y="51.1"/>
      <point x="52.96000000000001" y="46.68"/>
    </contour>
  </outline>
</glyph>
<glyph name="slash" format="2">
  <advance width="308.908"/>
  <unicode hex="002F"/>
  <outline>
    <contour>
      <point x="4.552" y="-210.0" type="line"/>
      <point x="39.08" y="-210.0" type="line"/>
      <point x="304.356" y="740.0" type="line"/>
      <point x="269.774" y="740.0" type="line"/>
    </contour>
  </outline>
</glyph>
<glyph name="zero" format="2">
  <advance width="573.3560000000001"/>
  <unicode hex="0030"/>
  <outline>
    <contour>
      <point x="29.768000000000004" y="350.0" type="curve" smooth="yes"/>
      <point x="29.768000000000004" y="70.356"/>
      <point x="138.738" y="-10.0"/>
      <point x="286.67800000000005" y="-10.0" type="curve" smooth="yes"/>
      <point x="434.528" y="-10.0"/>
      <point x="543.5880000000001" y="70.572"/>
      <point x="543.5880000000001" y="350.0" type="curve" smooth="yes"/>
      <point x="543.5880000000001" y="630.028"/>
      <point x="435.338" y="710.0"/>
      <point x="286.67800000000005" y="710.0" type="curve" smooth="yes"/>
      <point x="138.576" y="710.0"/>
      <point x="29.768000000000004" y="630.46"/>
    </contour>
    <contour>
      <point x="68.902" y="349.298" type="curve" smooth="yes"/>
      <point x="68.902" y="605.982"/>
      <point x="163.126" y="675.78"/>
      <point x="286.67800000000005" y="675.78" type="curve" smooth="yes"/>
      <point x="410.302" y="675.78"/>
      <point x="504.52600000000007" y="606.0360000000001"/>
      <point x="504.52600000000007" y="349.298" type="curve" smooth="yes"/>
      <point x="504.52600000000007" y="94.88799999999999"/>
      <point x="410.464" y="24.22"/>
      <point x="286.67800000000005" y="24.22" type="curve" smooth="yes"/>
      <point x="162.96400000000003" y="24.22"/>
      <point x="68.902" y="94.83399999999999"/>
    </contour>
  </outline>
</glyph>
<glyph name="one" format="2">
  <advance width="573.3560000000001"/>
  <unicode hex="0031"/>
  <outline>
    <contour>
      <point x="51.292" y="0.0" type="line"/>
      <point x="551.518" y="0.0" type="line"/>
      <point x="551.518" y="34.4" type="line"/>
      <point x="341.438" y="34.4" type="line"/>
      <point x="341.438" y="703.64" type="line"/>
      <point x="320.24" y="703.64" type="line"/>
      <point x="39.7" y="553.072" type="line"/>
      <point x="53.178" y="521.506" type="line"/>
      <point x="302.646" y="653.2180000000001" type="line"/>
      <point x="302.646" y="34.4" type="line"/>
      <point x="51.292" y="34.4" type="line"/>
    </contour>
  </outline>
</glyph>
<glyph name="two" format="2">
  <advance width="573.9"/>
  <unicode hex="0032"/>
  <outline>
    <contour>
      <point x="54.18" y="29.24" type="curve"/>
      <point x="58.82" y="0.0" type="line"/>
      <point x="530.82" y="0.0" type="line"/>
      <point x="530.82" y="34.58" type="line"/>
      <point x="110.92" y="34.58" type="line"/>
      <point x="394.16" y="292.28000000000003"/>
      <point x="454.67999999999995" y="397.46000000000004"/>
      <point x="454.67999999999995" y="512.58" type="curve" smooth="yes"/>
      <point x="454.67999999999995" y="643.5"/>
      <point x="382.79999999999995" y="710.0"/>
      <point x="262.68" y="710.0" type="curve" smooth="yes"/>
      <point x="193.16" y="710.0"/>
      <point x="124.10000000000001" y="690.92"/>
      <point x="69.30000000000001" y="650.74" type="curve"/>
      <point x="85.34" y="620.36" type="line"/>
      <point x="136.88" y="655.6400000000001"/>
      <point x="196.8" y="672.46"/>
      <point x="257.46" y="672.46" type="curve" smooth="yes"/>
      <point x="354.86" y="672.46"/>
      <point x="414.79999999999995" y="620.8000000000001"/>
      <point x="414.79999999999995" y="509.9" type="curve" smooth="yes"/>
      <point x="414.79999999999995" y="400.4"/>
      <point x="350.85999999999996" y="295.29999999999995"/>
    </contour>
  </outline>
</glyph>
<glyph name="three" format="2">
  <advance width="573.8999999999999"/>
  <unicode hex="0033"/>
  <outline>
    <contour>
      <point x="23.799999999999997" y="53.56" type="line"/>
      <point x="89.41999999999999" y="10.280000000000001"/>
      <point x="155.32000000000002" y="-10.0"/>
      <point x="250.94" y="-10.0" type="curve" smooth="yes"/>
      <point x="417.09999999999997" y="-10.0"/>
      <point x="515.7199999999999" y="69.0"/>
      <point x="515.7199999999999" y="203.35999999999999" type="curve" smooth="yes"/>
      <point x="515.7199999999999" y="293.74"/>
      <point x="463.62" y="357.84"/>
      <point x="363.32" y="370.0" type="curve"/>
      <point x="437.41999999999996" y="390.26000000000005"/>
      <point x="478.88" y="448.90000000000003"/>
      <point x="478.88" y="531.2800000000001" type="curve" smooth="yes"/>
      <point x="478.88" y="641.82"/>
      <point x="406.12" y="710.0"/>
      <point x="259.3" y="710.0" type="curve" smooth="yes"/>
      <point x="186.44" y="710.0"/>
      <point x="115.46000000000001" y="695.0999999999999"/>
      <point x="59.1" y="670.12" type="curve"/>
      <point x="71.88" y="640.3599999999999" type="line"/>
      <point x="128.14000000000001" y="662.16"/>
      <point x="191.6" y="673.98"/>
      <point x="255.16" y="673.98" type="curve" smooth="yes"/>
      <point x="380.24000000000007" y="673.98"/>
      <point x="440.34" y="617.94"/>
      <point x="440.34" y="526.6" type="curve" smooth="yes"/>
      <point x="440.34" y="438.9"/>
      <point x="384.21999999999997" y="383.68"/>
      <point x="286.28" y="383.68" type="curve" smooth="yes"/>
      <point x="156.06" y="383.68" type="line"/>
      <point x="156.06" y="350.71999999999997" type="line"/>
      <point x="274.92" y="350.71999999999997" type="line" smooth="yes"/>
      <point x="408.62" y="350.71999999999997"/>
      <point x="476.64000000000004" y="304.78000000000003"/>
      <point x="476.64000000000004" y="204.79999999999998" type="curve" smooth="yes"/>
      <point x="476.64000000000004" y="91.72"/>
      <point x="392.4" y="25.119999999999997"/>
      <point x="248.96" y="25.119999999999997" type="curve" smooth="yes"/>
      <point x="161.76" y="25.119999999999997"/>
      <point x="101.86" y="43.400000000000006"/>
      <point x="39.94" y="81.24000000000001" type="curve"/>
    </contour>
  </outline>
</glyph>
<glyph name="four" format="2">
  <advance width="573.9"/>
  <unicode hex="0034"/>
  <outline>
    <contour>
      <point x="29.38" y="189.02" type="line"/>
      <point x="390.26" y="189.02" type="line"/>
      <point x="390.26" y="0.0" type="line"/>
      <point x="430.24" y="0.0" type="line"/>
      <point x="430.24" y="189.02" type="line"/>
      <point x="553.46" y="189.02" type="line"/>
      <point x="553.46" y="223.06" type="line"/>
      <point x="430.24" y="223.06" type="line"/>
      <point x="430.24" y="699.18" type="line"/>
      <point x="398.14" y="705.46" type="line"/>
      <point x="24.099999999999998" y="219.52" type="line"/>
    </contour>
    <contour>
      <point x="68.58" y="223.06" type="line"/>
      <point x="390.79999999999995" y="640.88" type="line"/>
      <point x="390.79999999999995" y="223.06" type="line"/>
    </contour>
  </outline>
</glyph>
<glyph name="five" format="2">
  <advance width="573.5720000000001"/>
  <unicode hex="0035"/>
  <outline>
    <contour>
      <point x="40.919999999999995" y="54.612" type="line"/>
      <point x="99.8" y="13.56"/>
      <point x="159.912" y="-9.671999999999999"/>
      <point x="263.308" y="-9.671999999999999" type="curve" smooth="yes"/>
      <point x="434.668" y="-9.671999999999999"/>
      <point x="523.5239999999999" y="67.96800000000002"/>
      <point x="523.5239999999999" y="206.87999999999997" type="curve" smooth="yes"/>
      <point x="523.5239999999999" y="335.188"/>
      <point x="461.352" y="397.172"/>
      <point x="329.3960000000001" y="397.1720000000001" type="curve" smooth="yes"/>
      <point x="116.29599999999999" y="397.1720000000001" type="line"/>
      <point x="143.496" y="663.98" type="line"/>
      <point x="485.85200000000003" y="663.98" type="line"/>
      <point x="485.85200000000003" y="700.0" type="line"/>
      <point x="111.98" y="700.0" type="line"/>
      <point x="78.17999999999999" y="374.672" type="line"/>
      <point x="88.18" y="363.67199999999997" type="line"/>
      <point x="314.084" y="363.67199999999997" type="line" smooth="yes"/>
      <point x="434.06399999999996" y="363.67199999999997"/>
      <point x="484.264" y="312.43600000000004"/>
      <point x="484.264" y="206.16" type="curve" smooth="yes"/>
      <point x="484.264" y="90.652"/>
      <point x="415.15999999999997" y="26.167999999999996"/>
      <point x="261.688" y="26.167999999999996" type="curve" smooth="yes"/>
      <point x="161.896" y="26.167999999999996"/>
      <point x="110.224" y="50.38400000000001"/>
      <point x="58.37200000000001" y="83.7" type="curve"/>
    </contour>
  </outline>
</glyph>
<glyph name="six" format="2">
  <advance width="573.5720000000001"/>
  <unicode hex="0036"/>
  <outline>
    <contour>
      <point x="301.372" y="-10.0" type="curve" smooth="yes"/>
      <point x="450.936" y="-10.0"/>
      <point x="538.64" y="74.31199999999998"/>
      <point x="538.64" y="213.37199999999999" type="curve" smooth="yes"/>
      <point x="538.64" y="345.23999999999995"/>
      <point x="456.88400000000007" y="417.99199999999996"/>
      <point x="321.29599999999994" y="417.99199999999996" type="curve" smooth="yes"/>
      <point x="219.06000000000003" y="417.99199999999996"/>
      <point x="113.952" y="373.396"/>
      <point x="65.46" y="311.12799999999993" type="curve"/>
      <point x="69.82000000000001" y="273.084" type="line"/>
      <point x="116.772" y="340.864"/>
      <point x="214.492" y="385.3439999999999"/>
      <point x="313.42400000000004" y="385.3439999999999" type="curve" smooth="yes"/>
      <point x="429.27200000000005" y="385.3439999999999"/>
      <point x="500.63999999999993" y="324.28799999999995"/>
      <point x="500.63999999999993" y="211.35600000000002" type="curve" smooth="yes"/>
      <point x="500.63999999999993" y="94.508"/>
      <point x="426.35200000000003" y="23.416"/>
      <point x="302.14" y="23.416" type="curve" smooth="yes"/>
      <point x="147.084" y="23.416"/>
      <point x="72.76799999999999" y="113.608"/>
      <point x="72.76799999999999" y="335.47200000000004" type="curve" smooth="yes"/>
      <point x="72.76799999999999" y="565.1"/>
      <point x="154.96" y="675.684"/>
      <point x="319.36" y="675.684" type="curve" smooth="yes"/>
      <point x="384.1" y="675.684"/>
      <point x="439.724" y="662.208"/>
      <point x="501.528" y="642.24" type="curve"/>
      <point x="514.6359999999999" y="673.3279999999999" type="line"/>
      <point x="451.88" y="696.6719999999999"/>
      <point x="388.804" y="710.0"/>
      <point x="317.28399999999993" y="710.0" type="curve" smooth="yes"/>
      <point x="130.8" y="710.0"/>
      <point x="33.328" y="597.496"/>
      <point x="33.328" y="335.264" type="curve" smooth="yes"/>
      <point x="33.328" y="89.736"/>
      <point x="118.288" y="-10.0"/>
    </contour>
  </outline>
</glyph>
<glyph name="seven" format="2">
  <advance width="573.5720000000001"/>
  <unicode hex="0037"/>
  <outline>
    <contour>
      <point x="208.38400000000001" y="0.0" type="curve"/>
      <point x="247.104" y="0.0" type="line"/>
      <point x="247.95600000000002" y="136.152"/>
      <point x="280.776" y="242.48399999999998"/>
      <point x="347.004" y="360.79200000000003" type="curve" smooth="yes"/>
      <point x="521.4399999999999" y="671.3" type="line"/>
      <point x="521.4399999999999" y="700.0" type="line"/>
      <point x="45.111999999999995" y="700.0" type="line"/>
      <point x="45.111999999999995" y="662.5400000000001" type="line"/>
      <point x="474.31600000000003" y="662.5400000000001" type="line"/>
      <point x="333.35599999999994" y="413.292" type="line" smooth="yes"/>
      <point x="237.4" y="243.23199999999997"/>
      <point x="208.38400000000001" y="140.576"/>
    </contour>
  </outline>
</glyph>
<glyph name="eight" format="2">
  <advance width="573.9"/>
  <unicode hex="0038"/>
  <outline>
    <contour>
      <point x="345.14000000000004" y="366.5" type="curve"/>
      <point x="376.48" y="353.46" type="line"/>
      <point x="480.42" y="401.35999999999996"/>
      <point x="521.8" y="462.72"/>
      <point x="521.8" y="539.92" type="curve" smooth="yes"/>
      <point x="521.8" y="653.1999999999999"/>
      <point x="443.1" y="710.0"/>
      <point x="291.40000000000003" y="710.0" type="curve" smooth="yes"/>
      <point x="140.33999999999997" y="710.0"/>
      <point x="52.260000000000005" y="648.7400000000001"/>
      <point x="52.260000000000005" y="540.0400000000001" type="curve" smooth="yes"/>
      <point x="52.260000000000005" y="278.66"/>
      <point x="510.1" y="425.52000000000004"/>
      <point x="510.1" y="176.26" type="curve" smooth="yes"/>
      <point x="510.1" y="76.0"/>
      <point x="430.4" y="23.140000000000004"/>
      <point x="285.48" y="23.140000000000004" type="curve" smooth="yes"/>
      <point x="141.4" y="23.140000000000004"/>
      <point x="62.08" y="82.63999999999999"/>
      <point x="62.08" y="185.98" type="curve" smooth="yes"/>
      <point x="62.08" y="272.29999999999995"/>
      <point x="109.94" y="333.80000000000007"/>
      <point x="215.48" y="374.08000000000004" type="curve"/>
      <point x="183.58" y="389.2" type="line"/>
      <point x="70.00000000000001" y="341.38"/>
      <point x="23.0" y="272.92"/>
      <point x="23.0" y="181.89999999999998" type="curve" smooth="yes"/>
      <point x="23.0" y="60.0"/>
      <point x="114.61999999999999" y="-10.0"/>
      <point x="283.5" y="-10.0" type="curve" smooth="yes"/>
      <point x="455.54" y="-10.0"/>
      <point x="550.08" y="55.540000000000006"/>
      <point x="550.08" y="178.88" type="curve" smooth="yes"/>
      <point x="550.08" y="455.38000000000005"/>
      <point x="90.26" y="312.52"/>
      <point x="90.26" y="542.0400000000001" type="curve" smooth="yes"/>
      <point x="90.26" y="627.7399999999999"/>
      <point x="163.14000000000001" y="676.9599999999999"/>
      <point x="290.32000000000005" y="676.9599999999999" type="curve" smooth="yes"/>
      <point x="419.58000000000004" y="676.9599999999999"/>
      <point x="484.34" y="631.48"/>
      <point x="484.34" y="535.86" type="curve" smooth="yes"/>
      <point x="484.34" y="464.82"/>
      <point x="449.58" y="414.06"/>
    </contour>
  </outline>
</glyph>
<glyph name="nine" format="2">
  <advance width="573.5720000000001"/>
  <unicode hex="0039"/>
  <outline>
    <contour>
      <point x="253.848" y="-10.0" type="curve" smooth="yes"/>
      <point x="440.33199999999994" y="-10.0"/>
      <point x="535.6560000000001" y="102.324"/>
      <point x="535.6560000000001" y="364.196" type="curve" smooth="yes"/>
      <point x="535.6560000000001" y="609.904"/>
      <point x="453.03600000000006" y="710.0"/>
      <point x="281.812" y="710.0" type="curve" smooth="yes"/>
      <point x="126.82" y="710.0"/>
      <point x="30.343999999999998" y="627.656"/>
      <point x="30.343999999999998" y="486.956" type="curve" smooth="yes"/>
      <point x="30.343999999999998" y="356.368"/>
      <point x="113.59200000000001" y="282.00800000000004"/>
      <point x="248.588" y="282.00800000000004" type="curve" smooth="yes"/>
      <point x="349.744" y="282.00800000000004"/>
      <point x="454.67199999999997" y="326.86799999999994"/>
      <point x="503.524" y="389.136" type="curve"/>
      <point x="503.196" y="433.00000000000006" type="line"/>
      <point x="454.048" y="357.744"/>
      <point x="354.312" y="314.65600000000006"/>
      <point x="255.55999999999997" y="314.65600000000006" type="curve" smooth="yes"/>
      <point x="144.66400000000002" y="314.65600000000006"/>
      <point x="68.164" y="377.5"/>
      <point x="68.164" y="489.15200000000004" type="curve" smooth="yes"/>
      <point x="68.164" y="607.64"/>
      <point x="151.40400000000002" y="676.5840000000001"/>
      <point x="281.044" y="676.5840000000001" type="curve" smooth="yes"/>
      <point x="424.23999999999995" y="676.5840000000001"/>
      <point x="496.21599999999995" y="586.3920000000002"/>
      <point x="496.21599999999995" y="364.528" type="curve" smooth="yes"/>
      <point x="496.21599999999995" y="134.9"/>
      <point x="415.99199999999996" y="24.316"/>
      <point x="251.772" y="24.316" type="curve" smooth="yes"/>
      <point x="186.852" y="24.316"/>
      <point x="129.26000000000002" y="37.792"/>
      <point x="67.456" y="57.760000000000005" type="curve"/>
      <point x="54.348000000000006" y="27.032" type="line"/>
      <point x="117.104" y="3.688"/>
      <point x="182.328" y="-10.0"/>
    </contour>
  </outline>
</glyph>
<glyph name="less" format="2">
  <advance width="456.692"/>
  <unicode hex="003C"/>
  <outline>
    <contour>
      <point x="408.626" y="80.29799999999999" type="line"/>
      <point x="408.626" y="116.746" type="line"/>
      <point x="84.706" y="291.83200000000005" type="line"/>
      <point x="408.626" y="468.21" type="line"/>
      <point x="408.626" y="503.21999999999997" type="line"/>
      <point x="48.066" y="308.834" type="line"/>
      <point x="48.066" y="274.722" type="line"/>
    </contour>
  </outline>
</glyph>
<glyph name="equal" format="2">
  <advance width="455.61199999999997"/>
  <unicode hex="003D"/>
  <outline>
    <contour>
      <point x="406.958" y="205.064" type="line"/>
      <point x="48.654" y="205.064" type="line"/>
      <point x="48.654" y="170.844" type="line"/>
      <point x="406.958" y="170.844" type="line"/>
    </contour>
    <contour>
      <point x="406.958" y="414.548" type="line"/>
      <point x="48.654" y="414.548" type="line"/>
      <point x="48.654" y="380.328" type="line"/>
      <point x="406.958" y="380.328" type="line"/>
    </contour>
  </outline>
</glyph>
<glyph name="greater" format="2">
  <advance width="456.692"/>
  <unicode hex="003E"/>
  <outline>
    <contour>
      <point x="408.626" y="274.176" type="line"/>
      <point x="408.626" y="308.28799999999995" type="line"/>
      <point x="48.066" y="503.21999999999997" type="line"/>
      <point x="48.066" y="466.754" type="line"/>
      <point x="371.986" y="291.286" type="line"/>
      <point x="48.066" y="115.65400000000001" type="line"/>
      <point x="48.066" y="80.29799999999999" type="line"/>
    </contour>
  </outline>
</glyph>
<glyph name="question" format="2">
  <advance width="417.608"/>
  <unicode hex="003F"/>
  <outline>
    <contour>
      <point x="172.498" y="262.458" type="line"/>
      <point x="207.996" y="262.458" type="line"/>
      <point x="208.06799999999998" y="334.596" type="line"/>
      <point x="330.66600000000005" y="397.674"/>
      <point x="391.1020000000001" y="449.63"/>
      <point x="391.1020000000001" y="562.1899999999999" type="curve" smooth="yes"/>
      <point x="391.1020000000001" y="698.29"/>
      <point x="295.736" y="749.9459999999999"/>
      <point x="203.43" y="749.9459999999999" type="curve" smooth="yes"/>
      <point x="135.87800000000001" y="749.9459999999999"/>
      <point x="63.519999999999996" y="727.332"/>
      <point x="9.852" y="686.056" type="curve"/>
      <point x="25.858" y="656.422" type="line"/>
      <point x="79.84199999999998" y="696.544"/>
      <point x="143.10000000000002" y="713.968"/>
      <point x="200.028" y="713.968" type="curve" smooth="yes"/>
      <point x="275.368" y="713.968"/>
      <point x="351.29600000000005" y="665.862"/>
      <point x="351.29600000000005" y="560.762" type="curve" smooth="yes"/>
      <point x="351.29600000000005" y="475.102"/>
      <point x="307.408" y="415.562"/>
      <point x="172.03" y="354.298" type="curve"/>
    </contour>
    <contour>
      <point x="167.50000000000003" y="24.956000000000003" type="curve" smooth="yes"/>
      <point x="167.50000000000003" y="3.484"/>
      <point x="172.94400000000002" y="-0.9359999999999999"/>
      <point x="192.768" y="-0.9359999999999999" type="curve" smooth="yes"/>
      <point x="213.394" y="-0.9359999999999999"/>
      <point x="217.49" y="3.484"/>
      <point x="217.49" y="24.956000000000003" type="curve" smooth="yes"/>
      <point x="217.49" y="46.517999999999994"/>
      <point x="213.394" y="50.937999999999995"/>
      <point x="192.768" y="50.937999999999995" type="curve" smooth="yes"/>
      <point x="171.488" y="50.937999999999995"/>
      <point x="167.50000000000003" y="46.517999999999994"/>
    </contour>
  </outline>
</glyph>
<glyph name="at" format="2">
  <advance width="716.812"/>
  <unicode hex="0040"/>
  <outline>
    <contour>
      <point x="356.984" y="-123.18" type="curve" smooth="yes"/>
      <point x="438.712" y="-123.18"/>
      <point x="514.196" y="-92.74000000000001"/>
      <point x="561.112" y="-57.519999999999996" type="curve"/>
      <point x="548.4720000000001" y="-36.964" type="line"/>
      <point x="501.496" y="-70.86"/>
      <point x="434.78" y="-96.316"/>
      <point x="358.06399999999996" y="-96.316" type="curve" smooth="yes"/>
      <point x="181.32800000000003" y="-96.316"/>
      <point x="76.072" y="8.696000000000002"/>
      <point x="76.072" y="268.988" type="curve" smooth="yes"/>
      <point x="76.072" y="505.536"/>
      <point x="162.38" y="684.168"/>
      <point x="368.54400000000004" y="684.168" type="curve" smooth="yes"/>
      <point x="564.412" y="684.168"/>
      <point x="642.8800000000001" y="567.304"/>
      <point x="642.8800000000001" y="346.164" type="curve" smooth="yes"/>
      <point x="642.8800000000001" y="209.90400000000002"/>
      <point x="613.18" y="92.776"/>
      <point x="556.26" y="92.776" type="curve" smooth="yes"/>
      <point x="516.096" y="92.776"/>
      <point x="489.58000000000004" y="123.664"/>
      <point x="496.108" y="251.904" type="curve" smooth="yes"/>
      <point x="510.04400000000004" y="507.636" type="line"/>
      <point x="462.15200000000004" y="522.332"/>
      <point x="419.372" y="530.9239999999999"/>
      <point x="381.904" y="530.9239999999999" type="curve" smooth="yes"/>
      <point x="249.69200000000004" y="530.9239999999999"/>
      <point x="194.792" y="402.968"/>
      <point x="194.792" y="268.048" type="curve" smooth="yes"/>
      <point x="194.792" y="123.172"/>
      <point x="242.10000000000002" y="66.564"/>
      <point x="312.764" y="66.564" type="curve" smooth="yes"/>
      <point x="388.35600000000005" y="66.564"/>
      <point x="439.03600000000006" y="127.32000000000002"/>
      <point x="465.772" y="235.884" type="curve"/>
      <point x="463.81600000000003" y="117.10000000000001"/>
      <point x="482.456" y="62.988"/>
      <point x="552.26" y="62.988" type="curve" smooth="yes"/>
      <point x="634.592" y="62.988"/>
      <point x="671.408" y="196.228"/>
      <point x="671.408" y="347.13599999999997" type="curve" smooth="yes"/>
      <point x="671.408" y="590.564"/>
      <point x="580.036" y="709.672"/>
      <point x="370.344" y="709.672" type="curve" smooth="yes"/>
      <point x="144.16" y="709.672"/>
      <point x="46.568" y="520.54"/>
      <point x="46.568" y="269.6" type="curve" smooth="yes"/>
      <point x="46.568" y="-7.5879999999999965"/>
      <point x="162.79600000000002" y="-123.18"/>
    </contour>
    <contour>
      <point x="321.20000000000005" y="100.45599999999999" type="curve" smooth="yes"/>
      <point x="271.656" y="100.45599999999999"/>
      <point x="232.756" y="145.32399999999998"/>
      <point x="232.756" y="268.876" type="curve" smooth="yes"/>
      <point x="232.756" y="380.56399999999996"/>
      <point x="278.956" y="500.256"/>
      <point x="380.04" y="500.256" type="curve" smooth="yes"/>
      <point x="405.488" y="500.256"/>
      <point x="441.35600000000005" y="493.96000000000004"/>
      <point x="473.268" y="484.52000000000004" type="curve"/>
      <point x="467.88" y="401.17999999999995" type="line" smooth="yes"/>
      <point x="445.128" y="153.83599999999998"/>
      <point x="387.472" y="100.45599999999999"/>
    </contour>
  </outline>
</glyph>
<glyph name="A" format="2">
  <advance width="565.7979999999999"/>
  <unicode hex="0041"/>
  <anchor x="550.986" y="0.0" name="ogonek"/>
  <anchor x="282.824" y="0.0" name="bottom"/>
  <anchor x="283.47200000000004" y="700.0" name="top"/>
  <outline>
    <contour>
      <point x="14.883999999999999" y="0.0" type="line"/>
      <point x="55.699999999999996" y="0.0" type="line"/>
      <point x="128.972" y="209.62800000000001" type="line"/>
      <point x="435.492" y="209.62800000000001" type="line"/>
      <point x="508.726" y="0.0" type="line"/>
      <point x="550.986" y="0.0" type="line"/>
      <point x="301.658" y="709.1" type="line"/>
      <point x="264.30600000000004" y="709.1" type="line"/>
    </contour>
    <contour>
      <point x="139.49999999999997" y="244.774" type="line"/>
      <point x="282.24" y="653.1560000000001" type="line"/>
      <point x="425.292" y="244.774" type="line"/>
    </contour>
  </outline>
</glyph>
<glyph name="B" format="2">
  <advance width="588.52"/>
  <unicode hex="0042"/>
  <anchor x="294.67999999999995" y="700.0" name="top"/>
  <anchor x="294.67999999999995" y="0.0" name="bottom"/>
  <outline>
    <contour>
      <point x="79.072" y="-0.9519999999999994" type="line"/>
      <point x="181.14000000000001" y="-8.163999999999998"/>
      <point x="228.47600000000003" y="-10.0"/>
      <point x="301.828" y="-10.0" type="curve" smooth="yes"/>
      <point x="481.684" y="-10.0"/>
      <point x="553.584" y="49.508"/>
      <point x="553.584" y="188.504" type="curve" smooth="yes"/>
      <point x="553.584" y="284.096"/>
      <point x="499.28800000000007" y="348.60400000000004"/>
      <point x="409.15600000000006" y="365.52" type="curve"/>
      <point x="409.15600000000006" y="367.02799999999996" type="line"/>
      <point x="476.8280000000001" y="387.94399999999996"/>
      <point x="518.896" y="453.30799999999994"/>
      <point x="518.896" y="536.8679999999999" type="curve" smooth="yes"/>
      <point x="518.896" y="659.18"/>
      <point x="456.096" y="710.0"/>
      <point x="294.21999999999997" y="710.0" type="curve" smooth="yes"/>
      <point x="236.40400000000002" y="710.0"/>
      <point x="180.068" y="706.984"/>
      <point x="79.072" y="699.788" type="curve"/>
    </contour>
    <contour>
      <point x="118.512" y="376.08799999999997" type="line"/>
      <point x="118.512" y="668.7320000000001" type="line"/>
      <point x="210.556" y="675.0440000000001"/>
      <point x="223.836" y="676.0440000000001"/>
      <point x="286.74399999999997" y="676.0440000000001" type="curve" smooth="yes"/>
      <point x="426.496" y="676.0440000000001"/>
      <point x="480.896" y="632.088"/>
      <point x="480.896" y="530.568" type="curve" smooth="yes"/>
      <point x="480.896" y="440.392"/>
      <point x="424.348" y="376.08799999999997"/>
      <point x="336.468" y="376.08799999999997" type="curve" smooth="yes"/>
    </contour>
    <contour>
      <point x="118.512" y="31.596" type="curve"/>
      <point x="118.512" y="342.408" type="line"/>
      <point x="342.06" y="342.408" type="line" smooth="yes"/>
      <point x="451.956" y="342.408"/>
      <point x="513.604" y="285.25200000000007"/>
      <point x="513.604" y="189.24" type="curve" smooth="yes"/>
      <point x="513.604" y="70.536"/>
      <point x="454.252" y="24.119999999999997"/>
      <point x="296.632" y="24.119999999999997" type="curve" smooth="yes"/>
      <point x="250.52800000000002" y="24.119999999999997"/>
      <point x="216.412" y="25.956"/>
    </contour>
  </outline>
</glyph>
<glyph name="C" format="2">
  <advance width="577.2760000000001"/>
  <unicode hex="0043"/>
  <anchor x="330.682" y="700.0" name="top"/>
  <anchor x="329.902" y="0.0" name="bottom"/>
  <outline>
    <contour>
      <point x="50.558" y="336.796" type="curve" smooth="yes"/>
      <point x="50.558" y="78.428"/>
      <point x="154.95" y="-10.0"/>
      <point x="336.5" y="-10.0" type="curve" smooth="yes"/>
      <point x="411.81600000000003" y="-10.0"/>
      <point x="487.36800000000005" y="-0.6059999999999994"/>
      <point x="546.56" y="17.772000000000002" type="curve"/>
      <point x="538.556" y="51.68" type="line"/>
      <point x="482.484" y="34.64"/>
      <point x="406.256" y="24.658"/>
      <point x="340.62800000000004" y="24.658" type="curve" smooth="yes"/>
      <point x="180.77800000000002" y="24.658"/>
      <point x="90.16000000000001" y="106.92"/>
      <point x="90.16000000000001" y="336.92199999999997" type="curve" smooth="yes"/>
      <point x="90.16000000000001" y="587.644"/>
      <point x="184.674" y="674.6700000000001"/>
      <point x="350.51" y="674.6700000000001" type="curve" smooth="yes"/>
      <point x="413.196" y="674.6700000000001"/>
      <point x="461.31800000000004" y="668.908"/>
      <point x="518.148" y="653.506" type="curve"/>
      <point x="526.638" y="687.1200000000001" type="line"/>
      <point x="468.28400000000005" y="703.914"/>
      <point x="417.3140000000001" y="710.0"/>
      <point x="347.96600000000007" y="710.0" type="curve" smooth="yes"/>
      <point x="155.126" y="710.0"/>
      <point x="50.558" y="603.1820000000001"/>
    </contour>
  </outline>
</glyph>
<glyph name="D" format="2">
  <advance width="640.7399999999998"/>
  <unicode hex="0044"/>
  <anchor x="310.008" y="700.0" name="top"/>
  <outline>
    <contour>
      <point x="288.908" y="-10.0" type="curve" smooth="yes"/>
      <point x="486.884" y="-10.0"/>
      <point x="590.1279999999999" y="98.032"/>
      <point x="590.1279999999999" y="347.196" type="curve" smooth="yes"/>
      <point x="590.1279999999999" y="603.1479999999999"/>
      <point x="495.752" y="710.0"/>
      <point x="281.072" y="710.0" type="curve" smooth="yes"/>
      <point x="218.90000000000003" y="710.0"/>
      <point x="155.264" y="707.492"/>
      <point x="79.072" y="701.9680000000001" type="curve"/>
      <point x="79.072" y="-3.312" type="line"/>
      <point x="151.67600000000002" y="-6.82"/>
      <point x="228.10000000000002" y="-10.0"/>
    </contour>
    <contour>
      <point x="280.80400000000003" y="23.596" type="curve" smooth="yes"/>
      <point x="243.936" y="23.596"/>
      <point x="163.74400000000003" y="26.088000000000005"/>
      <point x="118.51199999999999" y="29.252000000000002" type="curve"/>
      <point x="118.51199999999999" y="670.256" type="line"/>
      <point x="170.928" y="673.568"/>
      <point x="237.82" y="675.7320000000001"/>
      <point x="274.82" y="675.7320000000001" type="curve" smooth="yes"/>
      <point x="465.71200000000005" y="675.7320000000001"/>
      <point x="549.148" y="586.4279999999999"/>
      <point x="549.148" y="347.344" type="curve" smooth="yes"/>
      <point x="549.148" y="115.27600000000001"/>
      <point x="460.4" y="23.596"/>
    </contour>
  </outline>
</glyph>
<glyph name="E" format="2">
  <advance width="534.9"/>
  <unicode hex="0045"/>
  <anchor x="507.24399999999997" y="0.0" name="ogonek"/>
  <anchor x="293.568" y="0.0" name="bottom"/>
  <anchor x="287.32" y="700.0" name="top"/>
  <outline>
    <contour>
      <point x="79.072" y="0.0" type="line"/>
      <point x="507.424" y="0.0" type="line"/>
      <point x="507.424" y="36.559999999999995" type="line"/>
      <point x="118.69200000000001" y="36.559999999999995" type="line"/>
      <point x="118.69200000000001" y="351.41200000000003" type="line"/>
      <point x="467.55600000000004" y="351.41200000000003" type="line"/>
      <point x="467.55600000000004" y="387.29999999999995" type="line"/>
      <point x="118.69200000000001" y="387.29999999999995" type="line"/>
      <point x="118.69200000000001" y="663.44" type="line"/>
      <point x="489.752" y="663.44" type="line"/>
      <point x="489.752" y="700.0" type="line"/>
      <point x="79.072" y="700.0" type="line"/>
    </contour>
  </outline>
</glyph>
<glyph name="F" format="2">
  <advance width="507.032"/>
  <unicode hex="0046"/>
  <outline>
    <contour>
      <point x="79.072" y="0.0" type="line"/>
      <point x="118.69200000000001" y="0.0" type="line"/>
      <point x="118.69200000000001" y="318.564" type="line"/>
      <point x="440.44" y="318.564" type="line"/>
      <point x="440.44" y="354.27200000000005" type="line"/>
      <point x="118.51199999999999" y="354.27200000000005" type="line"/>
      <point x="118.51199999999999" y="663.08" type="line"/>
      <point x="489.21200000000005" y="663.08" type="line"/>
      <point x="489.21200000000005" y="700.0" type="line"/>
      <point x="79.072" y="700.0" type="line"/>
    </contour>
  </outline>
</glyph>
<glyph name="G" format="2">
  <advance width="614.4019999999999"/>
  <unicode hex="0047"/>
  <anchor x="323.6" y="700.0" name="top"/>
  <anchor x="327.09999999999997" y="0.0" name="bottom"/>
  <outline>
    <contour>
      <point x="50.558" y="336.904" type="curve" smooth="yes"/>
      <point x="50.558" y="103.894"/>
      <point x="144.256" y="-10.0"/>
      <point x="325.19599999999997" y="-10.0" type="curve" smooth="yes"/>
      <point x="414.984" y="-10.0"/>
      <point x="498.406" y="2.138"/>
      <point x="551.6260000000001" y="24.7" type="curve"/>
      <point x="551.6260000000001" y="335.96799999999996" type="line"/>
      <point x="321.36" y="335.96799999999996" type="line"/>
      <point x="321.36" y="302.24" type="line"/>
      <point x="514.652" y="302.24" type="line"/>
      <point x="514.652" y="48.978" type="line"/>
      <point x="464.23600000000005" y="31.638"/>
      <point x="403.32800000000003" y="23.542"/>
      <point x="328.31600000000003" y="23.542" type="curve" smooth="yes"/>
      <point x="173.49800000000002" y="23.542"/>
      <point x="90.052" y="125.624"/>
      <point x="90.052" y="336.544" type="curve" smooth="yes"/>
      <point x="90.052" y="564.7180000000001"/>
      <point x="177.08" y="674.778"/>
      <point x="338.39" y="674.778" type="curve" smooth="yes"/>
      <point x="400.802" y="674.778"/>
      <point x="460.41200000000003" y="666.688"/>
      <point x="520.172" y="648.72" type="curve"/>
      <point x="528.3380000000001" y="681.714" type="line"/>
      <point x="471.22599999999994" y="700.4200000000001"/>
      <point x="406.32800000000003" y="710.0"/>
      <point x="336.116" y="710.0" type="curve" smooth="yes"/>
      <point x="149.96" y="710.0"/>
      <point x="50.558" y="587.104"/>
    </contour>
  </outline>
</glyph>
<glyph name="H" format="2">
  <advance width="665.9620000000001"/>
  <unicode hex="0048"/>
  <anchor x="333.19" y="700.0" name="top"/>
  <outline>
    <contour>
      <point x="79.054" y="0.0" type="line"/>
      <point x="118.22399999999999" y="0.0" type="line"/>
      <point x="118.22399999999999" y="284.354" type="line"/>
      <point x="547.738" y="284.354" type="line"/>
      <point x="547.738" y="0.0" type="line"/>
      <point x="586.908" y="0.0" type="line"/>
      <point x="586.908" y="700.0" type="line"/>
      <point x="547.738" y="700.0" type="line"/>
      <point x="547.738" y="320.638" type="line"/>
      <point x="118.22399999999999" y="320.638" type="line"/>
      <point x="118.22399999999999" y="700.0" type="line"/>
      <point x="79.054" y="700.0" type="line"/>
    </contour>
  </outline>
</glyph>
<glyph name="I" format="2">
  <advance width="197.278"/>
  <unicode hex="0049"/>
  <anchor x="118.22399999999999" y="0.0" name="ogonek"/>
  <anchor x="98.666" y="0.0" name="bottom"/>
  <anchor x="98.666" y="700.0" name="top"/>
  <outline>
    <contour>
      <point x="79.054" y="0.0" type="line"/>
      <point x="118.22399999999999" y="0.0" type="line"/>
      <point x="118.22399999999999" y="700.0" type="line"/>
      <point x="79.054" y="700.0" type="line"/>
    </contour>
  </outline>
</glyph>
<glyph name="J" format="2">
  <advance width="441.762"/>
  <unicode hex="004A"/>
  <anchor x="216.074" y="700.0" name="top"/>
  <outline>
    <contour>
      <point x="13.718000000000002" y="15.693999999999999" type="line"/>
      <point x="65.104" y="-1.0239999999999998"/>
      <point x="129.3" y="-10.364"/>
      <point x="179.554" y="-10.364" type="curve" smooth="yes"/>
      <point x="317.136" y="-10.364"/>
      <point x="376.718" y="57.586000000000006"/>
      <point x="376.718" y="184.254" type="curve" smooth="yes"/>
      <point x="376.718" y="700.0" type="line"/>
      <point x="52.245999999999995" y="700.0" type="line"/>
      <point x="52.245999999999995" y="664.1300000000001" type="line"/>
      <point x="337.548" y="664.1300000000001" type="line"/>
      <point x="337.548" y="187.746" type="line" smooth="yes"/>
      <point x="337.548" y="70.644"/>
      <point x="279.04200000000003" y="24.857999999999997"/>
      <point x="173.27200000000002" y="24.857999999999997" type="curve" smooth="yes"/>
      <point x="128.826" y="24.857999999999997"/>
      <point x="71.018" y="33.166000000000004"/>
      <point x="22.466" y="48.75" type="curve"/>
    </contour>
  </outline>
</glyph>
<glyph name="K" format="2">
  <advance width="590.2399999999999"/>
  <unicode hex="004B"/>
  <anchor x="294.93999999999994" y="700.0" name="top"/>
  <anchor x="290.56" y="0.0" name="bottom"/>
  <outline>
    <contour>
      <point x="564.82" y="-10.0" type="curve" smooth="yes"/>
      <point x="568.54" y="-10.0"/>
      <point x="574.72" y="-10.0"/>
      <point x="581.26" y="-8.0" type="curve"/>
      <point x="581.26" y="31.8" type="line"/>
      <point x="577.08" y="30.98"/>
      <point x="572.72" y="30.98"/>
      <point x="569.5400000000001" y="30.98" type="curve" smooth="yes"/>
      <point x="526.9" y="31.799999999999997"/>
      <point x="494.82" y="51.26"/>
      <point x="405.44" y="141.66" type="curve" smooth="yes"/>
      <point x="118.83999999999999" y="431.96" type="line"/>
      <point x="118.83999999999999" y="700.0" type="line"/>
      <point x="79.4" y="700.0" type="line"/>
      <point x="79.4" y="0.0" type="line"/>
      <point x="118.83999999999999" y="0.0" type="line"/>
      <point x="118.83999999999999" y="378.09999999999997" type="line"/>
      <point x="385.55999999999995" y="106.41999999999999" type="line" smooth="yes"/>
      <point x="468.04" y="22.380000000000003"/>
      <point x="512.38" y="-10.0"/>
    </contour>
    <contour>
      <point x="221.44" y="306.66" type="line"/>
      <point x="326.4" y="380.28000000000003"/>
      <point x="478.09999999999997" y="507.65999999999997"/>
      <point x="551.4" y="688.98" type="curve"/>
      <point x="519.1800000000001" y="704.36" type="line"/>
      <point x="444.44" y="525.4"/>
      <point x="293.94" y="403.65999999999997"/>
      <point x="196.84" y="332.92" type="curve"/>
    </contour>
  </outline>
</glyph>
<glyph name="L" format="2">
  <advance width="483.29"/>
  <unicode hex="004C"/>
  <anchor x="241.854" y="350.0" name="center"/>
  <anchor x="98.666" y="700.0" name="top"/>
  <anchor x="314.63" y="700.0" name="topright"/>
  <anchor x="269.92400000000004" y="0.0" name="bottom"/>
  <outline>
    <contour>
      <point x="79.054" y="0.0" type="line"/>
      <point x="468.75" y="0.0" type="line"/>
      <point x="468.75" y="35.906" type="line"/>
      <point x="118.278" y="35.906" type="line"/>
      <point x="118.278" y="700.0" type="line"/>
      <point x="79.054" y="700.0" type="line"/>
    </contour>
  </outline>
</glyph>
<glyph name="M" format="2">
  <advance width="744.3620000000001"/>
  <unicode hex="004D"/>
  <outline>
    <contour>
      <point x="79.454" y="0.0" type="line"/>
      <point x="116.752" y="0.0" type="line"/>
      <point x="116.752" y="637.864" type="line"/>
      <point x="361.118" y="267.78999999999996" type="line"/>
      <point x="381.86600000000004" y="267.78999999999996" type="line"/>
      <point x="627.61" y="639.3860000000001" type="line"/>
      <point x="627.61" y="0.0" type="line"/>
      <point x="664.908" y="0.0" type="line"/>
      <point x="664.908" y="700.0" type="line"/>
      <point x="625.9" y="700.0" type="line"/>
      <point x="373.03200000000004" y="314.534" type="line"/>
      <point x="119.452" y="700.0" type="line"/>
      <point x="79.454" y="700.0" type="line"/>
    </contour>
  </outline>
</glyph>
<glyph name="N" format="2">
  <advance width="661.6000000000001"/>
  <unicode hex="004E"/>
  <anchor x="330.79999999999995" y="700.0" name="top"/>
  <anchor x="330.79999999999995" y="0.0" name="bottom"/>
  <outline>
    <contour>
      <point x="79.4" y="0.0" type="line"/>
      <point x="116.32000000000001" y="0.0" type="line"/>
      <point x="116.32000000000001" y="635.4" type="line"/>
      <point x="544.2" y="-0.36" type="line"/>
      <point x="582.1999999999999" y="-0.36" type="line"/>
      <point x="582.1999999999999" y="700.0" type="line"/>
      <point x="545.2800000000001" y="700.0" type="line"/>
      <point x="545.2800000000001" y="64.97999999999999" type="line"/>
      <point x="116.58" y="703.64" type="line"/>
      <point x="79.4" y="703.64" type="line"/>
    </contour>
  </outline>
</glyph>
<glyph name="O" format="2">
  <advance width="685.6100000000001"/>
  <unicode hex="004F"/>
  <anchor x="385.1" y="0.54" name="ogonek"/>
  <anchor x="341.44000000000005" y="700.0" name="top"/>
  <anchor x="499.57" y="678.62" name="topright"/>
  <anchor x="341.53000000000003" y="0.0" name="bottom"/>
  <outline>
    <contour>
      <point x="341.44000000000005" y="23.759999999999998" type="curve" smooth="yes"/>
      <point x="214.29" y="23.759999999999998"/>
      <point x="90.65" y="89.06"/>
      <point x="90.65" y="349.09" type="curve" smooth="yes"/>
      <point x="90.65" y="615.49"/>
      <point x="214.10999999999999" y="676.4200000000001"/>
      <point x="341.44000000000005" y="676.4200000000001" type="curve" smooth="yes"/>
      <point x="469.95000000000005" y="676.4200000000001"/>
      <point x="594.05" y="616.22"/>
      <point x="594.05" y="349.18" type="curve" smooth="yes"/>
      <point x="594.05" y="84.14"/>
      <point x="469.95000000000005" y="23.759999999999998"/>
    </contour>
    <contour>
      <point x="341.53000000000003" y="-10.0" type="curve" smooth="yes"/>
      <point x="498.19" y="-10.0"/>
      <point x="634.5799999999999" y="59.239999999999995"/>
      <point x="634.5799999999999" y="351.27000000000004" type="curve" smooth="yes"/>
      <point x="634.5799999999999" y="640.58"/>
      <point x="494.45" y="710.0"/>
      <point x="341.44000000000005" y="710.0" type="curve" smooth="yes"/>
      <point x="187.61" y="710.0"/>
      <point x="51.029999999999994" y="639.5799999999999"/>
      <point x="51.029999999999994" y="349.18" type="curve" smooth="yes"/>
      <point x="51.029999999999994" y="65.52"/>
      <point x="188.42000000000002" y="-10.0"/>
    </contour>
  </outline>
</glyph>
<glyph name="P" format="2">
  <advance width="577.5000000000001"/>
  <unicode hex="0050"/>
  <outline>
    <contour>
      <point x="79.054" y="0.0" type="line"/>
      <point x="118.278" y="0.0" type="line"/>
      <point x="118.278" y="266.56" type="line"/>
      <point x="190.014" y="264.19800000000004"/>
      <point x="226.984" y="263.834"/>
      <point x="288.82000000000005" y="263.834" type="curve" smooth="yes"/>
      <point x="469.15200000000004" y="263.834"/>
      <point x="542.554" y="324.116"/>
      <point x="542.554" y="494.78399999999993" type="curve" smooth="yes"/>
      <point x="542.554" y="652.422"/>
      <point x="489.118" y="710.0"/>
      <point x="275.994" y="710.0" type="curve" smooth="yes"/>
      <point x="238.70600000000002" y="710.0"/>
      <point x="187.474" y="708.018"/>
      <point x="79.054" y="702.292" type="curve"/>
    </contour>
    <contour>
      <point x="118.33200000000001" y="670.31" type="line"/>
      <point x="206.678" y="675.1659999999999"/>
      <point x="243.504" y="676.44"/>
      <point x="278.16" y="676.44" type="curve" smooth="yes"/>
      <point x="459.726" y="676.44"/>
      <point x="503.078" y="624.688"/>
      <point x="503.078" y="493.75800000000004" type="curve" smooth="yes"/>
      <point x="503.078" y="351.16600000000005"/>
      <point x="449.03400000000005" y="298.432"/>
      <point x="282.508" y="298.432" type="curve" smooth="yes"/>
      <point x="219.02599999999998" y="298.432"/>
      <point x="183.93" y="299.56000000000006"/>
      <point x="118.33200000000001" y="301.45" type="curve"/>
    </contour>
  </outline>
</glyph>
<glyph name="Q" format="2">
  <advance width="685.6640000000001"/>
  <unicode hex="0051"/>
  <outline>
    <contour>
      <point x="381.536" y="6.571999999999999" type="curve"/>
      <point x="345.84000000000003" y="0.11600000000000002" type="line"/>
      <point x="382.308" y="-140.84"/>
      <point x="425.252" y="-206.408"/>
      <point x="502.41999999999996" y="-206.408" type="curve" smooth="yes"/>
      <point x="528.212" y="-206.408"/>
      <point x="558.788" y="-199.588"/>
      <point x="592.572" y="-184.984" type="curve"/>
      <point x="584.0600000000001" y="-152.39600000000002" type="line"/>
      <point x="555.896" y="-165.496"/>
      <point x="530.12" y="-171.208"/>
      <point x="508.02000000000004" y="-171.208" type="curve" smooth="yes"/>
      <point x="447.476" y="-171.208"/>
      <point x="413.06000000000006" y="-118.168"/>
    </contour>
    <component base="O"/>
  </outline>
</glyph>
<glyph name="R" format="2">
  <advance width="623.16"/>
  <unicode hex="0052"/>
  <anchor x="290.92" y="700.0" name="top"/>
  <anchor x="305.3" y="0.0" name="bottom"/>
  <outline>
    <contour>
      <point x="601.5799999999999" y="-10.0" type="curve" smooth="yes"/>
      <point x="608.2" y="-10.0"/>
      <point x="614.92" y="-8.0"/>
      <point x="619.64" y="-7.0" type="curve"/>
      <point x="617.82" y="30.54" type="line"/>
      <point x="613.8199999999999" y="29.72"/>
      <point x="605.0" y="28.72"/>
      <point x="602.82" y="28.72" type="curve" smooth="yes"/>
      <point x="552.5400000000001" y="28.72"/>
      <point x="473.40000000000003" y="93.56"/>
      <point x="368.54" y="306.78" type="curve"/>
      <point x="478.48" y="324.02000000000004"/>
      <point x="534.84" y="383.38"/>
      <point x="534.84" y="512.12" type="curve" smooth="yes"/>
      <point x="534.84" y="663.4799999999999"/>
      <point x="460.67999999999995" y="710.0"/>
      <point x="264.90000000000003" y="710.0" type="curve" smooth="yes"/>
      <point x="198.36" y="710.0"/>
      <point x="151.24" y="707.82"/>
      <point x="79.4" y="702.64" type="curve"/>
      <point x="79.4" y="0.0" type="line"/>
      <point x="118.83999999999999" y="0.0" type="line"/>
      <point x="118.83999999999999" y="297.91999999999996" type="line"/>
      <point x="171.62" y="296.09999999999997"/>
      <point x="223.66" y="295.28"/>
      <point x="273.62" y="295.28" type="curve" smooth="yes"/>
      <point x="291.82" y="295.28"/>
      <point x="312.08000000000004" y="296.09999999999997"/>
      <point x="330.28" y="297.09999999999997" type="curve"/>
      <point x="444.08" y="64.54"/>
      <point x="529.72" y="-10.0"/>
    </contour>
    <contour>
      <point x="278.76" y="330.58" type="curve" smooth="yes"/>
      <point x="227.0" y="330.58"/>
      <point x="176.14000000000001" y="331.58000000000004"/>
      <point x="118.83999999999999" y="333.58000000000004" type="curve"/>
      <point x="118.83999999999999" y="671.24" type="line"/>
      <point x="177.93999999999997" y="675.24"/>
      <point x="206.14000000000001" y="676.06"/>
      <point x="266.26" y="676.06" type="curve" smooth="yes"/>
      <point x="439.46" y="676.06"/>
      <point x="494.68" y="633.04"/>
      <point x="494.68" y="508.24" type="curve" smooth="yes"/>
      <point x="494.68" y="376.34"/>
      <point x="432.93999999999994" y="330.58"/>
    </contour>
  </outline>
</glyph>
<glyph name="S" format="2">
  <advance width="541.88"/>
  <unicode hex="0053"/>
  <anchor x="275.11999999999995" y="700.0" name="top"/>
  <anchor x="270.22" y="0.0" name="bottom"/>
  <outline>
    <contour>
      <point x="465.65999999999997" y="681.1" type="line"/>
      <point x="422.86" y="696.46"/>
      <point x="341.88" y="710.0"/>
      <point x="283.65999999999997" y="710.0" type="curve" smooth="yes"/>
      <point x="139.94000000000003" y="710.0"/>
      <point x="50.94" y="639.48"/>
      <point x="50.94" y="535.14" type="curve" smooth="yes"/>
      <point x="50.94" y="442.79999999999995"/>
      <point x="102.56" y="392.36"/>
      <point x="259.8" y="335.88" type="curve" smooth="yes"/>
      <point x="409.71999999999997" y="282.5"/>
      <point x="461.32" y="240.46"/>
      <point x="461.32" y="163.60000000000002" type="curve" smooth="yes"/>
      <point x="461.32" y="75.26"/>
      <point x="387.0" y="24.4"/>
      <point x="257.94" y="24.4" type="curve" smooth="yes"/>
      <point x="192.95999999999998" y="24.4"/>
      <point x="92.32" y="41.400000000000006"/>
      <point x="40.53999999999999" y="61.3" type="curve"/>
      <point x="29.299999999999997" y="28.08" type="line"/>
      <point x="79.62000000000002" y="8.639999999999999"/>
      <point x="189.44" y="-10.0"/>
      <point x="256.67999999999995" y="-10.0" type="curve" smooth="yes"/>
      <point x="411.88000000000005" y="-10.0"/>
      <point x="501.93999999999994" y="55.62"/>
      <point x="501.93999999999994" y="167.04" type="curve" smooth="yes"/>
      <point x="501.93999999999994" y="259.46"/>
      <point x="450.88000000000005" y="308.54"/>
      <point x="289.94" y="366.48" type="curve" smooth="yes"/>
      <point x="138.82" y="420.59999999999997"/>
      <point x="91.56" y="461.54"/>
      <point x="91.56" y="536.5799999999999" type="curve" smooth="yes"/>
      <point x="91.56" y="621.46"/>
      <point x="167.23999999999998" y="676.0600000000001"/>
      <point x="283.65999999999997" y="676.0600000000001" type="curve" smooth="yes"/>
      <point x="338.82" y="676.0600000000001"/>
      <point x="412.44000000000005" y="664.0600000000001"/>
      <point x="455.41999999999996" y="648.52" type="curve"/>
    </contour>
  </outline>
</glyph>
<glyph name="T" format="2">
  <advance width="492.476"/>
  <unicode hex="0054"/>
  <anchor x="246.238" y="700.0" name="top"/>
  <anchor x="246.238" y="0.0" name="bottom"/>
  <outline>
    <contour>
      <point x="485.762" y="664.2420000000001" type="line"/>
      <point x="485.762" y="700.0" type="line"/>
      <point x="6.714" y="700.0" type="line"/>
      <point x="6.714" y="664.2420000000001" type="line"/>
      <point x="226.67999999999998" y="664.2420000000001" type="line"/>
      <point x="226.67999999999998" y="0.0" type="line"/>
      <point x="265.85" y="0.0" type="line"/>
      <point x="265.85" y="664.2420000000001" type="line"/>
    </contour>
  </outline>
</glyph>
<glyph name="U" format="2">
  <advance width="637.4000000000001"/>
  <unicode hex="0055"/>
  <anchor x="364.5060000000001" y="0.108" name="ogonek"/>
  <anchor x="319.00000000000006" y="700.0" name="top"/>
  <anchor x="572.356" y="700.0" name="topright"/>
  <anchor x="319.00000000000006" y="0.0" name="bottom"/>
  <outline>
    <contour>
      <point x="65.04400000000001" y="202.072" type="line"/>
      <point x="65.04400000000001" y="30.0"/>
      <point x="194.036" y="-10.0"/>
      <point x="318.892" y="-10.0" type="curve" smooth="yes"/>
      <point x="444.12600000000003" y="-10.0"/>
      <point x="572.356" y="30.0"/>
      <point x="572.356" y="202.072" type="curve" smooth="yes"/>
      <point x="572.356" y="700.0" type="line"/>
      <point x="533.366" y="700.0" type="line"/>
      <point x="533.366" y="201.87400000000002" type="line" smooth="yes"/>
      <point x="533.366" y="54.946"/>
      <point x="420.986" y="24.976"/>
      <point x="318.99999999999994" y="24.976" type="curve" smooth="yes"/>
      <point x="217.32000000000002" y="24.976"/>
      <point x="103.926" y="54.622"/>
      <point x="103.926" y="201.87400000000002" type="curve" smooth="yes"/>
      <point x="103.926" y="700.0" type="line"/>
      <point x="65.04400000000001" y="700.0" type="line"/>
    </contour>
  </outline>
</glyph>
<glyph name="V" format="2">
  <advance width="563.4280000000001"/>
  <unicode hex="0056"/>
  <outline>
    <contour>
      <point x="261.536" y="0.0" type="line"/>
      <point x="302.36" y="0.0" type="line"/>
      <point x="552.868" y="697.3599999999999" type="line"/>
      <point x="514.736" y="703.676" type="line"/>
      <point x="282.02" y="50.300000000000004" type="line"/>
      <point x="48.8" y="703.676" type="line"/>
      <point x="10.56" y="697.3599999999999" type="line"/>
    </contour>
  </outline>
</glyph>
<glyph name="W" format="2">
  <advance width="776.92"/>
  <unicode hex="0057"/>
  <anchor x="387.96" y="700.0" name="top"/>
  <anchor x="387.96" y="0.0" name="bottom"/>
  <outline>
    <contour>
      <point x="603.772" y="0.0" type="line"/>
      <point x="767.0360000000001" y="698.2879999999999" type="line"/>
      <point x="727.012" y="702.748" type="line"/>
      <point x="583.196" y="57.727999999999994" type="line"/>
      <point x="408.276" y="681.976" type="line"/>
      <point x="369.76" y="681.976" type="line"/>
      <point x="194.22799999999998" y="57.583999999999996" type="line"/>
      <point x="49.692" y="702.748" type="line"/>
      <point x="9.884" y="698.2879999999999" type="line"/>
      <point x="172.60799999999998" y="0.0" type="line"/>
      <point x="210.76000000000002" y="0.0" type="line"/>
      <point x="387.492" y="620.2199999999999" type="line"/>
      <point x="563.144" y="0.0" type="line"/>
    </contour>
  </outline>
</glyph>
<glyph name="X" format="2">
  <advance width="568.8"/>
  <unicode hex="0058"/>
  <outline>
    <contour>
      <point x="21.58" y="3.64" type="line"/>
      <point x="60.98" y="-5.460000000000001" type="line"/>
      <point x="283.21999999999997" y="328.88" type="line"/>
      <point x="507.56" y="-5.460000000000001" type="line"/>
      <point x="546.5" y="3.64" type="line"/>
      <point x="308.46" y="362.0" type="line"/>
      <point x="532.2199999999999" y="695.54" type="line"/>
      <point x="494.35999999999996" y="704.46" type="line"/>
      <point x="287.02" y="391.21999999999997" type="line"/>
      <point x="76.96" y="704.46" type="line"/>
      <point x="37.3" y="695.54" type="line"/>
      <point x="262.41999999999996" y="359.0" type="line"/>
    </contour>
  </outline>
</glyph>
<glyph name="Y" format="2">
  <advance width="549.5600000000001"/>
  <unicode hex="0059"/>
  <anchor x="275.326" y="700.0" name="top"/>
  <anchor x="277.328" y="0.0" name="bottom"/>
  <outline>
    <contour>
      <point x="258.262" y="0.0" type="line"/>
      <point x="297.432" y="0.0" type="line"/>
      <point x="297.432" y="305.29" type="line"/>
      <point x="537.7620000000001" y="695.4499999999999" type="line"/>
      <point x="499.8960000000001" y="704.5500000000001" type="line"/>
      <point x="277.94599999999997" y="340.276" type="line"/>
      <point x="47.623999999999995" y="704.5500000000001" type="line"/>
      <point x="9.613999999999999" y="695.4499999999999" type="line"/>
      <point x="258.262" y="305.29" type="line"/>
    </contour>
  </outline>
</glyph>
<glyph name="Z" format="2">
  <advance width="538.0280000000001"/>
  <unicode hex="005A"/>
  <anchor x="272.416" y="350.0" name="center"/>
  <anchor x="272.416" y="0.0" name="bottom"/>
  <anchor x="273.088" y="700.0" name="top"/>
  <outline>
    <contour>
      <point x="26.46" y="0.0" type="line"/>
      <point x="518.176" y="0.0" type="line"/>
      <point x="518.176" y="34.628" type="line"/>
      <point x="76.536" y="34.628" type="line"/>
      <point x="76.536" y="36.628" type="line"/>
      <point x="492.092" y="669.52" type="line"/>
      <point x="492.092" y="700.0" type="line"/>
      <point x="51.675999999999995" y="700.0" type="line"/>
      <point x="51.675999999999995" y="665.3720000000001" type="line"/>
      <point x="442.55600000000004" y="665.3720000000001" type="line"/>
      <point x="442.55600000000004" y="663.3720000000001" type="line"/>
      <point x="26.46" y="30.479999999999997" type="line"/>
    </contour>
  </outline>
</glyph>
<glyph name="bracketleft" format="2">
  <advance width="293.896"/>
  <unicode hex="005B"/>
  <outline>
    <contour>
      <point x="117.322" y="-178.11999999999998" type="line"/>
      <point x="117.322" y="708.12" type="line"/>
      <point x="272.076" y="708.12" type="line"/>
      <point x="272.076" y="740.0" type="line"/>
      <point x="83.66" y="740.0" type="line"/>
      <point x="83.66" y="-210.0" type="line"/>
      <point x="272.076" y="-210.0" type="line"/>
      <point x="272.076" y="-178.11999999999998" type="line"/>
    </contour>
  </outline>
</glyph>
<glyph name="backslash" format="2">
  <advance width="308.908"/>
  <unicode hex="005C"/>
  <outline>
    <contour>
      <point x="39.134" y="740.0" type="line"/>
      <point x="4.552" y="740.0" type="line"/>
      <point x="269.828" y="-210.0" type="line"/>
      <point x="304.356" y="-210.0" type="line"/>
    </contour>
  </outline>
</glyph>
<glyph name="bracketright" format="2">
  <advance width="293.896"/>
  <unicode hex="005D"/>
  <outline>
    <contour>
      <point x="21.82" y="-178.11999999999998" type="line"/>
      <point x="21.82" y="-210.0" type="line"/>
      <point x="210.23600000000002" y="-210.0" type="line"/>
      <point x="210.23600000000002" y="740.0" type="line"/>
      <point x="21.82" y="740.0" type="line"/>
      <point x="21.82" y="708.12" type="line"/>
      <point x="176.574" y="708.12" type="line"/>
      <point x="176.574" y="-178.11999999999998" type="line"/>
    </contour>
  </outline>
</glyph>
<glyph name="asciicircum" format="2">
  <advance width="456.692"/>
  <unicode hex="005E"/>
  <outline>
    <contour>
      <point x="43.76" y="273.13800000000003" type="line"/>
      <point x="78.808" y="273.13800000000003" type="line"/>
      <point x="228.346" y="667.868" type="line"/>
      <point x="377.97400000000005" y="273.13800000000003" type="line"/>
      <point x="412.932" y="273.13800000000003" type="line"/>
      <point x="246.572" y="709.1" type="line"/>
      <point x="210.11999999999998" y="709.1" type="line"/>
    </contour>
  </outline>
</glyph>
<glyph name="underscore" format="2">
  <advance width="767.2120000000001"/>
  <unicode hex="005F"/>
  <outline>
    <contour>
      <point x="1.7999999999999998" y="-142.606" type="line"/>
      <point x="765.4120000000001" y="-142.606" type="line"/>
      <point x="765.4120000000001" y="-109.286" type="line"/>
      <point x="1.7999999999999998" y="-109.286" type="line"/>
    </contour>
  </outline>
</glyph>
<glyph name="a" format="2">
  <advance width="484.16"/>
  <unicode hex="0061"/>
  <anchor x="479.52" y="1.16" name="ogonek"/>
  <anchor x="235.48" y="0.0" name="bottom"/>
  <anchor x="236.76000000000002" y="531.8" name="top"/>
  <outline>
    <contour>
      <point x="34.84" y="116.86" type="curve" smooth="yes"/>
      <point x="34.84" y="32.52"/>
      <point x="84.64000000000001" y="-10.0"/>
      <point x="160.62" y="-10.0" type="curve" smooth="yes"/>
      <point x="246.18" y="-10.0"/>
      <point x="315.48" y="31.48"/>
      <point x="363.02000000000004" y="72.94" type="curve"/>
      <point x="365.36" y="16.1"/>
      <point x="389.8" y="-10.0"/>
      <point x="432.78" y="-10.0" type="curve" smooth="yes"/>
      <point x="448.38" y="-10.0"/>
      <point x="463.08" y="-6.92"/>
      <point x="479.52" y="1.3399999999999999" type="curve"/>
      <point x="472.62" y="31.479999999999997" type="line"/>
      <point x="461.34" y="26.659999999999997"/>
      <point x="451.34000000000003" y="24.839999999999996"/>
      <point x="441.88" y="24.839999999999996" type="curve" smooth="yes"/>
      <point x="415.68" y="24.839999999999996"/>
      <point x="400.4" y="39.76"/>
      <point x="400.4" y="90.24000000000001" type="curve" smooth="yes"/>
      <point x="400.4" y="389.86" type="line" smooth="yes"/>
      <point x="400.4" y="492.28000000000003"/>
      <point x="337.78000000000003" y="541.8"/>
      <point x="228.06" y="541.8" type="curve" smooth="yes"/>
      <point x="180.72" y="541.8"/>
      <point x="125.66" y="533.26"/>
      <point x="70.76" y="516.9" type="curve"/>
      <point x="79.46" y="483.68" type="line"/>
      <point x="135.64000000000001" y="500.68"/>
      <point x="186.44" y="506.68"/>
      <point x="227.44" y="506.68" type="curve" smooth="yes"/>
      <point x="317.94" y="506.68"/>
      <point x="362.50000000000006" y="464.28"/>
      <point x="362.50000000000006" y="389.67999999999995" type="curve" smooth="yes"/>
      <point x="362.50000000000006" y="290.4" type="line"/>
      <point x="151.78" y="269.29999999999995"/>
      <point x="34.84" y="244.57999999999998"/>
    </contour>
    <contour>
      <point x="73.74" y="122.39999999999999" type="curve" smooth="yes"/>
      <point x="73.74" y="225.74"/>
      <point x="195.12" y="248.48000000000002"/>
      <point x="362.50000000000006" y="262.4" type="curve"/>
      <point x="362.50000000000006" y="104.76" type="line"/>
      <point x="308.99999999999994" y="56.82"/>
      <point x="238.32" y="20.88"/>
      <point x="169.89999999999998" y="20.88" type="curve" smooth="yes"/>
      <point x="111.03999999999999" y="20.88"/>
      <point x="73.74" y="55.54"/>
    </contour>
  </outline>
</glyph>
<glyph name="b" format="2">
  <advance width="509.03399999999993"/>
  <unicode hex="0062"/>
  <outline>
    <contour>
      <point x="72.13" y="11.682" type="line"/>
      <point x="136.07999999999998" y="-3.1319999999999997"/>
      <point x="186.38" y="-10.0"/>
      <point x="232.296" y="-10.0" type="curve" smooth="yes"/>
      <point x="391.89400000000006" y="-10.0"/>
      <point x="464.68" y="75.94800000000001"/>
      <point x="464.68" y="280.35600000000005" type="curve" smooth="yes"/>
      <point x="464.68" y="447.59599999999995"/>
      <point x="400.3" y="541.8"/>
      <point x="288.68" y="541.8" type="curve" smooth="yes"/>
      <point x="230.036" y="541.8"/>
      <point x="173.176" y="522.068"/>
      <point x="110.58" y="479.29" type="curve"/>
      <point x="110.58" y="740.0" type="line"/>
      <point x="72.13" y="740.0" type="line"/>
    </contour>
    <contour>
      <point x="110.58" y="35.86" type="curve"/>
      <point x="110.58" y="446.16" type="line"/>
      <point x="176.294" y="490.88599999999997"/>
      <point x="222.446" y="507.88"/>
      <point x="278.12000000000006" y="507.88" type="curve" smooth="yes"/>
      <point x="370.652" y="507.88"/>
      <point x="425.492" y="425.638"/>
      <point x="425.492" y="278.718" type="curve" smooth="yes"/>
      <point x="425.492" y="92.93599999999999"/>
      <point x="365.014" y="20.598"/>
      <point x="230.538" y="20.598" type="curve" smooth="yes"/>
      <point x="197.668" y="20.598"/>
      <point x="160.14" y="25.2"/>
    </contour>
  </outline>
</glyph>
<glyph name="c" format="2">
  <advance width="460.876"/>
  <unicode hex="0063"/>
  <anchor x="268.70000000000005" y="531.8" name="top"/>
  <anchor x="269.516" y="0.0" name="bottom"/>
  <outline>
    <contour>
      <point x="44.443999999999996" y="257.40799999999996" type="curve" smooth="yes"/>
      <point x="44.443999999999996" y="74.412"/>
      <point x="122.19200000000001" y="-10.0"/>
      <point x="272.25600000000003" y="-10.0" type="curve" smooth="yes"/>
      <point x="324.83199999999994" y="-10.0"/>
      <point x="388.80800000000005" y="-0.8200000000000002"/>
      <point x="433.64400000000006" y="11.228" type="curve"/>
      <point x="426.836" y="42.844" type="line"/>
      <point x="382.156" y="32.116"/>
      <point x="322.736" y="23.583999999999996"/>
      <point x="278.21200000000005" y="23.583999999999996" type="curve" smooth="yes"/>
      <point x="152.73600000000002" y="23.583999999999996"/>
      <point x="83.272" y="94.668"/>
      <point x="83.272" y="254.852" type="curve" smooth="yes"/>
      <point x="83.272" y="430.744"/>
      <point x="154.908" y="508.072"/>
      <point x="279.236" y="508.072" type="curve" smooth="yes"/>
      <point x="321.80000000000007" y="508.072"/>
      <point x="375.916" y="500.76"/>
      <point x="418.416" y="490.14" type="curve"/>
      <point x="424.71999999999997" y="522.512" type="line"/>
      <point x="381.8" y="534.2"/>
      <point x="323.072" y="541.8"/>
      <point x="278.4800000000001" y="541.8" type="curve" smooth="yes"/>
      <point x="128.67600000000002" y="541.8"/>
      <point x="44.443999999999996" y="452.28400000000005"/>
    </contour>
  </outline>
</glyph>
<glyph name="d" format="2">
  <advance width="509.15999999999997"/>
  <unicode hex="0064"/>
  <anchor x="254.74400000000003" y="275.0" name="center"/>
  <anchor x="255.008" y="740.0" name="top"/>
  <anchor x="521.08" y="740.0" name="topright"/>
  <anchor x="254.74400000000003" y="0.0" name="bottom"/>
  <outline>
    <contour>
      <point x="405.544" y="-0.18" type="line"/>
      <point x="437.11999999999995" y="-0.18" type="line"/>
      <point x="437.11999999999995" y="740.0" type="line"/>
      <point x="398.40000000000003" y="740.0" type="line"/>
      <point x="398.40000000000003" y="527.716" type="line"/>
      <point x="355.55999999999995" y="537.324"/>
      <point x="312.52400000000006" y="541.8"/>
      <point x="274.308" y="541.8" type="curve" smooth="yes"/>
      <point x="117.248" y="541.8"/>
      <point x="44.3" y="454.556"/>
      <point x="44.3" y="251.948" type="curve" smooth="yes"/>
      <point x="44.3" y="83.196"/>
      <point x="109.316" y="-10.0"/>
      <point x="222.052" y="-10.0" type="curve" smooth="yes"/>
      <point x="281.2" y="-10.0"/>
      <point x="335.34799999999996" y="8.639999999999999"/>
      <point x="398.58" y="52.20000000000001" type="curve"/>
    </contour>
    <contour>
      <point x="398.40000000000003" y="85.424" type="line"/>
      <point x="332.884" y="41.040000000000006"/>
      <point x="286.552" y="23.956"/>
      <point x="230.51200000000003" y="23.956" type="curve" smooth="yes"/>
      <point x="138.616" y="23.956"/>
      <point x="83.74" y="105.54"/>
      <point x="83.74" y="253.92800000000003" type="curve" smooth="yes"/>
      <point x="83.74" y="438.86400000000003"/>
      <point x="144.09199999999998" y="510.824"/>
      <point x="278.38800000000003" y="510.824" type="curve" smooth="yes"/>
      <point x="311.456" y="510.824"/>
      <point x="349.296" y="506.348"/>
      <point x="398.40000000000003" y="495.544" type="curve"/>
    </contour>
  </outline>
</glyph>
<glyph name="e" format="2">
  <advance width="497.70400000000006"/>
  <unicode hex="0065"/>
  <anchor x="418.03200000000004" y="9.524000000000001" name="ogonek"/>
  <anchor x="265.24" y="0.0" name="bottom"/>
  <anchor x="263.452" y="531.8" name="top"/>
  <outline>
    <contour>
      <point x="255.908" y="-10.0" type="curve" smooth="yes"/>
      <point x="331.75600000000003" y="-10.0"/>
      <point x="403.60800000000006" y="2.9680000000000004"/>
      <point x="450.7" y="17.408000000000005" type="curve"/>
      <point x="444.22800000000007" y="49.204" type="line"/>
      <point x="398.528" y="36.352"/>
      <point x="328.396" y="23.548"/>
      <point x="260.36" y="23.548" type="curve" smooth="yes"/>
      <point x="150.108" y="23.548"/>
      <point x="83.56" y="83.53999999999999"/>
      <point x="83.56" y="252.552" type="curve" smooth="yes"/>
      <point x="83.56" y="261.34"/>
      <point x="83.888" y="270.112"/>
      <point x="84.396" y="278.572" type="curve"/>
      <point x="265.90000000000003" y="278.932"/>
      <point x="409.756" y="291.752"/>
      <point x="458.636" y="296.5879999999999" type="curve"/>
      <point x="459.14400000000006" y="303.092"/>
      <point x="459.81600000000003" y="315.54799999999994"/>
      <point x="459.81600000000003" y="322.12" type="curve" smooth="yes"/>
      <point x="459.81600000000003" y="476.868"/>
      <point x="397.704" y="541.8"/>
      <point x="274.96000000000004" y="541.8" type="curve" smooth="yes"/>
      <point x="147.93600000000004" y="541.8"/>
      <point x="44.3" y="471.852"/>
      <point x="44.3" y="250.752" type="curve" smooth="yes"/>
      <point x="44.3" y="65.42399999999999"/>
      <point x="122.492" y="-10.0"/>
    </contour>
    <contour>
      <point x="85.56" y="308.748" type="curve"/>
      <point x="101.47999999999999" y="469.9"/>
      <point x="191.88799999999998" y="510.36400000000003"/>
      <point x="273.34000000000003" y="510.36400000000003" type="curve" smooth="yes"/>
      <point x="373.64799999999997" y="510.36400000000003"/>
      <point x="420.408" y="456.176"/>
      <point x="420.76800000000003" y="323.504" type="curve"/>
      <point x="389.112" y="319.028"/>
      <point x="245.748" y="308.92799999999994"/>
    </contour>
  </outline>
</glyph>
<glyph name="f" format="2">
  <advance width="339.638"/>
  <unicode hex="0066"/>
  <outline>
    <contour>
      <point x="112.946" y="0.0" type="line"/>
      <point x="151.036" y="0.0" type="line"/>
      <point x="151.036" y="454.232" type="line"/>
      <point x="328.87" y="454.232" type="line"/>
      <point x="328.87" y="486.43" type="line"/>
      <point x="151.09" y="486.43" type="line"/>
      <point x="151.09" y="509.878" type="line" smooth="yes"/>
      <point x="151.09" y="657.752"/>
      <point x="196.67800000000003" y="716.924"/>
      <point x="287.55" y="716.924" type="curve" smooth="yes"/>
      <point x="321.43399999999997" y="716.924"/>
      <point x="353.16200000000003" y="711.614"/>
      <point x="391.976" y="700.228" type="curve"/>
      <point x="398.59000000000003" y="731.412" type="line"/>
      <point x="353.396" y="745.1320000000001"/>
      <point x="319.21599999999995" y="750.364"/>
      <point x="281.144" y="750.364" type="curve" smooth="yes"/>
      <point x="173.036" y="750.364"/>
      <point x="112.946" y="681.1759999999999"/>
      <point x="112.946" y="510.20200000000006" type="curve" smooth="yes"/>
      <point x="112.946" y="486.43" type="line"/>
      <point x="23.160000000000004" y="480.23599999999993" type="line"/>
      <point x="23.160000000000004" y="454.232" type="line"/>
      <point x="112.946" y="454.232" type="line"/>
    </contour>
  </outline>
</glyph>
<glyph name="g" format="2">
  <advance width="516.016"/>
  <unicode hex="0067"/>
  <anchor x="262.112" y="531.8" name="top"/>
  <anchor x="257.356" y="-214.0" name="bottom"/>
  <outline>
    <contour>
      <point x="256.312" y="-220.0" type="curve" smooth="yes"/>
      <point x="412.564" y="-220.0"/>
      <point x="501.132" y="-159.216"/>
      <point x="501.132" y="-58.123999999999995" type="curve" smooth="yes"/>
      <point x="501.132" y="26.479999999999997"/>
      <point x="451.988" y="69.116"/>
      <point x="355.256" y="69.116" type="curve" smooth="yes"/>
      <point x="193.256" y="69.116" type="line" smooth="yes"/>
      <point x="122.444" y="69.116"/>
      <point x="91.75199999999998" y="96.61200000000001"/>
      <point x="91.75199999999998" y="140.06" type="curve" smooth="yes"/>
      <point x="91.75199999999998" y="178.392"/>
      <point x="114.36" y="208.67600000000002"/>
      <point x="153.576" y="231.21999999999997" type="curve"/>
      <point x="129.51199999999997" y="242.904" type="line"/>
      <point x="81.66000000000001" y="214.428"/>
      <point x="58.74400000000001" y="178.27999999999997"/>
      <point x="58.74400000000001" y="132.49599999999998" type="curve" smooth="yes"/>
      <point x="58.74400000000001" y="70.748"/>
      <point x="101.884" y="34.668"/>
      <point x="192.81199999999998" y="34.668" type="curve" smooth="yes"/>
      <point x="348.728" y="34.668" type="line" smooth="yes"/>
      <point x="424.61600000000004" y="34.668"/>
      <point x="463.85200000000003" y="1.7760000000000014"/>
      <point x="463.85200000000003" y="-59.988" type="curve" smooth="yes"/>
      <point x="463.85200000000003" y="-141.50799999999998"/>
      <point x="390.91200000000003" y="-188.25199999999998"/>
      <point x="257.932" y="-188.25199999999998" type="curve" smooth="yes"/>
      <point x="130.036" y="-188.25199999999998"/>
      <point x="63.928" y="-149.28"/>
      <point x="63.928" y="-66.464" type="curve" smooth="yes"/>
      <point x="63.928" y="-17.195999999999998"/>
      <point x="85.732" y="23.304"/>
      <point x="147.972" y="49.028" type="curve"/>
      <point x="118.104" y="58.93999999999999" type="line"/>
      <point x="52.396" y="30.284"/>
      <point x="28.808000000000003" y="-16.455999999999996"/>
      <point x="28.808000000000003" y="-71.292" type="curve" smooth="yes"/>
      <point x="28.808000000000003" y="-172.0"/>
      <point x="106.02" y="-220.0"/>
    </contour>
    <contour>
      <point x="257.652" y="206.74399999999997" type="curve" smooth="yes"/>
      <point x="384.252" y="206.74399999999997"/>
      <point x="445.47600000000006" y="262.004"/>
      <point x="445.47600000000006" y="374.1" type="curve" smooth="yes"/>
      <point x="445.47600000000006" y="486.376"/>
      <point x="384.252" y="541.8"/>
      <point x="257.652" y="541.8" type="curve" smooth="yes"/>
      <point x="131.052" y="541.8"/>
      <point x="69.82799999999999" y="486.376"/>
      <point x="69.82799999999999" y="374.1" type="curve" smooth="yes"/>
      <point x="69.82799999999999" y="262.004"/>
      <point x="131.052" y="206.74399999999997"/>
    </contour>
    <contour>
      <point x="257.652" y="237.084" type="curve" smooth="yes"/>
      <point x="154.752" y="237.084"/>
      <point x="107.64800000000001" y="279.352"/>
      <point x="107.64800000000001" y="374.1" type="curve" smooth="yes"/>
      <point x="107.64800000000001" y="469.7"/>
      <point x="154.752" y="511.64"/>
      <point x="257.652" y="511.64" type="curve" smooth="yes"/>
      <point x="360.552" y="511.64"/>
      <point x="407.656" y="469.7"/>
      <point x="407.656" y="374.1" type="curve" smooth="yes"/>
      <point x="407.656" y="279.352"/>
      <point x="360.552" y="237.084"/>
    </contour>
    <contour>
      <point x="388.208" y="480.86799999999994" type="line"/>
      <point x="404.488" y="514.396"/>
      <point x="430.228" y="529.0040000000001"/>
      <point x="466.724" y="529.0040000000001" type="curve" smooth="yes"/>
      <point x="477.90400000000005" y="529.0040000000001"/>
      <point x="486.132" y="528.4960000000001"/>
      <point x="495.64000000000004" y="526.4800000000001" type="curve"/>
      <point x="499.308" y="559.9799999999999" type="line"/>
      <point x="486.78399999999993" y="562.1759999999999"/>
      <point x="479.00000000000006" y="562.864"/>
      <point x="467.08400000000006" y="562.864" type="curve" smooth="yes"/>
      <point x="419.64400000000006" y="562.864"/>
      <point x="383.94000000000005" y="541.996"/>
      <point x="368.892" y="503.71999999999997" type="curve"/>
    </contour>
  </outline>
</glyph>
<glyph name="h" format="2">
  <advance width="522.296"/>
  <unicode hex="0068"/>
  <anchor x="261.10800000000006" y="395.0" name="center"/>
  <anchor x="261.4680000000001" y="0.0" name="bottom"/>
  <anchor x="263.976" y="740.0" name="top"/>
  <outline>
    <contour>
      <point x="72.03999999999999" y="0.0" type="line"/>
      <point x="110.76" y="0.0" type="line"/>
      <point x="110.76" y="452.64" type="line"/>
      <point x="173.276" y="485.12"/>
      <point x="227.33200000000002" y="507.48400000000004"/>
      <point x="293.784" y="507.48400000000004" type="curve" smooth="yes"/>
      <point x="374.352" y="507.48400000000004"/>
      <point x="411.536" y="464.888"/>
      <point x="411.536" y="393.456" type="curve" smooth="yes"/>
      <point x="411.536" y="0.0" type="line"/>
      <point x="450.25600000000003" y="0.0" type="line"/>
      <point x="450.25600000000003" y="400.11600000000004" type="line" smooth="yes"/>
      <point x="450.25600000000003" y="495.19599999999997"/>
      <point x="397.22400000000005" y="541.8"/>
      <point x="306.58799999999997" y="541.8" type="curve" smooth="yes"/>
      <point x="232.584" y="541.8"/>
      <point x="175.172" y="518.3720000000001"/>
      <point x="110.76" y="485.34" type="curve"/>
      <point x="110.76" y="740.0" type="line"/>
      <point x="72.03999999999999" y="740.0" type="line"/>
    </contour>
  </outline>
</glyph>
<glyph name="i" format="2">
  <advance width="182.70999999999998"/>
  <unicode hex="0069"/>
  <anchor x="110.21600000000001" y="0.0" name="ogonek"/>
  <anchor x="91.38199999999999" y="0.0" name="bottom"/>
  <outline>
    <contour>
      <point x="91.38199999999999" y="667.3159999999999" type="curve" smooth="yes"/>
      <point x="112.98599999999999" y="667.3159999999999"/>
      <point x="116.986" y="671.592"/>
      <point x="116.986" y="692.6859999999999" type="curve" smooth="yes"/>
      <point x="116.986" y="713.888"/>
      <point x="112.87800000000001" y="718.11"/>
      <point x="91.38199999999999" y="718.11" type="curve" smooth="yes"/>
      <point x="69.83200000000001" y="718.11"/>
      <point x="65.724" y="713.888"/>
      <point x="65.724" y="692.6859999999999" type="curve" smooth="yes"/>
      <point x="65.724" y="671.5379999999999"/>
      <point x="70.742" y="667.3159999999999"/>
    </contour>
    <contour>
      <point x="72.13" y="0.0" type="line"/>
      <point x="110.58" y="0.0" type="line"/>
      <point x="110.58" y="531.8" type="line"/>
      <point x="72.13" y="531.8" type="line"/>
    </contour>
  </outline>
</glyph>
<glyph name="j" format="2">
  <advance width="183.9"/>
  <unicode hex="006A"/>
  <outline>
    <contour>
      <point x="112.13399999999999" y="531.8" type="line"/>
      <point x="73.684" y="531.8" type="line"/>
      <point x="73.684" y="16.934" type="line" smooth="yes"/>
      <point x="73.684" y="-76.014"/>
      <point x="52.06000000000001" y="-133.87400000000002"/>
      <point x="10.568000000000001" y="-162.99400000000003" type="curve" smooth="yes"/>
      <point x="3.37" y="-167.908"/>
      <point x="-3.7199999999999975" y="-171.75"/>
      <point x="-11.99" y="-174.574" type="curve"/>
      <point x="-5.254" y="-207.746" type="line"/>
      <point x="6.506000000000001" y="-204.28"/>
      <point x="18.476000000000003" y="-199.25199999999998"/>
      <point x="28.602" y="-193.792" type="curve" smooth="yes"/>
      <point x="84.588" y="-160.85"/>
      <point x="112.13399999999999" y="-93.888"/>
      <point x="112.13399999999999" y="15.818" type="curve" smooth="yes"/>
    </contour>
    <contour>
      <point x="92.208" y="667.3159999999999" type="curve" smooth="yes"/>
      <point x="113.266" y="667.3159999999999"/>
      <point x="117.812" y="671.592"/>
      <point x="117.812" y="692.6859999999999" type="curve" smooth="yes"/>
      <point x="117.812" y="713.888"/>
      <point x="113.158" y="718.11"/>
      <point x="92.208" y="718.11" type="curve" smooth="yes"/>
      <point x="70.658" y="718.11"/>
      <point x="66.55" y="713.888"/>
      <point x="66.55" y="692.6859999999999" type="curve" smooth="yes"/>
      <point x="66.55" y="671.5379999999999"/>
      <point x="71.568" y="667.3159999999999"/>
    </contour>
  </outline>
</glyph>
<glyph name="k" format="2">
  <advance width="476.52"/>
  <unicode hex="006B"/>
  <anchor x="90.86" y="740.0" name="top"/>
  <anchor x="253.04" y="0.0" name="bottom"/>
  <outline>
    <contour>
      <point x="458.12" y="-8.18" type="curve" smooth="yes"/>
      <point x="464.56" y="-8.18"/>
      <point x="471.28000000000003" y="-6.36"/>
      <point x="477.18" y="-5.18" type="curve"/>
      <point x="474.36" y="34.080000000000005" type="line"/>
      <point x="469.18" y="33.26"/>
      <point x="464.17999999999995" y="32.26"/>
      <point x="461.00000000000006" y="32.26" type="curve" smooth="yes"/>
      <point x="432.1" y="32.26"/>
      <point x="400.92" y="53.54"/>
      <point x="293.9" y="165.94" type="curve" smooth="yes"/>
      <point x="109.67999999999999" y="360.28000000000003" type="line"/>
      <point x="109.67999999999999" y="740.0" type="line"/>
      <point x="72.04" y="740.0" type="line"/>
      <point x="72.04" y="0.0" type="line"/>
      <point x="109.67999999999999" y="0.0" type="line"/>
      <point x="109.67999999999999" y="307.7" type="line"/>
      <point x="281.84" y="125.42" type="line" smooth="yes"/>
      <point x="400.16" y="-0.28000000000000025"/>
      <point x="423.14" y="-8.18"/>
    </contour>
    <contour>
      <point x="199.46" y="245.56" type="line"/>
      <point x="280.46000000000004" y="313.36"/>
      <point x="393.02" y="404.78"/>
      <point x="438.68" y="531.8" type="curve"/>
      <point x="402.42" y="540.8" type="line"/>
      <point x="357.84" y="414.3"/>
      <point x="254.42000000000002" y="335.56"/>
      <point x="172.44" y="266.04" type="curve"/>
    </contour>
  </outline>
</glyph>
<glyph name="l" format="2">
  <advance width="232.988"/>
  <unicode hex="006C"/>
  <anchor x="116.94000000000001" y="395.0" name="center"/>
  <anchor x="91.38199999999999" y="740.0" name="top"/>
  <anchor x="194.63" y="740.0" name="topright"/>
  <anchor x="151.56" y="0.0" name="bottom"/>
  <outline>
    <contour>
      <point x="110.58" y="740.0" type="line"/>
      <point x="72.13" y="740.0" type="line"/>
      <point x="72.13" y="121.172" type="line" smooth="yes"/>
      <point x="72.13" y="13.51"/>
      <point x="111.308" y="-10.0"/>
      <point x="168.272" y="-10.0" type="curve" smooth="yes"/>
      <point x="190.804" y="-10.0"/>
      <point x="213.746" y="-5.1"/>
      <point x="232.82200000000003" y="2.31" type="curve"/>
      <point x="227.418" y="35.245999999999995" type="line"/>
      <point x="208.162" y="28.862000000000002"/>
      <point x="190.522" y="25.534"/>
      <point x="174.62599999999998" y="25.534" type="curve" smooth="yes"/>
      <point x="139.068" y="25.534"/>
      <point x="110.58" y="40.796"/>
      <point x="110.58" y="123.134" type="curve" smooth="yes"/>
    </contour>
  </outline>
</glyph>
<glyph name="m" format="2">
  <advance width="797.684"/>
  <unicode hex="006D"/>
  <outline>
    <contour>
      <point x="72.13" y="0.0" type="line"/>
      <point x="110.63399999999999" y="0.0" type="line"/>
      <point x="110.63399999999999" y="452.34799999999996" type="line"/>
      <point x="163.964" y="484.44599999999997"/>
      <point x="212.67200000000003" y="505.754"/>
      <point x="272.40999999999997" y="505.754" type="curve" smooth="yes"/>
      <point x="362.478" y="505.754"/>
      <point x="380.55400000000003" y="441.668"/>
      <point x="380.55400000000003" y="391.726" type="curve" smooth="yes"/>
      <point x="380.55400000000003" y="0.0" type="line"/>
      <point x="419.058" y="0.0" type="line"/>
      <point x="419.058" y="393.38200000000006" type="line" smooth="yes"/>
      <point x="419.058" y="412.522"/>
      <point x="416.692" y="433.20799999999997"/>
      <point x="409.922" y="452.53" type="curve"/>
      <point x="450.47200000000004" y="477.966"/>
      <point x="508.572" y="507.61"/>
      <point x="577.702" y="507.61" type="curve" smooth="yes"/>
      <point x="669.19" y="507.61"/>
      <point x="687.158" y="443.196"/>
      <point x="687.158" y="393.18199999999996" type="curve" smooth="yes"/>
      <point x="687.158" y="0.0" type="line"/>
      <point x="725.662" y="0.0" type="line"/>
      <point x="725.662" y="400.03999999999996" type="line" smooth="yes"/>
      <point x="725.662" y="469.62600000000003"/>
      <point x="694.87" y="541.8"/>
      <point x="591.154" y="541.8" type="curve" smooth="yes"/>
      <point x="506.06999999999994" y="541.8"/>
      <point x="441.908" y="506.96"/>
      <point x="399.744" y="480.14599999999996" type="curve"/>
      <point x="380.78600000000006" y="515.0840000000001"/>
      <point x="345.68" y="539.9799999999999"/>
      <point x="285.466" y="539.9799999999999" type="curve" smooth="yes"/>
      <point x="216.72000000000003" y="539.9799999999999"/>
      <point x="161.918" y="515.9159999999999"/>
      <point x="108.60000000000001" y="484.964" type="curve"/>
      <point x="108.60000000000001" y="531.8" type="line"/>
      <point x="72.13" y="531.8" type="line"/>
    </contour>
  </outline>
</glyph>
<glyph name="n" format="2">
  <advance width="522.188"/>
  <unicode hex="006E"/>
  <anchor x="267.03999999999996" y="531.8" name="top"/>
  <anchor x="268.86" y="0.0" name="bottom"/>
  <outline>
    <contour>
      <point x="72.13" y="0.0" type="line"/>
      <point x="110.63399999999999" y="0.0" type="line"/>
      <point x="110.63399999999999" y="452.712" type="line"/>
      <point x="173.168" y="485.246"/>
      <point x="227.296" y="507.754"/>
      <point x="293.874" y="507.754" type="curve" smooth="yes"/>
      <point x="374.442" y="507.754"/>
      <point x="411.66200000000003" y="465.032"/>
      <point x="411.66200000000003" y="393.546" type="curve" smooth="yes"/>
      <point x="411.66200000000003" y="0.0" type="line"/>
      <point x="450.166" y="0.0" type="line"/>
      <point x="450.166" y="400.404" type="line" smooth="yes"/>
      <point x="450.166" y="494.56600000000003"/>
      <point x="397.60200000000003" y="541.8"/>
      <point x="306.498" y="541.8" type="curve" smooth="yes"/>
      <point x="231.936" y="541.8"/>
      <point x="173.854" y="518.246"/>
      <point x="108.60000000000001" y="484.78200000000004" type="curve"/>
      <point x="108.60000000000001" y="531.8" type="line"/>
      <point x="72.13" y="531.8" type="line"/>
    </contour>
  </outline>
</glyph>
<glyph name="o" format="2">
  <advance width="525.044"/>
  <unicode hex="006F"/>
  <anchor x="315.498" y="0.612" name="ogonek"/>
  <anchor x="262.522" y="531.8" name="top"/>
  <anchor x="358.424" y="525.4399999999999" name="topright"/>
  <anchor x="262.522" y="0.0" name="bottom"/>
  <outline>
    <contour>
      <point x="44.39" y="266.754" type="curve" smooth="yes"/>
      <point x="44.39" y="64.194"/>
      <point x="108.566" y="-10.0"/>
      <point x="262.522" y="-10.0" type="curve" smooth="yes"/>
      <point x="416.478" y="-10.0"/>
      <point x="480.65400000000005" y="64.194"/>
      <point x="480.65400000000005" y="266.754" type="curve" smooth="yes"/>
      <point x="480.65400000000005" y="464.114"/>
      <point x="423.27799999999996" y="541.8"/>
      <point x="262.522" y="541.8" type="curve" smooth="yes"/>
      <point x="101.694" y="541.8"/>
      <point x="44.39" y="464.114"/>
    </contour>
    <contour>
      <point x="83.47" y="266.754" type="curve" smooth="yes"/>
      <point x="83.47" y="442.642"/>
      <point x="129.03" y="509.14"/>
      <point x="262.522" y="509.14" type="curve" smooth="yes"/>
      <point x="395.96000000000004" y="509.14"/>
      <point x="441.502" y="442.642"/>
      <point x="441.502" y="266.754" type="curve" smooth="yes"/>
      <point x="441.502" y="86.93799999999999"/>
      <point x="389.59200000000004" y="22.714000000000002"/>
      <point x="262.522" y="22.714000000000002" type="curve" smooth="yes"/>
      <point x="135.398" y="22.714000000000002"/>
      <point x="83.47" y="86.93799999999999"/>
    </contour>
  </outline>
</glyph>
<glyph name="p" format="2">
  <advance width="509.08799999999997"/>
  <unicode hex="0070"/>
  <outline>
    <contour>
      <point x="72.13" y="-210.0" type="line"/>
      <point x="110.66999999999999" y="-210.0" type="line"/>
      <point x="110.66999999999999" y="4.574" type="line"/>
      <point x="158.696" y="-5.4879999999999995"/>
      <point x="198.23800000000003" y="-10.0"/>
      <point x="234.672" y="-10.0" type="curve" smooth="yes"/>
      <point x="391.732" y="-10.0"/>
      <point x="464.73400000000004" y="77.298"/>
      <point x="464.73400000000004" y="279.924" type="curve" smooth="yes"/>
      <point x="464.73400000000004" y="447.056"/>
      <point x="400.24600000000004" y="541.8"/>
      <point x="289.058" y="541.8" type="curve" smooth="yes"/>
      <point x="229.78400000000002" y="541.8"/>
      <point x="172.726" y="522.0139999999999"/>
      <point x="109.248" y="478.678" type="curve"/>
      <point x="108.60000000000001" y="537.26" type="line"/>
      <point x="72.13" y="537.26" type="line"/>
    </contour>
    <contour>
      <point x="230.592" y="20.814" type="curve" smooth="yes"/>
      <point x="197.668" y="20.814"/>
      <point x="160.14" y="25.47"/>
      <point x="110.63399999999999" y="36.23800000000001" type="curve"/>
      <point x="110.63399999999999" y="446.538" type="line"/>
      <point x="176.24" y="491.15599999999995"/>
      <point x="222.446" y="508.096"/>
      <point x="278.06600000000003" y="508.096" type="curve" smooth="yes"/>
      <point x="370.652" y="508.096"/>
      <point x="425.492" y="425.746"/>
      <point x="425.492" y="277.85400000000004" type="curve" smooth="yes"/>
      <point x="425.492" y="93.044"/>
      <point x="365.014" y="20.814"/>
    </contour>
  </outline>
</glyph>
<glyph name="q" format="2">
  <advance width="509.142"/>
  <unicode hex="0071"/>
  <outline>
    <contour>
      <point x="437.012" y="520.88" type="line"/>
      <point x="371.856" y="535.586"/>
      <point x="323.14" y="541.8"/>
      <point x="276.846" y="541.8" type="curve" smooth="yes"/>
      <point x="117.788" y="541.8"/>
      <point x="44.354" y="455.474"/>
      <point x="44.354" y="252.956" type="curve" smooth="yes"/>
      <point x="44.354" y="85.02000000000001"/>
      <point x="109.226" y="-10.0"/>
      <point x="220.462" y="-10.0" type="curve" smooth="yes"/>
      <point x="279.21400000000006" y="-10.0"/>
      <point x="336.07399999999996" y="9.732000000000001"/>
      <point x="398.56199999999995" y="52.456" type="curve"/>
      <point x="398.56199999999995" y="-210.0" type="line"/>
      <point x="437.012" y="-210.0" type="line"/>
    </contour>
    <contour>
      <point x="398.508" y="495.28600000000006" type="curve"/>
      <point x="398.508" y="85.53200000000001" type="line"/>
      <point x="332.90200000000004" y="40.86"/>
      <point x="286.696" y="23.812"/>
      <point x="231.02200000000002" y="23.812" type="curve" smooth="yes"/>
      <point x="139.036" y="23.812"/>
      <point x="83.64999999999999" y="107.146"/>
      <point x="83.64999999999999" y="252.974" type="curve" smooth="yes"/>
      <point x="83.64999999999999" y="438.756"/>
      <point x="144.128" y="511.09400000000005"/>
      <point x="278.604" y="511.09400000000005" type="curve" smooth="yes"/>
      <point x="310.90999999999997" y="511.09400000000005"/>
      <point x="349.002" y="506.492"/>
    </contour>
  </outline>
</glyph>
<glyph name="r" format="2">
  <advance width="365.44800000000004"/>
  <unicode hex="0072"/>
  <anchor x="210.43800000000002" y="531.8" name="top"/>
  <anchor x="91.328" y="0.0" name="bottom"/>
  <outline>
    <contour>
      <point x="108.546" y="531.8" type="line"/>
      <point x="72.13" y="531.8" type="line"/>
      <point x="72.13" y="0.0" type="line"/>
      <point x="110.526" y="0.0" type="line"/>
      <point x="110.526" y="424.798" type="line"/>
      <point x="170.58999999999997" y="483.77"/>
      <point x="225.948" y="506.116"/>
      <point x="280.032" y="506.116" type="curve" smooth="yes"/>
      <point x="303.928" y="506.116"/>
      <point x="331.86" y="501.896"/>
      <point x="355.404" y="495.532" type="curve"/>
      <point x="362.70400000000006" y="530.472" type="line"/>
      <point x="341.41800000000006" y="537.198"/>
      <point x="311.846" y="541.8"/>
      <point x="281.85200000000003" y="541.8" type="curve" smooth="yes"/>
      <point x="222.522" y="541.8"/>
      <point x="167.514" y="518.068"/>
      <point x="108.546" y="463.884" type="curve"/>
    </contour>
  </outline>
</glyph>
<glyph name="s" format="2">
  <advance width="433.04"/>
  <unicode hex="0073"/>
  <anchor x="214.78" y="531.8" name="top"/>
  <anchor x="215.77999999999997" y="0.0" name="bottom"/>
  <outline>
    <contour>
      <point x="24.279999999999998" y="21.819999999999997" type="line"/>
      <point x="68.16" y="1.64"/>
      <point x="140.54" y="-10.0"/>
      <point x="206.44" y="-10.0" type="curve" smooth="yes"/>
      <point x="327.98" y="-10.0"/>
      <point x="403.84" y="37.0"/>
      <point x="403.84" y="130.12" type="curve" smooth="yes"/>
      <point x="403.84" y="222.64000000000001"/>
      <point x="340.3" y="256.64"/>
      <point x="234.1" y="286.56" type="curve" smooth="yes"/>
      <point x="152.54" y="309.66"/>
      <point x="82.3" y="336.06"/>
      <point x="82.3" y="407.3" type="curve" smooth="yes"/>
      <point x="82.3" y="467.62"/>
      <point x="133.79999999999998" y="508.12"/>
      <point x="232.51999999999998" y="508.12" type="curve" smooth="yes"/>
      <point x="282.86" y="508.12"/>
      <point x="331.59999999999997" y="497.3"/>
      <point x="365.4" y="486.76" type="curve"/>
      <point x="374.02" y="518.26" type="line"/>
      <point x="339.21999999999997" y="530.8000000000001"/>
      <point x="285.67999999999995" y="541.8"/>
      <point x="232.52" y="541.8" type="curve" smooth="yes"/>
      <point x="107.46000000000001" y="541.8"/>
      <point x="44.48" y="487.08"/>
      <point x="44.48" y="405.32" type="curve" smooth="yes"/>
      <point x="44.48" y="316.58"/>
      <point x="118.26" y="281.52000000000004"/>
      <point x="210.44" y="255.42" type="curve" smooth="yes"/>
      <point x="314.55999999999995" y="226.04"/>
      <point x="365.48" y="198.38"/>
      <point x="365.48" y="127.96000000000001" type="curve" smooth="yes"/>
      <point x="365.48" y="60.54"/>
      <point x="307.6" y="23.14"/>
      <point x="206.8" y="23.14" type="curve" smooth="yes"/>
      <point x="146.52" y="23.14"/>
      <point x="75.62" y="35.14"/>
      <point x="33.72" y="52.96" type="curve"/>
    </contour>
  </outline>
</glyph>
<glyph name="t" format="2">
  <advance width="373.778"/>
  <unicode hex="0074"/>
  <anchor x="186.414" y="275.0" name="center"/>
  <anchor x="131.97199999999998" y="664.406" name="top"/>
  <anchor x="297.006" y="763.17" name="topright"/>
  <anchor x="224.696" y="0.0" name="bottom"/>
  <outline>
    <contour>
      <point x="243.264" y="-10.0" type="curve" smooth="yes"/>
      <point x="277.22400000000005" y="-10.0"/>
      <point x="319.97399999999993" y="-3.546"/>
      <point x="366.068" y="11.248000000000001" type="curve"/>
      <point x="359.072" y="43.309999999999995" type="line"/>
      <point x="324.702" y="31.740000000000002"/>
      <point x="289.34" y="24.7"/>
      <point x="252.064" y="24.7" type="curve" smooth="yes"/>
      <point x="178.324" y="24.7"/>
      <point x="147.67000000000002" y="61.071999999999996"/>
      <point x="147.67000000000002" y="143.29600000000002" type="curve" smooth="yes"/>
      <point x="147.67000000000002" y="499.60200000000003" type="line"/>
      <point x="350.56800000000004" y="499.60200000000003" type="line"/>
      <point x="350.56800000000004" y="531.8" type="line"/>
      <point x="147.67000000000002" y="531.8" type="line"/>
      <point x="147.67000000000002" y="664.406" type="line"/>
      <point x="115.728" y="664.406" type="line"/>
      <point x="109.22" y="531.8" type="line"/>
      <point x="9.15" y="525.66" type="line"/>
      <point x="9.15" y="499.65600000000006" type="line"/>
      <point x="109.22" y="499.65600000000006" type="line"/>
      <point x="109.22" y="141.60399999999998" type="line" smooth="yes"/>
      <point x="109.22" y="43.04600000000001"/>
      <point x="149.03" y="-10.0"/>
    </contour>
  </outline>
</glyph>
<glyph name="u" format="2">
  <advance width="519.9119999999999"/>
  <unicode hex="0075"/>
  <anchor x="514.7080000000001" y="1.2319999999999998" name="ogonek"/>
  <anchor x="253.382" y="531.8" name="top"/>
  <anchor x="434.35200000000003" y="531.8" name="topright"/>
  <anchor x="260.292" y="0.0" name="bottom"/>
  <outline>
    <contour>
      <point x="210.352" y="-10.0" type="curve" smooth="yes"/>
      <point x="281.8860000000001" y="-10.0"/>
      <point x="337.744" y="13.932000000000002"/>
      <point x="400.698" y="48.168" type="curve"/>
      <point x="407.97" y="8.234"/>
      <point x="436.21999999999997" y="-10.0"/>
      <point x="466.664" y="-10.0" type="curve" smooth="yes"/>
      <point x="482.408" y="-10.0"/>
      <point x="498.28400000000005" y="-6.411999999999999"/>
      <point x="514.7080000000001" y="1.2319999999999998" type="curve"/>
      <point x="507.244" y="30.792" type="line"/>
      <point x="497.29400000000004" y="26.044"/>
      <point x="487.072" y="23.77"/>
      <point x="477.25" y="23.77" type="curve" smooth="yes"/>
      <point x="453.182" y="23.77"/>
      <point x="434.35200000000003" y="39.27"/>
      <point x="434.35200000000003" y="87.934" type="curve" smooth="yes"/>
      <point x="434.35200000000003" y="531.8" type="line"/>
      <point x="395.90200000000004" y="531.8" type="line"/>
      <point x="395.90200000000004" y="78.50800000000001" type="line"/>
      <point x="337.556" y="46.54"/>
      <point x="285.226" y="23.902"/>
      <point x="222.598" y="23.902" type="curve" smooth="yes"/>
      <point x="147.782" y="23.902"/>
      <point x="110.526" y="64.80400000000002"/>
      <point x="110.526" y="130.47" type="curve" smooth="yes"/>
      <point x="110.526" y="531.8" type="line"/>
      <point x="72.02199999999999" y="531.8" type="line"/>
      <point x="72.02199999999999" y="125.466" type="line" smooth="yes"/>
      <point x="72.02199999999999" y="36.1"/>
      <point x="124.42200000000001" y="-10.0"/>
    </contour>
  </outline>
</glyph>
<glyph name="v" format="2">
  <advance width="462.63800000000003"/>
  <unicode hex="0076"/>
  <outline>
    <contour>
      <point x="212.568" y="0.0" type="line"/>
      <point x="249.436" y="0.0" type="line"/>
      <point x="449.90200000000004" y="528.524" type="line"/>
      <point x="411.738" y="535.076" type="line"/>
      <point x="232.08599999999998" y="50.684" type="line"/>
      <point x="51.08" y="535.076" type="line"/>
      <point x="12.646" y="528.524" type="line"/>
    </contour>
  </outline>
</glyph>
<glyph name="w" format="2">
  <advance width="687.6320000000001"/>
  <unicode hex="0077"/>
  <anchor x="343.334" y="531.8" name="top"/>
  <anchor x="343.334" y="0.0" name="bottom"/>
  <outline>
    <contour>
      <point x="165.924" y="0.0" type="line"/>
      <point x="204.65800000000002" y="0.0" type="line"/>
      <point x="343.046" y="478.296" type="line"/>
      <point x="482.848" y="0.0" type="line"/>
      <point x="520.952" y="0.0" type="line"/>
      <point x="675.1179999999999" y="528.142" type="line"/>
      <point x="637.8840000000001" y="534.566" type="line"/>
      <point x="502.342" y="53.59" type="line"/>
      <point x="363.216" y="531.8" type="line"/>
      <point x="323.416" y="531.8" type="line"/>
      <point x="187.10999999999999" y="52.698" type="line"/>
      <point x="50.16199999999999" y="534.566" type="line"/>
      <point x="11.514000000000001" y="528.142" type="line"/>
    </contour>
  </outline>
</glyph>
<glyph name="x" format="2">
  <advance width="485.58"/>
  <unicode hex="0078"/>
  <outline>
    <contour>
      <point x="12.74" y="8.326672684688674e-17" type="line"/>
      <point x="51.78" y="-8.1" type="line"/>
      <point x="242.38" y="244.76000000000002" type="line"/>
      <point x="433.79999999999995" y="-8.1" type="line"/>
      <point x="473.65999999999997" y="8.326672684688674e-17" type="line"/>
      <point x="265.82000000000005" y="274.17999999999995" type="line"/>
      <point x="459.38" y="528.1600000000001" type="line"/>
      <point x="421.32000000000005" y="536.4399999999999" type="line"/>
      <point x="244.28" y="301.24" type="line"/>
      <point x="67.42" y="536.44" type="line"/>
      <point x="27.560000000000002" y="527.34" type="line"/>
      <point x="220.3" y="272.0" type="line"/>
    </contour>
  </outline>
</glyph>
<glyph name="y" format="2">
  <advance width="463.398"/>
  <unicode hex="0079"/>
  <anchor x="229.10600000000002" y="531.8" name="top"/>
  <anchor x="362.10999999999996" y="0.0" name="bottom"/>
  <outline>
    <contour>
      <point x="164.43200000000002" y="-207.12400000000002" type="line"/>
      <point x="203.024" y="-213.548" type="line"/>
      <point x="449.714" y="530.38" type="line"/>
      <point x="411.21799999999996" y="536.204" type="line"/>
      <point x="249.30800000000002" y="44.416" type="line"/>
      <point x="52.507999999999996" y="536.532" type="line"/>
      <point x="13.192" y="529.98" type="line"/>
      <point x="226.474" y="0.0" type="line"/>
      <point x="232.25200000000004" y="0.0" type="line"/>
    </contour>
  </outline>
</glyph>
<glyph name="z" format="2">
  <advance width="456.508"/>
  <unicode hex="007A"/>
  <anchor x="233.156" y="531.8" name="top"/>
  <outline>
    <contour>
      <point x="28.132" y="0.0" type="line"/>
      <point x="434.836" y="0.0" type="line"/>
      <point x="434.836" y="33.368" type="line"/>
      <point x="77.46799999999999" y="33.368" type="line"/>
      <point x="412.11199999999997" y="501.74" type="line"/>
      <point x="412.11199999999997" y="531.8" type="line"/>
      <point x="49.104" y="531.8" type="line"/>
      <point x="49.104" y="498.612" type="line"/>
      <point x="363.988" y="498.612" type="line"/>
      <point x="28.132" y="30.24" type="line"/>
    </contour>
  </outline>
</glyph>
<glyph name="braceleft" format="2">
  <advance width="306.454"/>
  <unicode hex="007B"/>
  <outline>
    <contour>
      <point x="114.146" y="-67.998" type="curve" smooth="yes"/>
      <point x="114.146" y="-145.036"/>
      <point x="145.294" y="-210.054"/>
      <point x="232.49" y="-210.054" type="curve" smooth="yes"/>
      <point x="268.436" y="-210.054" type="line"/>
      <point x="268.436" y="-178.174" type="line"/>
      <point x="237.89" y="-178.174" type="line" smooth="yes"/>
      <point x="169.67" y="-178.174"/>
      <point x="149.518" y="-124.776"/>
      <point x="149.518" y="-65.56800000000001" type="curve" smooth="yes"/>
      <point x="149.518" y="11.647999999999998"/>
      <point x="182.28400000000002" y="77.124"/>
      <point x="182.28400000000002" y="157.516" type="curve" smooth="yes"/>
      <point x="182.28400000000002" y="195.142"/>
      <point x="172.65200000000002" y="249.222"/>
      <point x="132.312" y="265.0" type="curve"/>
      <point x="172.288" y="284.874"/>
      <point x="182.28400000000002" y="334.076"/>
      <point x="182.28400000000002" y="371.702" type="curve" smooth="yes"/>
      <point x="182.28400000000002" y="449.72800000000007"/>
      <point x="149.518" y="513.384"/>
      <point x="149.518" y="594.7860000000001" type="curve" smooth="yes"/>
      <point x="149.518" y="653.994"/>
      <point x="169.67" y="708.12"/>
      <point x="237.89" y="708.12" type="curve" smooth="yes"/>
      <point x="268.436" y="708.12" type="line"/>
      <point x="268.436" y="740.0" type="line"/>
      <point x="232.49" y="740.0" type="line" smooth="yes"/>
      <point x="145.294" y="740.0"/>
      <point x="114.146" y="674.2539999999999"/>
      <point x="114.146" y="597.216" type="curve" smooth="yes"/>
      <point x="114.146" y="507.84999999999997"/>
      <point x="147.54200000000003" y="446.924"/>
      <point x="147.54200000000003" y="371.072" type="curve" smooth="yes"/>
      <point x="147.54200000000003" y="331.60999999999996"/>
      <point x="136.28400000000002" y="281.12"/>
      <point x="101.006" y="281.12" type="curve" smooth="yes"/>
      <point x="80.38399999999999" y="281.12" type="line"/>
      <point x="80.38399999999999" y="248.826" type="line"/>
      <point x="101.006" y="248.826" type="line" smooth="yes"/>
      <point x="136.28400000000002" y="248.826"/>
      <point x="147.54200000000003" y="198.154"/>
      <point x="147.54200000000003" y="158.14600000000002" type="curve" smooth="yes"/>
      <point x="147.54200000000003" y="81.384"/>
      <point x="114.146" y="16.817999999999998"/>
    </contour>
  </outline>
</glyph>
<glyph name="bar" format="2">
  <advance width="191.764"/>
  <unicode hex="007C"/>
  <outline>
    <contour>
      <point x="113.172" y="790.0540000000001" type="line"/>
      <point x="78.592" y="790.0540000000001" type="line"/>
      <point x="78.592" y="-210.0" type="line"/>
      <point x="113.172" y="-210.0" type="line"/>
    </contour>
  </outline>
</glyph>
<glyph name="braceright" format="2">
  <advance width="306.454"/>
  <unicode hex="007D"/>
  <outline>
    <contour>
      <point x="38.017999999999994" y="-178.174" type="line"/>
      <point x="38.017999999999994" y="-210.054" type="line"/>
      <point x="74.51" y="-210.054" type="line" smooth="yes"/>
      <point x="161.70600000000002" y="-210.054"/>
      <point x="192.854" y="-145.036"/>
      <point x="192.854" y="-67.998" type="curve" smooth="yes"/>
      <point x="192.854" y="16.817999999999998"/>
      <point x="159.458" y="81.384"/>
      <point x="159.458" y="158.14600000000002" type="curve" smooth="yes"/>
      <point x="159.458" y="198.154"/>
      <point x="170.716" y="248.826"/>
      <point x="205.994" y="248.826" type="curve" smooth="yes"/>
      <point x="226.06999999999996" y="248.826" type="line"/>
      <point x="226.06999999999996" y="281.12" type="line"/>
      <point x="205.994" y="281.12" type="line" smooth="yes"/>
      <point x="170.17000000000002" y="281.12"/>
      <point x="159.458" y="331.60999999999996"/>
      <point x="159.458" y="371.072" type="curve" smooth="yes"/>
      <point x="159.458" y="446.924"/>
      <point x="192.854" y="507.84999999999997"/>
      <point x="192.854" y="597.216" type="curve" smooth="yes"/>
      <point x="192.854" y="674.2539999999999"/>
      <point x="161.70600000000002" y="740.0"/>
      <point x="74.51" y="740.0" type="curve" smooth="yes"/>
      <point x="38.017999999999994" y="740.0" type="line"/>
      <point x="38.017999999999994" y="708.12" type="line"/>
      <point x="68.19200000000001" y="708.12" type="line" smooth="yes"/>
      <point x="135.866" y="708.12"/>
      <point x="156.564" y="653.994"/>
      <point x="156.564" y="594.7860000000001" type="curve" smooth="yes"/>
      <point x="156.564" y="513.384"/>
      <point x="123.798" y="449.72800000000007"/>
      <point x="123.798" y="371.702" type="curve" smooth="yes"/>
      <point x="123.798" y="334.076"/>
      <point x="133.248" y="284.874"/>
      <point x="173.77" y="265.0" type="curve"/>
      <point x="132.88400000000001" y="249.222"/>
      <point x="123.798" y="195.142"/>
      <point x="123.798" y="157.516" type="curve" smooth="yes"/>
      <point x="123.798" y="77.124"/>
      <point x="156.564" y="11.647999999999998"/>
      <point x="156.564" y="-65.56800000000001" type="curve" smooth="yes"/>
      <point x="156.564" y="-124.776"/>
      <point x="135.866" y="-178.174"/>
      <point x="68.19200000000001" y="-178.174" type="curve" smooth="yes"/>
    </contour>
  </outline>
</glyph>
<glyph name="asciitilde" format="2">
  <advance width="456.692"/>
  <unicode hex="007E"/>
  <outline>
    <contour>
      <point x="394.94000000000005" y="256.264" type="curve"/>
      <point x="394.94000000000005" y="294.49" type="line"/>
      <point x="373.638" y="270.674"/>
      <point x="353.324" y="253.94"/>
      <point x="322.98800000000006" y="253.94" type="curve" smooth="yes"/>
      <point x="250.914" y="253.94"/>
      <point x="209.86800000000002" y="363.61400000000003"/>
      <point x="133.93400000000003" y="363.61400000000003" type="curve" smooth="yes"/>
      <point x="102.874" y="363.61400000000003"/>
      <point x="80.362" y="348.08200000000005"/>
      <point x="62.333999999999996" y="327.978" type="curve"/>
      <point x="62.333999999999996" y="289.388" type="line"/>
      <point x="81.334" y="311.342"/>
      <point x="102.39399999999999" y="329.43"/>
      <point x="133.71999999999997" y="329.43" type="curve" smooth="yes"/>
      <point x="201.13199999999998" y="329.43"/>
      <point x="243.156" y="219.72"/>
      <point x="323.206" y="219.72" type="curve" smooth="yes"/>
      <point x="355.4" y="219.72"/>
      <point x="375.638" y="234.594"/>
    </contour>
  </outline>
</glyph>
<glyph name="exclamdown" format="2">
  <advance width="209.38800000000003"/>
  <unicode hex="00A1"/>
  <outline>
    <contour>
      <point x="122.59600000000002" y="268.214" type="line"/>
      <point x="87.15200000000002" y="268.214" type="line"/>
      <point x="85.568" y="-208.236" type="line"/>
      <point x="124.018" y="-208.236" type="line"/>
    </contour>
    <contour>
      <point x="129.41600000000003" y="506.808" type="curve" smooth="yes"/>
      <point x="129.41600000000003" y="528.28"/>
      <point x="125.92" y="532.7"/>
      <point x="104.69400000000002" y="532.7" type="curve" smooth="yes"/>
      <point x="84.37799999999999" y="532.7"/>
      <point x="79.97200000000001" y="528.28"/>
      <point x="79.97200000000001" y="506.808" type="curve" smooth="yes"/>
      <point x="79.97200000000001" y="485.246"/>
      <point x="83.46799999999999" y="480.826"/>
      <point x="104.69400000000002" y="480.826" type="curve" smooth="yes"/>
      <point x="125.92" y="480.826"/>
      <point x="129.41600000000003" y="485.246"/>
    </contour>
  </outline>
</glyph>
<glyph name="cent" format="2">
  <advance width="573.3560000000001"/>
  <unicode hex="00A2"/>
  <outline>
    <contour>
      <point x="307.402" y="-10.054" type="curve" smooth="yes"/>
      <point x="361.54200000000003" y="-10.054"/>
      <point x="426.454" y="-2.53"/>
      <point x="472.1820000000001" y="9.590000000000002" type="curve"/>
      <point x="465.50000000000006" y="42.1" type="line"/>
      <point x="422.0" y="31.682"/>
      <point x="361.832" y="24.933999999999997"/>
      <point x="313.606" y="24.933999999999997" type="curve" smooth="yes"/>
      <point x="200.338" y="24.933999999999997"/>
      <point x="140.278" y="100.8"/>
      <point x="140.278" y="254.52800000000002" type="curve" smooth="yes"/>
      <point x="140.278" y="422.884"/>
      <point x="208.498" y="506.632"/>
      <point x="326.1" y="506.632" type="curve" smooth="yes"/>
      <point x="373.266" y="506.632"/>
      <point x="407.42" y="501.76"/>
      <point x="456.47999999999996" y="489.156" type="curve"/>
      <point x="463.384" y="522.512" type="line"/>
      <point x="416.772" y="535.786"/>
      <point x="373.372" y="541.908"/>
      <point x="322.878" y="541.908" type="curve" smooth="yes"/>
      <point x="177.364" y="541.908"/>
      <point x="101.594" y="439.18"/>
      <point x="101.594" y="253.98800000000003" type="curve" smooth="yes"/>
      <point x="101.594" y="78.048"/>
      <point x="170.55200000000002" y="-10.054"/>
    </contour>
    <contour>
      <point x="285.33200000000005" y="-105.054" type="line"/>
      <point x="319.462" y="-105.054" type="line"/>
      <point x="319.462" y="-3.1420000000000003" type="line"/>
      <point x="285.33200000000005" y="-1.1660000000000001" type="line"/>
    </contour>
    <contour>
      <point x="285.33200000000005" y="531.768" type="line"/>
      <point x="319.462" y="535.504" type="line"/>
      <point x="319.462" y="636.746" type="line"/>
      <point x="285.33200000000005" y="636.746" type="line"/>
    </contour>
  </outline>
</glyph>
<glyph name="sterling" format="2">
  <advance width="573.5720000000001"/>
  <unicode hex="00A3"/>
  <outline>
    <contour>
      <point x="73.88400000000001" y="0.0" type="line"/>
      <point x="526.348" y="0.0" type="line"/>
      <point x="526.348" y="34.22" type="line"/>
      <point x="119.77999999999999" y="34.22" type="line"/>
      <point x="189.49200000000002" y="110.64"/>
      <point x="222.95200000000003" y="161.036"/>
      <point x="222.95200000000003" y="240.288" type="curve" smooth="yes"/>
      <point x="222.95200000000003" y="343.62399999999997"/>
      <point x="148.63600000000002" y="398.53999999999996"/>
      <point x="148.63600000000002" y="507.568" type="curve" smooth="yes"/>
      <point x="148.63600000000002" y="622.76"/>
      <point x="222.54399999999998" y="674.16"/>
      <point x="331.21200000000005" y="674.16" type="curve" smooth="yes"/>
      <point x="377.60400000000004" y="674.16"/>
      <point x="448.74" y="665.012"/>
      <point x="496.676" y="652.848" type="curve"/>
      <point x="504.18" y="684.5600000000001" type="line"/>
      <point x="462.692" y="698.9840000000002"/>
      <point x="380.524" y="710.0"/>
      <point x="327.97200000000004" y="710.0" type="curve" smooth="yes"/>
      <point x="186.996" y="710.0"/>
      <point x="109.196" y="632.5240000000001"/>
      <point x="109.196" y="513.5400000000001" type="curve" smooth="yes"/>
      <point x="109.196" y="389.50399999999996"/>
      <point x="185.132" y="340.44"/>
      <point x="185.132" y="238.552" type="curve" smooth="yes"/>
      <point x="185.132" y="163.596"/>
      <point x="153.82" y="120.612"/>
      <point x="73.88400000000001" y="30.8" type="curve"/>
    </contour>
    <contour>
      <point x="61.440000000000005" y="355.56000000000006" type="line"/>
      <point x="428.44000000000005" y="355.56000000000006" type="line"/>
      <point x="428.44000000000005" y="387.62" type="line"/>
      <point x="61.440000000000005" y="387.62" type="line"/>
    </contour>
  </outline>
</glyph>
<glyph name="currency" format="2">
  <advance width="437.21"/>
  <unicode hex="00A4"/>
  <outline>
    <contour>
      <point x="39.838" y="446.392" type="line"/>
      <point x="111.642" y="373.588" type="line"/>
      <point x="93.992" y="351.344"/>
      <point x="82.874" y="322.694"/>
      <point x="82.874" y="290.332" type="curve" smooth="yes"/>
      <point x="82.874" y="257.88"/>
      <point x="93.992" y="229.086"/>
      <point x="112.642" y="206.788" type="curve"/>
      <point x="39.838" y="133.984" type="line"/>
      <point x="62.856" y="110.96600000000001" type="line"/>
      <point x="136.758" y="184.83200000000002" type="line"/>
      <point x="158.642" y="166.452"/>
      <point x="187.04000000000002" y="156.442"/>
      <point x="218.20399999999998" y="156.442" type="curve" smooth="yes"/>
      <point x="249.332" y="156.442"/>
      <point x="278.514" y="166.488"/>
      <point x="300.416" y="184.81400000000002" type="curve"/>
      <point x="374.354" y="110.96600000000001" type="line"/>
      <point x="397.372" y="133.984" type="line"/>
      <point x="324.60400000000004" y="206.698" type="line"/>
      <point x="343.236" y="229.06799999999998"/>
      <point x="354.40799999999996" y="257.84400000000005"/>
      <point x="354.40799999999996" y="290.332" type="curve" smooth="yes"/>
      <point x="354.40799999999996" y="322.676"/>
      <point x="343.272" y="351.362"/>
      <point x="324.658" y="373.678" type="curve"/>
      <point x="397.372" y="446.392" type="line"/>
      <point x="374.354" y="469.40999999999997" type="line"/>
      <point x="300.632" y="395.688" type="line"/>
      <point x="278.676" y="414.05"/>
      <point x="250.296" y="425.06"/>
      <point x="218.20399999999998" y="425.06" type="curve" smooth="yes"/>
      <point x="186.02200000000002" y="425.06"/>
      <point x="157.624" y="413.996"/>
      <point x="135.632" y="395.67" type="curve"/>
      <point x="62.856" y="469.40999999999997" type="line"/>
    </contour>
    <contour>
      <point x="218.16799999999998" y="185.532" type="curve" smooth="yes"/>
      <point x="160.002" y="185.532"/>
      <point x="113.42200000000001" y="232.076"/>
      <point x="113.42200000000001" y="290.27799999999996" type="curve" smooth="yes"/>
      <point x="113.42200000000001" y="349.174"/>
      <point x="159.966" y="395.916"/>
      <point x="218.16799999999998" y="395.916" type="curve" smooth="yes"/>
      <point x="277.28" y="395.916"/>
      <point x="323.86" y="349.174"/>
      <point x="323.86" y="290.27799999999996" type="curve" smooth="yes"/>
      <point x="323.86" y="232.076"/>
      <point x="277.24399999999997" y="185.532"/>
    </contour>
  </outline>
</glyph>
<glyph name="yen" format="2">
  <advance width="573.9"/>
  <unicode hex="00A5"/>
  <outline>
    <contour>
      <point x="85.64" y="357.36" type="line"/>
      <point x="271.78000000000003" y="357.36" type="line"/>
      <point x="271.78000000000003" y="223.1" type="line"/>
      <point x="85.64" y="223.1" type="line"/>
      <point x="85.64" y="194.1" type="line"/>
      <point x="271.78000000000003" y="194.1" type="line"/>
      <point x="271.78000000000003" y="0.0" type="line"/>
      <point x="311.4" y="0.0" type="line"/>
      <point x="311.4" y="194.1" type="line"/>
      <point x="497.9" y="194.1" type="line"/>
      <point x="497.9" y="223.1" type="line"/>
      <point x="311.4" y="223.1" type="line"/>
      <point x="311.4" y="357.36" type="line"/>
      <point x="497.9" y="357.36" type="line"/>
      <point x="497.9" y="386.36" type="line"/>
      <point x="311.4" y="386.36" type="line"/>
      <point x="516.24" y="695.54" type="line"/>
      <point x="478.82" y="704.6400000000001" type="line"/>
      <point x="291.5" y="416.8" type="line"/>
      <point x="95.25999999999999" y="704.6400000000001" type="line"/>
      <point x="57.84" y="695.54" type="line"/>
      <point x="271.78000000000003" y="386.36" type="line"/>
      <point x="85.64" y="386.36" type="line"/>
    </contour>
  </outline>
</glyph>
<glyph name="brokenbar" format="2">
  <advance width="191.70999999999998"/>
  <unicode hex="00A6"/>
  <outline>
    <contour>
      <point x="113.118" y="391.0" type="line"/>
      <point x="113.118" y="790.0540000000001" type="line"/>
      <point x="78.592" y="790.0540000000001" type="line"/>
      <point x="78.592" y="391.0" type="line"/>
    </contour>
    <contour>
      <point x="78.592" y="190.054" type="line"/>
      <point x="78.592" y="-210.0" type="line"/>
      <point x="113.118" y="-210.0" type="line"/>
      <point x="113.118" y="190.054" type="line"/>
    </contour>
  </outline>
</glyph>
<glyph name="section" format="2">
  <advance width="469.9239999999999"/>
  <unicode hex="00A7"/>
  <outline>
    <contour>
      <point x="204.76" y="-220.18" type="curve" smooth="yes"/>
      <point x="342.84" y="-220.18"/>
      <point x="436.24" y="-108.444"/>
      <point x="436.24" y="48.568000000000005" type="curve" smooth="yes"/>
      <point x="436.24" y="137.32399999999998"/>
      <point x="411.0919999999999" y="219.848"/>
      <point x="329.728" y="402.56800000000004" type="curve" smooth="yes"/>
      <point x="266.528" y="547.2679999999999"/>
      <point x="252.31600000000003" y="580.496"/>
      <point x="252.31600000000003" y="624.188" type="curve" smooth="yes"/>
      <point x="252.31600000000003" y="678.176"/>
      <point x="283.87600000000003" y="710.736"/>
      <point x="335.732" y="710.736" type="curve" smooth="yes"/>
      <point x="356.16" y="710.736"/>
      <point x="377.932" y="706.9159999999999"/>
      <point x="408.31200000000007" y="695.948" type="curve"/>
      <point x="417.99600000000004" y="728.1320000000001" type="line"/>
      <point x="378.76800000000003" y="742.984"/>
      <point x="338.164" y="749.508"/>
      <point x="296.904" y="749.508" type="curve" smooth="yes"/>
      <point x="147.408" y="749.508"/>
      <point x="54.199999999999996" y="646.9520000000001"/>
      <point x="53.74" y="479.72400000000005" type="curve" smooth="yes"/>
      <point x="53.919999999999995" y="381.53999999999996"/>
      <point x="79.84" y="292.504"/>
      <point x="157.464" y="129.76" type="curve" smooth="yes"/>
      <point x="210.39999999999998" y="8.344000000000003"/>
      <point x="233.39999999999998" y="-39.559999999999995"/>
      <point x="233.72799999999998" y="-93.088" type="curve" smooth="yes"/>
      <point x="234.05599999999998" y="-144.584"/>
      <point x="200.988" y="-178.27599999999998"/>
      <point x="153.068" y="-178.27599999999998" type="curve" smooth="yes"/>
      <point x="118.492" y="-178.27599999999998"/>
      <point x="90.572" y="-166.32399999999998"/>
      <point x="45.568000000000005" y="-131.17199999999997" type="curve"/>
      <point x="32.064" y="-161.668" type="line"/>
      <point x="91.27600000000001" y="-205.508"/>
      <point x="135.336" y="-220.18"/>
    </contour>
    <contour>
      <point x="205.38400000000004" y="-194.59199999999998" type="curve" smooth="yes"/>
      <point x="177.41600000000003" y="-194.59199999999998"/>
      <point x="157.876" y="-191.904"/>
      <point x="140.66400000000002" y="-186.184" type="curve"/>
      <point x="158.348" y="-199.132" type="line"/>
      <point x="221.03199999999998" y="-200.64"/>
      <point x="265.37600000000003" y="-155.02"/>
      <point x="265.37600000000003" y="-93.58" type="curve" smooth="yes"/>
      <point x="265.37600000000003" y="-42.088"/>
      <point x="250.16400000000002" y="6.728000000000002"/>
      <point x="186.72" y="143.34" type="curve" smooth="yes"/>
      <point x="109.35600000000001" y="312.892"/>
      <point x="86.028" y="387.17199999999997"/>
      <point x="86.028" y="483.864" type="curve" smooth="yes"/>
      <point x="86.028" y="627.6479999999999"/>
      <point x="164.10399999999998" y="719.0240000000001"/>
      <point x="279.972" y="719.0240000000001" type="curve" smooth="yes"/>
      <point x="290.93600000000004" y="719.0240000000001"/>
      <point x="300.29600000000005" y="718.3359999999999"/>
      <point x="313.228" y="716.288" type="curve"/>
      <point x="303.724" y="726.9240000000001" type="line"/>
      <point x="250.36" y="721.136"/>
      <point x="219.864" y="676.764"/>
      <point x="219.35600000000002" y="624.432" type="curve" smooth="yes"/>
      <point x="219.35600000000002" y="575.024"/>
      <point x="236.01200000000003" y="529.8279999999999"/>
      <point x="299.62" y="390.56" type="curve" smooth="yes"/>
      <point x="380.16400000000004" y="207.024"/>
      <point x="404.624" y="130.54399999999998"/>
      <point x="404.624" y="45.687999999999995" type="curve" smooth="yes"/>
      <point x="404.952" y="-92.752"/>
      <point x="330.272" y="-194.26399999999998"/>
    </contour>
  </outline>
</glyph>
<glyph name="copyright" format="2">
  <advance width="631.8880000000001"/>
  <unicode hex="00A9"/>
  <outline>
    <contour>
      <point x="315.9800000000001" y="13.564" type="curve" smooth="yes"/>
      <point x="175.698" y="13.564"/>
      <point x="72.50999999999999" y="95.21199999999999"/>
      <point x="72.50999999999999" y="349.98199999999997" type="curve" smooth="yes"/>
      <point x="72.50999999999999" y="605.37"/>
      <point x="175.76999999999998" y="686.2559999999999"/>
      <point x="315.9800000000001" y="686.2559999999999" type="curve" smooth="yes"/>
      <point x="456.28000000000003" y="686.2559999999999"/>
      <point x="559.324" y="605.37"/>
      <point x="559.324" y="349.98199999999997" type="curve" smooth="yes"/>
      <point x="559.324" y="95.21199999999999"/>
      <point x="456.35200000000003" y="13.564"/>
    </contour>
    <contour>
      <point x="315.9800000000001" y="710.0" type="curve" smooth="yes"/>
      <point x="160.18400000000003" y="710.0"/>
      <point x="48.1" y="623.2239999999999"/>
      <point x="48.1" y="349.98199999999997" type="curve" smooth="yes"/>
      <point x="48.1" y="77.33999999999999"/>
      <point x="160.11200000000002" y="-10.0"/>
      <point x="315.9800000000001" y="-10.0" type="curve" smooth="yes"/>
      <point x="471.776" y="-10.0"/>
      <point x="583.7880000000001" y="77.33999999999999"/>
      <point x="583.7880000000001" y="349.98199999999997" type="curve" smooth="yes"/>
      <point x="583.7880000000001" y="623.2239999999999"/>
      <point x="471.776" y="710.0"/>
    </contour>
    <contour>
      <point x="186.74" y="336.64" type="curve" smooth="yes"/>
      <point x="186.74" y="221.082"/>
      <point x="236.22" y="167.528"/>
      <point x="319.39400000000006" y="167.528" type="curve" smooth="yes"/>
      <point x="366.10400000000004" y="167.528"/>
      <point x="406.146" y="175.29000000000002"/>
      <point x="429.43399999999997" y="181.71" type="curve"/>
      <point x="423.104" y="209.672" type="line"/>
      <point x="402.368" y="204.076"/>
      <point x="364.90999999999997" y="197.35"/>
      <point x="322.004" y="197.35" type="curve" smooth="yes"/>
      <point x="252.248" y="197.35"/>
      <point x="219.50199999999998" y="246.18"/>
      <point x="219.50199999999998" y="336.55" type="curve" smooth="yes"/>
      <point x="219.50199999999998" y="450.736"/>
      <point x="263.49600000000004" y="490.536"/>
      <point x="334.798" y="490.536" type="curve" smooth="yes"/>
      <point x="363.548" y="490.536"/>
      <point x="386.36400000000003" y="487.852"/>
      <point x="412.24" y="480.54200000000003" type="curve"/>
      <point x="418.87600000000003" y="508.57599999999996" type="line"/>
      <point x="391.194" y="517.2"/>
      <point x="364.078" y="520.43"/>
      <point x="332.49399999999997" y="520.43" type="curve" smooth="yes"/>
      <point x="247.39200000000005" y="520.43"/>
      <point x="186.74" y="472.916"/>
    </contour>
  </outline>
</glyph>
<glyph name="ordfeminine" format="2">
  <advance width="332.994"/>
  <unicode hex="00AA"/>
  <outline>
    <contour>
      <point x="44.294" y="283.082" type="line"/>
      <point x="298.312" y="283.082" type="line"/>
      <point x="298.312" y="308.92199999999997" type="line"/>
      <point x="44.294" y="308.92199999999997" type="line"/>
    </contour>
    <component base="a.superior" xOffset="12.732"/>
  </outline>
</glyph>
<glyph name="logicalnot" format="2">
  <advance width="456.692"/>
  <unicode hex="00AC"/>
  <outline>
    <contour>
      <point x="50.837999999999994" y="375.054" type="line"/>
      <point x="372.18" y="375.054" type="line"/>
      <point x="372.18" y="176.208" type="line"/>
      <point x="406.40000000000003" y="176.208" type="line"/>
      <point x="406.40000000000003" y="409.274" type="line"/>
      <point x="50.837999999999994" y="409.274" type="line"/>
    </contour>
  </outline>
</glyph>
<glyph name="registered" format="2">
  <advance width="605.476"/>
  <unicode hex="00AE"/>
  <outline>
    <contour>
      <point x="302.408" y="208.238" type="curve" smooth="yes"/>
      <point x="450.9820000000001" y="208.238"/>
      <point x="557.3760000000001" y="290.98400000000004"/>
      <point x="557.3760000000001" y="550.364" type="curve" smooth="yes"/>
      <point x="557.3760000000001" y="810.0379999999999"/>
      <point x="451.0180000000001" y="892.4899999999999"/>
      <point x="302.408" y="892.4899999999999" type="curve" smooth="yes"/>
      <point x="154.608" y="892.4899999999999"/>
      <point x="48.1" y="810.0379999999999"/>
      <point x="48.1" y="550.364" type="curve" smooth="yes"/>
      <point x="48.1" y="291.36199999999997"/>
      <point x="154.482" y="208.238"/>
    </contour>
    <contour>
      <point x="302.408" y="230.532" type="curve" smooth="yes"/>
      <point x="169.05000000000004" y="230.532"/>
      <point x="71.714" y="308.198"/>
      <point x="71.714" y="550.364" type="curve" smooth="yes"/>
      <point x="71.714" y="793.166"/>
      <point x="169.01400000000004" y="869.9440000000002"/>
      <point x="302.408" y="869.9440000000002" type="curve" smooth="yes"/>
      <point x="436.68399999999997" y="869.9440000000002"/>
      <point x="534.218" y="793.202"/>
      <point x="534.218" y="550.364" type="curve" smooth="yes"/>
      <point x="534.218" y="308.072"/>
      <point x="436.59399999999994" y="230.532"/>
    </contour>
    <contour>
      <point x="439.998" y="395.27799999999996" type="curve" smooth="yes"/>
      <point x="443.14200000000005" y="395.27799999999996"/>
      <point x="445.028" y="395.27799999999996"/>
      <point x="449.174" y="395.82399999999996" type="curve"/>
      <point x="447.53600000000006" y="424.60999999999996" type="line"/>
      <point x="445.66200000000003" y="424.064"/>
      <point x="444.172" y="424.064"/>
      <point x="442.172" y="424.064" type="curve" smooth="yes"/>
      <point x="416.698" y="424.11800000000005"/>
      <point x="383.138" y="459.9200000000001"/>
      <point x="343.328" y="536.06" type="curve"/>
      <point x="391.79" y="547.696"/>
      <point x="412.382" y="578.176"/>
      <point x="412.382" y="629.564" type="curve" smooth="yes"/>
      <point x="412.382" y="694.906"/>
      <point x="378.60200000000003" y="718.05"/>
      <point x="289.874" y="718.05" type="curve" smooth="yes"/>
      <point x="259.09799999999996" y="718.05"/>
      <point x="234.60800000000003" y="716.7419999999998"/>
      <point x="198.15800000000002" y="713.1419999999999" type="curve"/>
      <point x="198.15800000000002" y="397.18399999999997" type="line"/>
      <point x="228.17400000000006" y="397.18399999999997" type="line"/>
      <point x="228.17400000000006" y="530.316" type="line"/>
      <point x="252.856" y="529.442"/>
      <point x="271.566" y="528.496"/>
      <point x="292.898" y="528.496" type="curve" smooth="yes"/>
      <point x="298.77200000000005" y="528.496"/>
      <point x="304.502" y="528.496"/>
      <point x="310.28600000000006" y="529.0419999999999" type="curve"/>
      <point x="358.242" y="430.022"/>
      <point x="402.83000000000004" y="395.36799999999994"/>
    </contour>
    <contour>
      <point x="292.568" y="553.0699999999999" type="curve" smooth="yes"/>
      <point x="271.404" y="553.0699999999999"/>
      <point x="252.98800000000003" y="553.4340000000001"/>
      <point x="228.17400000000006" y="554.398" type="curve"/>
      <point x="228.17400000000006" y="688.168" type="line"/>
      <point x="255.68999999999997" y="690.532"/>
      <point x="264.92999999999995" y="691.4060000000001"/>
      <point x="290.69" y="691.4060000000001" type="curve" smooth="yes"/>
      <point x="366.37600000000003" y="691.4060000000001"/>
      <point x="381.96999999999997" y="669.2160000000001"/>
      <point x="381.96999999999997" y="626.5999999999999" type="curve" smooth="yes"/>
      <point x="381.96999999999997" y="574.6399999999999"/>
      <point x="354.03200000000004" y="553.0699999999999"/>
    </contour>
  </outline>
</glyph>
<glyph name="degree" format="2">
  <advance width="251.86"/>
  <unicode hex="00B0"/>
  <outline>
    <contour>
      <point x="125.05600000000001" y="504.52" type="curve" smooth="yes"/>
      <point x="184.726" y="504.52"/>
      <point x="222.11200000000002" y="554.0659999999999"/>
      <point x="222.11200000000002" y="614.54" type="curve" smooth="yes"/>
      <point x="222.11200000000002" y="674.42"/>
      <point x="185.33800000000002" y="726.38"/>
      <point x="125.05600000000001" y="726.38" type="curve" smooth="yes"/>
      <point x="64.702" y="726.38"/>
      <point x="29.748" y="674.42"/>
      <point x="29.748" y="614.54" type="curve" smooth="yes"/>
      <point x="29.748" y="554.0659999999999"/>
      <point x="65.386" y="504.52"/>
    </contour>
    <contour>
      <point x="125.05600000000001" y="535.284" type="curve" smooth="yes"/>
      <point x="84.27000000000001" y="535.284"/>
      <point x="60.512" y="570.3580000000001"/>
      <point x="60.512" y="614.4859999999999" type="curve" smooth="yes"/>
      <point x="60.512" y="658.362"/>
      <point x="84.144" y="695.3280000000001"/>
      <point x="125.05600000000001" y="695.3280000000001" type="curve" smooth="yes"/>
      <point x="165.896" y="695.3280000000001"/>
      <point x="191.42000000000002" y="658.362"/>
      <point x="191.42000000000002" y="614.4859999999999" type="curve" smooth="yes"/>
      <point x="191.42000000000002" y="570.3580000000001"/>
      <point x="165.84199999999998" y="535.284"/>
    </contour>
  </outline>
</glyph>
<glyph name="plusminus" format="2">
  <advance width="474.164"/>
  <unicode hex="00B1"/>
  <outline>
    <contour>
      <point x="48.654" y="65.484" type="line"/>
      <point x="425.51000000000005" y="65.484" type="line"/>
      <point x="425.51000000000005" y="99.70400000000001" type="line"/>
      <point x="254.894" y="99.70400000000001" type="line"/>
      <point x="254.894" y="295.318" type="line"/>
      <point x="425.51000000000005" y="295.318" type="line"/>
      <point x="425.51000000000005" y="329.538" type="line"/>
      <point x="254.894" y="329.538" type="line"/>
      <point x="254.894" y="514.7099999999999" type="line"/>
      <point x="219.23399999999998" y="514.7099999999999" type="line"/>
      <point x="219.23399999999998" y="329.538" type="line"/>
      <point x="48.654" y="329.538" type="line"/>
      <point x="48.654" y="295.318" type="line"/>
      <point x="219.23399999999998" y="295.318" type="line"/>
      <point x="219.23399999999998" y="99.70400000000001" type="line"/>
      <point x="48.654" y="99.70400000000001" type="line"/>
    </contour>
  </outline>
</glyph>
<glyph name="uni00B2" format="2">
  <advance width="395.574"/>
  <unicode hex="00B2"/>
  <outline>
    <contour>
      <point x="64.196" y="370.0" type="line"/>
      <point x="336.94199999999995" y="370.0" type="line"/>
      <point x="336.94199999999995" y="393.974" type="line"/>
      <point x="107.768" y="393.974" type="line"/>
      <point x="255.126" y="530.6440000000001"/>
      <point x="289.502" y="594.324"/>
      <point x="289.502" y="661.9879999999999" type="curve" smooth="yes"/>
      <point x="289.502" y="732.572"/>
      <point x="250.4" y="773.654"/>
      <point x="179.94" y="773.654" type="curve" smooth="yes"/>
      <point x="142.05" y="773.654"/>
      <point x="100.72600000000001" y="763.442"/>
      <point x="69.066" y="739.6800000000001" type="curve"/>
      <point x="79.542" y="717.444" type="line"/>
      <point x="109.024" y="739.14"/>
      <point x="142.27400000000003" y="746.05"/>
      <point x="175.282" y="746.05" type="curve" smooth="yes"/>
      <point x="228.328" y="746.05"/>
      <point x="257.742" y="711.85"/>
      <point x="257.742" y="656.706" type="curve" smooth="yes"/>
      <point x="257.742" y="594.388"/>
      <point x="213.278" y="523.128"/>
      <point x="61.466" y="391.18199999999996" type="curve"/>
    </contour>
  </outline>
</glyph>
<glyph name="uni00B3" format="2">
  <advance width="377.85200000000003"/>
  <unicode hex="00B3"/>
  <outline>
    <contour>
      <point x="35.76" y="395.348" type="line"/>
      <point x="75.434" y="371.14599999999996"/>
      <point x="118.352" y="360.432"/>
      <point x="175.75000000000003" y="360.432" type="curve" smooth="yes"/>
      <point x="273.43600000000004" y="360.432"/>
      <point x="332.54200000000003" y="405.746"/>
      <point x="332.54200000000003" y="482.63" type="curve" smooth="yes"/>
      <point x="332.54200000000003" y="535.33"/>
      <point x="301.934" y="570.188"/>
      <point x="244.12400000000002" y="578.176" type="curve"/>
      <point x="286.84000000000003" y="588.4420000000001"/>
      <point x="311.18399999999997" y="622.862"/>
      <point x="311.18399999999997" y="669.014" type="curve" smooth="yes"/>
      <point x="311.18399999999997" y="733.252"/>
      <point x="260.592" y="773.398"/>
      <point x="174.46800000000002" y="773.398" type="curve" smooth="yes"/>
      <point x="120.21400000000001" y="773.398"/>
      <point x="79.346" y="762.798"/>
      <point x="55.906000000000006" y="751.078" type="curve"/>
      <point x="64.354" y="729.304" type="line"/>
      <point x="87.82600000000001" y="738.364"/>
      <point x="117.444" y="746.944"/>
      <point x="169.30400000000003" y="746.944" type="curve" smooth="yes"/>
      <point x="239.114" y="746.944"/>
      <point x="281.14" y="716.14"/>
      <point x="281.14" y="664.52" type="curve" smooth="yes"/>
      <point x="281.14" y="619.0319999999999"/>
      <point x="251.76" y="587.152"/>
      <point x="190.90800000000002" y="587.152" type="curve" smooth="yes"/>
      <point x="116.338" y="587.152" type="line"/>
      <point x="116.338" y="564.388" type="line"/>
      <point x="189.428" y="564.388" type="line" smooth="yes"/>
      <point x="268.38599999999997" y="564.388"/>
      <point x="300.95599999999996" y="536.1679999999999"/>
      <point x="300.95599999999996" y="483.71" type="curve" smooth="yes"/>
      <point x="300.95599999999996" y="422.046"/>
      <point x="253.692" y="385.492"/>
      <point x="173.476" y="385.492" type="curve" smooth="yes"/>
      <point x="118.31800000000001" y="385.492"/>
      <point x="81.178" y="395.04200000000003"/>
      <point x="46.734" y="416.58" type="curve"/>
    </contour>
  </outline>
</glyph>
<glyph name="uni00B5" format="2">
  <advance width="520.02"/>
  <unicode hex="00B5"/>
  <outline>
    <contour>
      <point x="72.13" y="-210.0" type="line"/>
      <point x="110.094" y="-210.0" type="line"/>
      <point x="110.094" y="41.374" type="line"/>
      <point x="129.814" y="6.996"/>
      <point x="166.38600000000002" y="-9.892"/>
      <point x="217.534" y="-9.892" type="curve" smooth="yes"/>
      <point x="286.728" y="-9.892"/>
      <point x="340.786" y="13.932000000000002"/>
      <point x="401.40000000000003" y="47.52" type="curve"/>
      <point x="408.618" y="7.9639999999999995"/>
      <point x="435.896" y="-10.0"/>
      <point x="466.772" y="-10.0" type="curve" smooth="yes"/>
      <point x="482.516" y="-10.0"/>
      <point x="498.39200000000005" y="-6.411999999999999"/>
      <point x="514.816" y="1.2319999999999998" type="curve"/>
      <point x="507.3520000000001" y="30.198" type="line"/>
      <point x="497.40200000000004" y="25.45"/>
      <point x="487.18000000000006" y="23.176"/>
      <point x="477.358" y="23.176" type="curve" smooth="yes"/>
      <point x="453.29" y="23.176"/>
      <point x="434.46000000000004" y="38.676"/>
      <point x="434.46000000000004" y="87.34" type="curve" smooth="yes"/>
      <point x="434.46000000000004" y="531.8" type="line"/>
      <point x="396.01000000000005" y="531.8" type="line"/>
      <point x="396.01000000000005" y="78.238" type="line"/>
      <point x="337.66400000000004" y="46.269999999999996"/>
      <point x="285.334" y="23.632"/>
      <point x="222.70600000000002" y="23.632" type="curve" smooth="yes"/>
      <point x="147.89" y="23.632"/>
      <point x="110.63399999999999" y="64.534"/>
      <point x="110.63399999999999" y="130.20000000000002" type="curve" smooth="yes"/>
      <point x="110.63399999999999" y="531.8" type="line"/>
      <point x="72.13" y="531.8" type="line"/>
    </contour>
  </outline>
</glyph>
<glyph name="paragraph" format="2">
  <advance width="557.556"/>
  <unicode hex="00B6"/>
  <outline>
    <contour>
      <point x="447.8020000000001" y="-210.0" type="line"/>
      <point x="481.62600000000003" y="-210.0" type="line"/>
      <point x="481.62600000000003" y="740.0" type="line"/>
      <point x="447.8020000000001" y="740.0" type="line"/>
    </contour>
    <contour>
      <point x="234.732" y="213.944" type="line"/>
      <point x="122.878" y="229.862"/>
      <point x="72.142" y="319.422"/>
      <point x="72.142" y="461.32000000000005" type="curve" smooth="yes"/>
      <point x="72.142" y="609.242"/>
      <point x="138.96999999999997" y="702.942"/>
      <point x="294.814" y="706.764" type="curve"/>
      <point x="294.814" y="-210.0" type="line"/>
      <point x="328.638" y="-210.0" type="line"/>
      <point x="328.638" y="740.0" type="line"/>
      <point x="305.06" y="740.0" type="line" smooth="yes"/>
      <point x="115.288" y="740.0"/>
      <point x="36.554" y="628.302"/>
      <point x="36.554" y="462.814" type="curve" smooth="yes"/>
      <point x="36.554" y="305.41200000000003"/>
      <point x="96.76400000000001" y="203.93"/>
      <point x="231.46" y="184.24200000000002" type="curve"/>
    </contour>
  </outline>
</glyph>
<glyph name="periodcentered" format="2">
  <advance width="154.568"/>
  <unicode hex="00B7"/>
  <outline>
    <contour>
      <point x="52.56400000000001" y="290.23999999999995" type="curve" smooth="yes"/>
      <point x="52.56400000000001" y="268.65999999999997"/>
      <point x="57.132" y="264.23999999999995"/>
      <point x="77.448" y="264.23999999999995" type="curve" smooth="yes"/>
      <point x="98.764" y="264.23999999999995"/>
      <point x="102.332" y="268.65999999999997"/>
      <point x="102.332" y="290.23999999999995" type="curve" smooth="yes"/>
      <point x="102.332" y="312.0"/>
      <point x="98.764" y="316.41999999999996"/>
      <point x="77.448" y="316.41999999999996" type="curve" smooth="yes"/>
      <point x="56.132" y="316.41999999999996"/>
      <point x="52.56400000000001" y="312.0"/>
    </contour>
  </outline>
</glyph>
<glyph name="uni00B9" format="2">
  <advance width="356.828"/>
  <unicode hex="00B9"/>
  <outline>
    <contour>
      <point x="32.55" y="370.0" type="line"/>
      <point x="328.142" y="370.0" type="line"/>
      <point x="328.142" y="394.70000000000005" type="line"/>
      <point x="207.22400000000002" y="394.70000000000005" type="line"/>
      <point x="207.22400000000002" y="769.0020000000001" type="line"/>
      <point x="190.542" y="769.0020000000001" type="line"/>
      <point x="28.772" y="683.606" type="line"/>
      <point x="38.32999999999999" y="658.846" type="line"/>
      <point x="175.354" y="731.4639999999999" type="line"/>
      <point x="175.354" y="394.70000000000005" type="line"/>
      <point x="32.55" y="394.70000000000005" type="line"/>
    </contour>
  </outline>
</glyph>
<glyph name="ordmasculine" format="2">
  <advance width="357.132"/>
  <unicode hex="00BA"/>
  <outline>
    <contour>
      <point x="53.968" y="283.446" type="line"/>
      <point x="310.898" y="283.446" type="line"/>
      <point x="310.898" y="309.286" type="line"/>
      <point x="53.968" y="309.286" type="line"/>
    </contour>
    <component base="o.superior" xOffset="14.552000000000001"/>
  </outline>
</glyph>
<glyph name="questiondown" format="2">
  <advance width="424.206"/>
  <unicode hex="00BF"/>
  <outline>
    <contour>
      <point x="253.9" y="268.712" type="line"/>
      <point x="218.40200000000002" y="268.712" type="line"/>
      <point x="218.33" y="196.574" type="line"/>
      <point x="95.732" y="133.496"/>
      <point x="35.296" y="81.54"/>
      <point x="35.296" y="-31.019999999999996" type="curve" smooth="yes"/>
      <point x="35.296" y="-167.11999999999998"/>
      <point x="130.662" y="-218.77599999999998"/>
      <point x="222.968" y="-218.77599999999998" type="curve" smooth="yes"/>
      <point x="290.52000000000004" y="-218.77599999999998"/>
      <point x="362.878" y="-196.162"/>
      <point x="416.546" y="-154.886" type="curve"/>
      <point x="400.54" y="-125.25200000000001" type="line"/>
      <point x="346.55600000000004" y="-165.374"/>
      <point x="283.29800000000006" y="-182.798"/>
      <point x="226.37" y="-182.798" type="curve" smooth="yes"/>
      <point x="151.03" y="-182.798"/>
      <point x="75.102" y="-134.692"/>
      <point x="75.102" y="-29.592000000000002" type="curve" smooth="yes"/>
      <point x="75.102" y="56.068"/>
      <point x="118.99" y="115.60799999999999"/>
      <point x="254.36800000000002" y="176.87199999999999" type="curve"/>
    </contour>
    <contour>
      <point x="258.89799999999997" y="506.214" type="curve" smooth="yes"/>
      <point x="258.89799999999997" y="527.6859999999999"/>
      <point x="253.454" y="532.106"/>
      <point x="233.63" y="532.106" type="curve" smooth="yes"/>
      <point x="213.004" y="532.106"/>
      <point x="208.90800000000002" y="527.6859999999999"/>
      <point x="208.90800000000002" y="506.214" type="curve" smooth="yes"/>
      <point x="208.90800000000002" y="484.65200000000004"/>
      <point x="213.004" y="480.232"/>
      <point x="233.63" y="480.232" type="curve" smooth="yes"/>
      <point x="254.91" y="480.232"/>
      <point x="258.89799999999997" y="484.65200000000004"/>
    </contour>
  </outline>
</glyph>
<glyph name="AE" format="2">
  <advance width="897.448"/>
  <unicode hex="00C6"/>
  <anchor x="463.668" y="700.0" name="top"/>
  <outline>
    <contour>
      <point x="11.247999999999998" y="0.0" type="line"/>
      <point x="56.552" y="-0.672" type="line"/>
      <point x="235.44399999999996" y="304.264" type="line"/>
      <point x="443.06" y="304.264" type="line"/>
      <point x="443.06" y="0.0" type="line"/>
      <point x="869.9720000000001" y="0.0" type="line"/>
      <point x="869.9720000000001" y="36.559999999999995" type="line"/>
      <point x="482.5" y="36.559999999999995" type="line"/>
      <point x="482.5" y="315.832" type="line"/>
      <point x="830.2840000000001" y="315.832" type="line"/>
      <point x="830.2840000000001" y="352.21200000000005" type="line"/>
      <point x="482.5" y="352.21200000000005" type="line"/>
      <point x="482.5" y="663.44" type="line"/>
      <point x="852.48" y="663.44" type="line"/>
      <point x="852.48" y="700.0" type="line"/>
      <point x="422.8" y="700.0" type="line"/>
    </contour>
    <contour>
      <point x="253.61200000000002" y="338.89200000000005" type="line"/>
      <point x="442.88" y="665.7959999999998" type="line"/>
      <point x="442.88" y="338.89200000000005" type="line"/>
    </contour>
  </outline>
</glyph>
<glyph name="multiply" format="2">
  <advance width="442.172"/>
  <unicode hex="00D7"/>
  <outline>
    <contour>
      <point x="84.584" y="80.8" type="line"/>
      <point x="220.90400000000002" y="264.526" type="line"/>
      <point x="357.224" y="82.438" type="line"/>
      <point x="382.894" y="104.30999999999999" type="line"/>
      <point x="244.52200000000002" y="291.942" type="line"/>
      <point x="383.076" y="481.43" type="line"/>
      <point x="357.406" y="503.30199999999996" type="line"/>
      <point x="220.90400000000002" y="319.904" type="line"/>
      <point x="84.22000000000001" y="504.03" type="line"/>
      <point x="58.550000000000004" y="482.158" type="line"/>
      <point x="197.796" y="291.942" type="line"/>
      <point x="58.914" y="102.672" type="line"/>
    </contour>
  </outline>
</glyph>
<glyph name="Oslash" format="2">
  <advance width="685.5200000000001"/>
  <unicode hex="00D8"/>
  <anchor x="339.62" y="700.0" name="top"/>
  <outline>
    <contour>
      <point x="89.06" y="-10.36" type="line"/>
      <point x="153.62" y="76.28" type="line"/>
      <point x="154.52" y="76.28000000000002" type="line"/>
      <point x="551.26" y="604.32" type="line"/>
      <point x="552.16" y="604.32" type="line"/>
      <point x="631.6800000000001" y="710.9" type="line"/>
      <point x="591.8199999999999" y="710.9" type="line"/>
      <point x="529.26" y="627.44" type="line"/>
      <point x="527.54" y="626.62" type="line"/>
      <point x="132.88" y="99.38" type="line"/>
      <point x="131.98" y="99.38000000000001" type="line"/>
      <point x="50.2" y="-10.36" type="line"/>
    </contour>
    <contour>
      <point x="339.62" y="23.040000000000003" type="curve" smooth="yes"/>
      <point x="211.84" y="23.040000000000003"/>
      <point x="88.2" y="88.52000000000001"/>
      <point x="88.2" y="349.18" type="curve" smooth="yes"/>
      <point x="88.2" y="616.12"/>
      <point x="211.84" y="676.96"/>
      <point x="339.62" y="676.96" type="curve" smooth="yes"/>
      <point x="468.22" y="676.96"/>
      <point x="592.86" y="616.94"/>
      <point x="592.86" y="349.18" type="curve" smooth="yes"/>
      <point x="592.86" y="83.24"/>
      <point x="468.22" y="23.040000000000003"/>
    </contour>
    <contour>
      <point x="339.62" y="-10.0" type="curve" smooth="yes"/>
      <point x="497.18" y="-10.0"/>
      <point x="632.76" y="59.239999999999995"/>
      <point x="632.76" y="351.18" type="curve" smooth="yes"/>
      <point x="632.76" y="640.58"/>
      <point x="493.44" y="710.0"/>
      <point x="339.62" y="710.0" type="curve" smooth="yes"/>
      <point x="184.8" y="710.0"/>
      <point x="49.120000000000005" y="639.5799999999999"/>
      <point x="49.120000000000005" y="349.18" type="curve" smooth="yes"/>
      <point x="49.120000000000005" y="65.52"/>
      <point x="185.52" y="-10.0"/>
    </contour>
  </outline>
</glyph>
<glyph name="Thorn" format="2">
  <advance width="581.734"/>
  <unicode hex="00DE"/>
  <outline>
    <contour>
      <point x="79.054" y="0.0" type="line"/>
      <point x="118.278" y="0.0" type="line"/>
      <point x="118.278" y="172.258" type="line"/>
      <point x="190.014" y="169.896"/>
      <point x="226.984" y="169.53199999999998"/>
      <point x="288.82000000000005" y="169.53199999999998" type="curve" smooth="yes"/>
      <point x="469.15200000000004" y="169.53199999999998"/>
      <point x="542.554" y="229.814"/>
      <point x="542.554" y="400.48199999999997" type="curve" smooth="yes"/>
      <point x="542.554" y="558.12"/>
      <point x="489.118" y="615.698"/>
      <point x="275.994" y="615.698" type="curve" smooth="yes"/>
      <point x="244.30599999999998" y="615.698"/>
      <point x="204.024" y="614.388"/>
      <point x="118.33200000000001" y="610.348" type="curve"/>
      <point x="118.33200000000001" y="700.0" type="line"/>
      <point x="79.054" y="700.0" type="line"/>
    </contour>
    <contour>
      <point x="282.508" y="204.67" type="curve" smooth="yes"/>
      <point x="219.134" y="204.67"/>
      <point x="184.092" y="205.798"/>
      <point x="118.33200000000001" y="207.688" type="curve"/>
      <point x="118.33200000000001" y="576.008" type="line"/>
      <point x="206.678" y="580.864"/>
      <point x="243.504" y="582.138"/>
      <point x="278.16" y="582.138" type="curve" smooth="yes"/>
      <point x="459.726" y="582.138"/>
      <point x="503.078" y="530.386"/>
      <point x="503.078" y="399.456" type="curve" smooth="yes"/>
      <point x="503.078" y="258.754"/>
      <point x="449.358" y="204.67"/>
    </contour>
  </outline>
</glyph>
<glyph name="germandbls" format="2">
  <advance width="580.988"/>
  <unicode hex="00DF"/>
  <outline>
    <contour>
      <point x="112.328" y="0.0" type="line"/>
      <point x="150.724" y="0.0" type="line"/>
      <point x="150.724" y="518.984" type="line" smooth="yes"/>
      <point x="150.724" y="650.784"/>
      <point x="209.5" y="717.068"/>
      <point x="331.53999999999996" y="717.068" type="curve" smooth="yes"/>
      <point x="427.344" y="717.068"/>
      <point x="465.85999999999996" y="692.256"/>
      <point x="465.85999999999996" y="632.072" type="curve" smooth="yes"/>
      <point x="465.85999999999996" y="581.852"/>
      <point x="438.416" y="561.3280000000001"/>
      <point x="362.584" y="527.8760000000001" type="curve" smooth="yes"/>
      <point x="291.324" y="497.236"/>
      <point x="255.928" y="461.228"/>
      <point x="255.928" y="403.356" type="curve" smooth="yes"/>
      <point x="255.928" y="335.252"/>
      <point x="289.75600000000003" y="299.60400000000004"/>
      <point x="403.6" y="258.8" type="curve" smooth="yes"/>
      <point x="507.72399999999993" y="219.76"/>
      <point x="538.536" y="193.712"/>
      <point x="538.536" y="132.14" type="curve" smooth="yes"/>
      <point x="538.536" y="61.288"/>
      <point x="470.712" y="23.104000000000003"/>
      <point x="386.428" y="23.104000000000003" type="curve" smooth="yes"/>
      <point x="330.816" y="23.104000000000003"/>
      <point x="271.428" y="35.176"/>
      <point x="220.10399999999998" y="52.744" type="curve"/>
      <point x="210.448" y="21.676" type="line"/>
      <point x="263.67199999999997" y="1.604"/>
      <point x="326.6" y="-10.0"/>
      <point x="386.57199999999995" y="-10.0" type="curve" smooth="yes"/>
      <point x="491.488" y="-10.0"/>
      <point x="575.384" y="38.82"/>
      <point x="575.384" y="133.652" type="curve" smooth="yes"/>
      <point x="575.384" y="209.74800000000002"/>
      <point x="535.8000000000001" y="248.396"/>
      <point x="421.172" y="289.056" type="curve" smooth="yes"/>
      <point x="321.364" y="326.024"/>
      <point x="292.38" y="352.864"/>
      <point x="292.38" y="404.76" type="curve" smooth="yes"/>
      <point x="292.38" y="453.26800000000003"/>
      <point x="322.832" y="476.74"/>
      <point x="381.132" y="502.33599999999996" type="curve" smooth="yes"/>
      <point x="465.032" y="539.5160000000001"/>
      <point x="503.57199999999995" y="568.768"/>
      <point x="503.57199999999995" y="632.0" type="curve" smooth="yes"/>
      <point x="503.57199999999995" y="712.58"/>
      <point x="445.82" y="750.0"/>
      <point x="331.676" y="750.0" type="curve" smooth="yes"/>
      <point x="185.00799999999998" y="750.0"/>
      <point x="113.11200000000001" y="676.2439999999999"/>
      <point x="112.328" y="531.2080000000001" type="curve" smooth="yes"/>
      <point x="112.328" y="486.376" type="line"/>
      <point x="23.596" y="479.76399999999995" type="line"/>
      <point x="23.596" y="453.668" type="line"/>
      <point x="112.328" y="453.668" type="line"/>
    </contour>
  </outline>
</glyph>
<glyph name="ae" format="2">
  <advance width="798.46"/>
  <unicode hex="00E6"/>
  <anchor x="407.96" y="531.8" name="top"/>
  <outline>
    <contour>
      <point x="162.34" y="-10.0" type="curve" smooth="yes"/>
      <point x="254.9" y="-10.0"/>
      <point x="329.1" y="40.94"/>
      <point x="386.0" y="96.4" type="curve"/>
      <point x="387.17999999999995" y="96.4" type="line"/>
      <point x="418.52" y="22.740000000000002"/>
      <point x="473.78000000000003" y="-10.0"/>
      <point x="570.68" y="-10.0" type="curve" smooth="yes"/>
      <point x="649.58" y="-10.0"/>
      <point x="704.56" y="0.17999999999999977"/>
      <point x="751.9800000000001" y="16.08" type="curve"/>
      <point x="745.82" y="48.76" type="line"/>
      <point x="700.66" y="35.58"/>
      <point x="645.5" y="24.759999999999998"/>
      <point x="574.2" y="24.759999999999998" type="curve" smooth="yes"/>
      <point x="459.34000000000003" y="24.759999999999998"/>
      <point x="402.11999999999995" y="72.61999999999999"/>
      <point x="401.75999999999993" y="251.77999999999997" type="curve" smooth="yes"/>
      <point x="401.58" y="258.42"/>
      <point x="401.58" y="270.34"/>
      <point x="402.58" y="274.98" type="curve"/>
      <point x="585.46" y="275.52"/>
      <point x="711.7400000000001" y="290.16"/>
      <point x="759.9000000000001" y="295.16" type="curve"/>
      <point x="759.9000000000001" y="301.6"/>
      <point x="760.9" y="308.58000000000004"/>
      <point x="760.9" y="320.3" type="curve" smooth="yes"/>
      <point x="760.9" y="473.08"/>
      <point x="691.18" y="541.8"/>
      <point x="571.88" y="541.8" type="curve" smooth="yes"/>
      <point x="498.06" y="541.8"/>
      <point x="421.65999999999997" y="510.4200000000001"/>
      <point x="390.4" y="412.79999999999995" type="curve"/>
      <point x="389.4" y="412.79999999999995" type="line"/>
      <point x="385.0" y="496.4"/>
      <point x="327.62" y="541.8"/>
      <point x="229.06" y="541.8" type="curve" smooth="yes"/>
      <point x="182.08" y="541.8"/>
      <point x="126.02000000000001" y="533.26"/>
      <point x="71.76" y="516.9" type="curve"/>
      <point x="79.46" y="483.68" type="line"/>
      <point x="136.82" y="500.68"/>
      <point x="187.62" y="506.68"/>
      <point x="228.26" y="506.68" type="curve" smooth="yes"/>
      <point x="319.29999999999995" y="506.68"/>
      <point x="363.14000000000004" y="463.92"/>
      <point x="363.14000000000004" y="389.67999999999995" type="curve" smooth="yes"/>
      <point x="363.14000000000004" y="301.32" type="line"/>
      <point x="146.42000000000002" y="276.94000000000005"/>
      <point x="34.839999999999996" y="244.68"/>
      <point x="34.839999999999996" y="116.67999999999999" type="curve" smooth="yes"/>
      <point x="34.839999999999996" y="33.16"/>
      <point x="85.1" y="-10.0"/>
    </contour>
    <contour>
      <point x="169.9" y="20.7" type="curve" smooth="yes"/>
      <point x="112.03999999999999" y="20.7"/>
      <point x="73.74" y="55.54"/>
      <point x="73.74" y="122.4" type="curve" smooth="yes"/>
      <point x="73.74" y="228.38"/>
      <point x="190.29999999999998" y="255.76000000000002"/>
      <point x="362.32" y="273.32000000000005" type="curve"/>
      <point x="362.32" y="264.32000000000005"/>
      <point x="362.32" y="254.32000000000002"/>
      <point x="362.32" y="245.14" type="curve" smooth="yes"/>
      <point x="362.32" y="193.92000000000002"/>
      <point x="365.96" y="154.61999999999998"/>
      <point x="374.24" y="123.24000000000001" type="curve"/>
      <point x="323.38" y="69.74000000000001"/>
      <point x="244.14" y="20.7"/>
    </contour>
    <contour>
      <point x="403.40000000000003" y="303.52" type="curve"/>
      <point x="403.76000000000005" y="465.26"/>
      <point x="487.74" y="510.20000000000005"/>
      <point x="568.98" y="510.20000000000005" type="curve" smooth="yes"/>
      <point x="668.42" y="510.20000000000005"/>
      <point x="721.1000000000001" y="447.88"/>
      <point x="721.8199999999999" y="320.26" type="curve"/>
      <point x="689.6400000000001" y="316.44000000000005"/>
      <point x="563.3599999999999" y="303.52"/>
    </contour>
  </outline>
</glyph>
<glyph name="eth" format="2">
  <advance width="517.4599999999999"/>
  <unicode hex="00F0"/>
  <outline>
    <contour>
      <point x="439.68" y="453.71999999999997" type="curve"/>
      <point x="441.22" y="485.41999999999996" type="line"/>
      <point x="397.22" y="519.44"/>
      <point x="342.65999999999997" y="531.54"/>
      <point x="276.28" y="531.54" type="curve" smooth="yes"/>
      <point x="124.96000000000001" y="531.54"/>
      <point x="44.12" y="444.46000000000004"/>
      <point x="44.12" y="257.46000000000004" type="curve" smooth="yes"/>
      <point x="44.12" y="68.89999999999999"/>
      <point x="111.74" y="-10.0"/>
      <point x="245.78" y="-10.0" type="curve" smooth="yes"/>
      <point x="406.8" y="-10.0"/>
      <point x="471.52" y="78.08"/>
      <point x="471.52" y="334.06" type="curve" smooth="yes"/>
      <point x="471.52" y="595.8599999999999"/>
      <point x="390.47999999999996" y="714.32"/>
      <point x="202.98000000000002" y="714.32" type="curve" smooth="yes"/>
      <point x="150.08" y="714.32"/>
      <point x="108.38" y="708.7800000000001"/>
      <point x="50.660000000000004" y="694.42" type="curve"/>
      <point x="56.28" y="664.72" type="line"/>
      <point x="107.64" y="676.9"/>
      <point x="146.74" y="684.08"/>
      <point x="196.66" y="684.08" type="curve" smooth="yes"/>
      <point x="360.3" y="684.08"/>
      <point x="433.16" y="590.02"/>
      <point x="433.16" y="333.14" type="curve" smooth="yes"/>
      <point x="433.16" y="101.74000000000001"/>
      <point x="379.3" y="22.68"/>
      <point x="248.11999999999998" y="22.68" type="curve" smooth="yes"/>
      <point x="138.42000000000002" y="22.68"/>
      <point x="83.38000000000001" y="90.64"/>
      <point x="83.38000000000001" y="258.46000000000004" type="curve" smooth="yes"/>
      <point x="83.38000000000001" y="428.7"/>
      <point x="158.82" y="501.3"/>
      <point x="278.42" y="501.3" type="curve" smooth="yes"/>
      <point x="342.28000000000003" y="501.3"/>
      <point x="391.20000000000005" y="489.84"/>
    </contour>
    <contour>
      <point x="160.12" y="573.3199999999999" type="line"/>
      <point x="343.96" y="658.66" type="line"/>
      <point x="349.96" y="661.74" type="line"/>
      <point x="478.09999999999997" y="721.5999999999999" type="line"/>
      <point x="424.06" y="721.5999999999999" type="line"/>
      <point x="325.21999999999997" y="675.7" type="line"/>
      <point x="321.68" y="673.62" type="line"/>
      <point x="105.9" y="573.3199999999999" type="line"/>
    </contour>
  </outline>
</glyph>
<glyph name="divide" format="2">
  <advance width="456.8"/>
  <unicode hex="00F7"/>
  <outline>
    <contour>
      <point x="205.136" y="95.872" type="curve" smooth="yes"/>
      <point x="205.136" y="75.91199999999999"/>
      <point x="208.852" y="72.392"/>
      <point x="228.4" y="72.392" type="curve" smooth="yes"/>
      <point x="248.45600000000002" y="72.392"/>
      <point x="251.664" y="75.91199999999999"/>
      <point x="251.664" y="95.872" type="curve" smooth="yes"/>
      <point x="251.664" y="115.652"/>
      <point x="247.96400000000003" y="119.352"/>
      <point x="228.4" y="119.352" type="curve" smooth="yes"/>
      <point x="208.34400000000002" y="119.352"/>
      <point x="205.136" y="115.652"/>
    </contour>
    <contour>
      <point x="205.136" y="488.78799999999995" type="curve" smooth="yes"/>
      <point x="205.136" y="469.008"/>
      <point x="209.34400000000002" y="465.30799999999994"/>
      <point x="228.4" y="465.30799999999994" type="curve" smooth="yes"/>
      <point x="248.45600000000002" y="465.30799999999994"/>
      <point x="251.664" y="469.008"/>
      <point x="251.664" y="488.78799999999995" type="curve" smooth="yes"/>
      <point x="251.664" y="508.74799999999993"/>
      <point x="248.45600000000002" y="512.448"/>
      <point x="228.4" y="512.448" type="curve" smooth="yes"/>
      <point x="208.34400000000002" y="512.448"/>
      <point x="205.136" y="508.74799999999993"/>
    </contour>
    <contour>
      <point x="48.672" y="275.22" type="line"/>
      <point x="408.12800000000004" y="275.22" type="line"/>
      <point x="408.12800000000004" y="309.62" type="line"/>
      <point x="48.672" y="309.62" type="line"/>
    </contour>
  </outline>
</glyph>
<glyph name="oslash" format="2">
  <advance width="525.1"/>
  <unicode hex="00F8"/>
  <anchor x="261.96" y="531.8" name="top"/>
  <outline>
    <contour>
      <point x="261.96" y="-10.0" type="curve" smooth="yes"/>
      <point x="108.66" y="-10.0"/>
      <point x="44.120000000000005" y="64.32000000000001"/>
      <point x="44.120000000000005" y="266.9" type="curve" smooth="yes"/>
      <point x="44.120000000000005" y="463.65999999999997"/>
      <point x="101.47999999999999" y="541.8"/>
      <point x="261.96" y="541.8" type="curve" smooth="yes"/>
      <point x="423.08" y="541.8"/>
      <point x="480.62" y="463.65999999999997"/>
      <point x="480.62" y="266.9" type="curve" smooth="yes"/>
      <point x="480.62" y="64.32000000000001"/>
      <point x="416.08" y="-10.0"/>
    </contour>
    <contour>
      <point x="261.96" y="21.6" type="curve" smooth="yes"/>
      <point x="389.86" y="21.6"/>
      <point x="442.08" y="85.64"/>
      <point x="442.08" y="266.9" type="curve" smooth="yes"/>
      <point x="442.08" y="443.34"/>
      <point x="396.32" y="510.2"/>
      <point x="261.96" y="510.2" type="curve" smooth="yes"/>
      <point x="128.24" y="510.2"/>
      <point x="82.48" y="443.34"/>
      <point x="82.48" y="266.9" type="curve" smooth="yes"/>
      <point x="82.48" y="85.64"/>
      <point x="134.88" y="21.6"/>
    </contour>
    <contour>
      <point x="43.300000000000004" y="-9.459999999999999" type="line"/>
      <point x="102.80000000000001" y="72.66" type="line"/>
      <point x="103.80000000000001" y="72.48" type="line"/>
      <point x="401.94" y="485.0" type="line"/>
      <point x="402.94" y="484.82" type="line"/>
      <point x="444.38" y="541.8" type="line"/>
      <point x="481.44" y="541.8" type="line"/>
      <point x="421.5" y="459.7" type="line"/>
      <point x="420.50000000000006" y="459.88" type="line"/>
      <point x="123.26" y="48.8" type="line"/>
      <point x="122.25999999999999" y="48.98" type="line"/>
      <point x="80.0" y="-9.459999999999999" type="line"/>
    </contour>
  </outline>
</glyph>
<glyph name="thorn" format="2">
  <advance width="509.03399999999993"/>
  <unicode hex="00FE"/>
  <outline>
    <contour>
      <point x="72.13" y="-210.0" type="line"/>
      <point x="110.508" y="-210.0" type="line"/>
      <point x="110.508" y="3.9400000000000004" type="line"/>
      <point x="152.952" y="-5.595999999999999"/>
      <point x="195.742" y="-10.0"/>
      <point x="232.94400000000002" y="-10.0" type="curve" smooth="yes"/>
      <point x="395.696" y="-10.0"/>
      <point x="464.68" y="70.90599999999999"/>
      <point x="464.68" y="273.076" type="curve" smooth="yes"/>
      <point x="464.68" y="447.23199999999997"/>
      <point x="391.2" y="541.8"/>
      <point x="255.556" y="541.8" type="curve" smooth="yes"/>
      <point x="208.88400000000001" y="541.8"/>
      <point x="156.904" y="532.224"/>
      <point x="110.616" y="517.582" type="curve"/>
      <point x="110.616" y="740.0" type="line"/>
      <point x="72.13" y="740.0" type="line"/>
    </contour>
    <contour>
      <point x="230.538" y="20.598" type="curve" smooth="yes"/>
      <point x="197.72199999999998" y="20.598"/>
      <point x="160.194" y="25.2"/>
      <point x="110.63399999999999" y="35.86" type="curve"/>
      <point x="110.63399999999999" y="484.74399999999997" type="line"/>
      <point x="158.51200000000003" y="501.442"/>
      <point x="202.00799999999998" y="508.244"/>
      <point x="242.448" y="508.244" type="curve" smooth="yes"/>
      <point x="363.00800000000004" y="508.244"/>
      <point x="425.492" y="427.094"/>
      <point x="425.492" y="271.43800000000005" type="curve" smooth="yes"/>
      <point x="425.492" y="87.84"/>
      <point x="368.654" y="20.598"/>
    </contour>
  </outline>
</glyph>
<glyph name="Dcroat" format="2">
  <advance width="644.724"/>
  <unicode hex="0110"/>
  <outline>
    <contour>
      <point x="1.7199999999999993" y="342.26" type="line"/>
      <point x="268.012" y="342.26" type="line"/>
      <point x="268.012" y="376.12" type="line"/>
      <point x="1.7199999999999993" y="376.12" type="line"/>
    </contour>
    <component base="D" xOffset="3.9839999999999995"/>
  </outline>
</glyph>
<glyph name="dcroat" format="2">
  <advance width="510.05999999999995"/>
  <unicode hex="0111"/>
  <outline>
    <contour>
      <point x="242.70800000000003" y="616.02" type="line"/>
      <point x="515.5840000000001" y="616.02" type="line"/>
      <point x="515.5840000000001" y="643.74" type="line"/>
      <point x="242.70800000000003" y="643.74" type="line"/>
    </contour>
    <component base="d"/>
  </outline>
</glyph>
<glyph name="Hbar" format="2">
  <advance width="665.6380000000001"/>
  <unicode hex="0126"/>
  <outline>
    <contour>
      <point x="23.160000000000004" y="500.74999999999994" type="line"/>
      <point x="79.09" y="500.74999999999994" type="line"/>
      <point x="79.09" y="0.0" type="line"/>
      <point x="118.25999999999999" y="0.0" type="line"/>
      <point x="118.25999999999999" y="284.39" type="line"/>
      <point x="547.738" y="284.39" type="line"/>
      <point x="547.738" y="0.0" type="line"/>
      <point x="586.5480000000001" y="0.0" type="line"/>
      <point x="586.5480000000001" y="500.74999999999994" type="line"/>
      <point x="642.4780000000001" y="500.74999999999994" type="line"/>
      <point x="642.4780000000001" y="531.226" type="line"/>
      <point x="586.5480000000001" y="531.226" type="line"/>
      <point x="586.5480000000001" y="700.0" type="line"/>
      <point x="547.738" y="700.0" type="line"/>
      <point x="547.738" y="531.226" type="line"/>
      <point x="118.25999999999999" y="531.226" type="line"/>
      <point x="118.25999999999999" y="700.0" type="line"/>
      <point x="79.09" y="700.0" type="line"/>
      <point x="79.09" y="531.226" type="line"/>
      <point x="23.160000000000004" y="531.226" type="line"/>
    </contour>
    <contour>
      <point x="118.25999999999999" y="320.674" type="line"/>
      <point x="118.25999999999999" y="500.74999999999994" type="line"/>
      <point x="547.738" y="500.74999999999994" type="line"/>
      <point x="547.738" y="320.674" type="line"/>
    </contour>
  </outline>
</glyph>
<glyph name="Idotaccent" format="2">
  <advance width="197.278"/>
  <unicode hex="0130"/>
  <outline>
    <contour>
      <point x="98.72" y="810.0360000000001" type="curve" smooth="yes"/>
      <point x="120.324" y="810.0360000000001"/>
      <point x="124.32400000000001" y="814.312"/>
      <point x="124.32400000000001" y="835.4060000000001" type="curve" smooth="yes"/>
      <point x="124.32400000000001" y="856.608"/>
      <point x="120.216" y="860.8299999999999"/>
      <point x="98.72" y="860.8299999999999" type="curve" smooth="yes"/>
      <point x="77.17000000000002" y="860.8299999999999"/>
      <point x="73.062" y="856.608"/>
      <point x="73.062" y="835.4060000000001" type="curve" smooth="yes"/>
      <point x="73.062" y="814.258"/>
      <point x="78.08000000000001" y="810.0360000000001"/>
    </contour>
    <component base="I"/>
  </outline>
</glyph>
<glyph name="dotlessi" format="2">
  <advance width="182.87199999999999"/>
  <unicode hex="0131"/>
  <anchor x="109.08200000000001" y="0.8999999999999999" name="ogonek"/>
  <anchor x="91.544" y="0.0" name="bottom"/>
  <anchor x="91.43599999999999" y="531.8" name="top"/>
  <outline>
    <contour>
      <point x="72.13" y="0.0" type="line"/>
      <point x="110.742" y="0.0" type="line"/>
      <point x="110.742" y="531.8" type="line"/>
      <point x="72.13" y="531.8" type="line"/>
    </contour>
  </outline>
</glyph>
<glyph name="kgreenlandic" format="2">
  <advance width="476.52"/>
  <unicode hex="0138"/>
  <anchor x="243.22" y="531.8" name="top"/>
  <anchor x="243.22" y="0.0" name="bottom"/>
  <outline>
    <contour>
      <point x="458.12" y="-8.18" type="curve" smooth="yes"/>
      <point x="464.56" y="-8.18"/>
      <point x="471.28000000000003" y="-6.36"/>
      <point x="477.18" y="-5.18" type="curve"/>
      <point x="474.36" y="34.080000000000005" type="line"/>
      <point x="469.18" y="33.26"/>
      <point x="464.17999999999995" y="32.26"/>
      <point x="461.00000000000006" y="32.26" type="curve" smooth="yes"/>
      <point x="432.1" y="32.26"/>
      <point x="400.92" y="53.54"/>
      <point x="293.9" y="165.94" type="curve" smooth="yes"/>
      <point x="109.67999999999999" y="360.28" type="line"/>
      <point x="109.67999999999999" y="531.8" type="line"/>
      <point x="72.04" y="531.8" type="line"/>
      <point x="72.04" y="0.0" type="line"/>
      <point x="109.67999999999999" y="0.0" type="line"/>
      <point x="109.67999999999999" y="307.7" type="line"/>
      <point x="281.84" y="125.42" type="line" smooth="yes"/>
      <point x="400.16" y="-0.28000000000000025"/>
      <point x="423.14" y="-8.18"/>
    </contour>
    <contour>
      <point x="199.46" y="245.56" type="line"/>
      <point x="280.46000000000004" y="313.36"/>
      <point x="393.02" y="400.6"/>
      <point x="438.68" y="527.62" type="curve"/>
      <point x="402.42" y="536.62" type="line"/>
      <point x="357.84" y="410.12"/>
      <point x="253.60000000000002" y="335.56"/>
      <point x="171.62" y="266.04" type="curve"/>
    </contour>
  </outline>
</glyph>
<glyph name="Ldot" format="2">
  <advance width="483.29"/>
  <unicode hex="013F"/>
  <outline>
    <contour>
      <point x="314.94399999999996" y="367.074" type="curve" smooth="yes"/>
      <point x="314.94399999999996" y="347.114"/>
      <point x="318.81000000000006" y="343.45000000000005"/>
      <point x="337.83" y="343.45000000000005" type="curve" smooth="yes"/>
      <point x="357.814" y="343.45000000000005"/>
      <point x="360.77" y="347.114"/>
      <point x="360.77" y="367.074" type="curve" smooth="yes"/>
      <point x="360.77" y="387.124"/>
      <point x="357.814" y="390.788"/>
      <point x="337.83" y="390.788" type="curve" smooth="yes"/>
      <point x="317.90000000000003" y="390.788"/>
      <point x="314.94399999999996" y="387.124"/>
    </contour>
    <component base="L"/>
  </outline>
</glyph>
<glyph name="ldot" format="2">
  <advance width="243.02"/>
  <unicode hex="0140"/>
  <outline>
    <contour>
      <point x="215.95000000000002" y="337.67400000000004" type="curve" smooth="yes"/>
      <point x="233.54" y="337.67400000000004"/>
      <point x="235.992" y="340.79800000000006"/>
      <point x="235.992" y="360.182" type="curve" smooth="yes"/>
      <point x="235.992" y="379.62000000000006"/>
      <point x="233.54" y="382.744"/>
      <point x="215.95000000000002" y="382.744" type="curve" smooth="yes"/>
      <point x="198.414" y="382.744"/>
      <point x="195.962" y="379.62000000000006"/>
      <point x="195.962" y="360.182" type="curve" smooth="yes"/>
      <point x="195.962" y="340.79800000000006"/>
      <point x="199.324" y="337.67400000000004"/>
    </contour>
    <component base="l"/>
  </outline>
</glyph>
<glyph name="Lslash" format="2">
  <advance width="497.312"/>
  <unicode hex="0141"/>
  <outline>
    <contour>
      <point x="22.82" y="197.67" type="line"/>
      <point x="93.07600000000001" y="248.26" type="line"/>
      <point x="93.07600000000001" y="0.0" type="line"/>
      <point x="482.77200000000005" y="0.0" type="line"/>
      <point x="482.77200000000005" y="35.906" type="line"/>
      <point x="132.29999999999998" y="35.906" type="line"/>
      <point x="132.29999999999998" y="271.90200000000004" type="line"/>
      <point x="346.528" y="422.22999999999996" type="line"/>
      <point x="346.528" y="462.76599999999996" type="line"/>
      <point x="132.29999999999998" y="312.9839999999999" type="line"/>
      <point x="132.29999999999998" y="700.0" type="line"/>
      <point x="93.07600000000001" y="700.0" type="line"/>
      <point x="93.07600000000001" y="289.342" type="line"/>
      <point x="22.82" y="238.752" type="line"/>
    </contour>
  </outline>
</glyph>
<glyph name="lslash" format="2">
  <advance width="237.72799999999998"/>
  <unicode hex="0142"/>
  <outline>
    <contour>
      <point x="171.534" y="-10.0" type="curve" smooth="yes"/>
      <point x="195.91800000000003" y="-10.0"/>
      <point x="221.068" y="-4.736"/>
      <point x="241.88400000000004" y="1.9460000000000002" type="curve"/>
      <point x="236.48000000000002" y="36.214" type="line"/>
      <point x="215.664" y="30.558"/>
      <point x="196.208" y="26.866"/>
      <point x="178.968" y="26.866" type="curve" smooth="yes"/>
      <point x="141.84199999999998" y="26.866"/>
      <point x="111.64200000000001" y="44.348"/>
      <point x="111.64200000000001" y="142.70600000000002" type="curve" smooth="yes"/>
      <point x="111.64200000000001" y="277.55" type="line"/>
      <point x="214.5" y="376.766" type="line"/>
      <point x="214.5" y="416.40000000000003" type="line"/>
      <point x="111.64200000000001" y="317.184" type="line"/>
      <point x="111.64200000000001" y="740.0" type="line"/>
      <point x="73.19200000000001" y="740.0" type="line"/>
      <point x="73.19200000000001" y="285.514" type="line"/>
      <point x="13.778" y="228.66599999999997" type="line"/>
      <point x="13.778" y="189.578" type="line"/>
      <point x="73.264" y="245.916" type="line"/>
      <point x="73.336" y="137.108" type="line" smooth="yes"/>
      <point x="73.94800000000001" y="15.082"/>
      <point x="114.19" y="-10.0"/>
    </contour>
  </outline>
</glyph>
<glyph name="Eng" format="2">
  <advance width="661.5100000000001"/>
  <unicode hex="014A"/>
  <outline>
    <contour>
      <point x="79.4" y="0.0" type="line"/>
      <point x="116.23" y="0.0" type="line"/>
      <point x="116.23" y="635.76" type="line"/>
      <point x="544.2" y="1.1800000000000002" type="line"/>
      <point x="544.2" y="-12.010000000000002" type="line" smooth="yes"/>
      <point x="542.38" y="-101.53999999999999"/>
      <point x="481.7" y="-134.38000000000002"/>
      <point x="390.54999999999995" y="-134.38000000000002" type="curve" smooth="yes"/>
      <point x="360.63" y="-134.38000000000002"/>
      <point x="324.8" y="-129.65"/>
      <point x="298.26" y="-124.28999999999999" type="curve"/>
      <point x="293.11" y="-157.51" type="line"/>
      <point x="320.72999999999996" y="-164.41"/>
      <point x="359.45" y="-169.95"/>
      <point x="393.97" y="-169.95" type="curve" smooth="yes"/>
      <point x="516.5" y="-169.95"/>
      <point x="582.1099999999999" y="-114.78"/>
      <point x="582.1099999999999" y="-10.36" type="curve" smooth="yes"/>
      <point x="582.1099999999999" y="700.0" type="line"/>
      <point x="545.46" y="700.0" type="line"/>
      <point x="545.46" y="63.16" type="line"/>
      <point x="114.76" y="703.64" type="line"/>
      <point x="79.4" y="703.64" type="line"/>
    </contour>
  </outline>
</glyph>
<glyph name="eng" format="2">
  <advance width="522.188"/>
  <unicode hex="014B"/>
  <outline>
    <contour>
      <point x="450.166" y="12.25" type="curve"/>
      <point x="450.166" y="400.674" type="line" smooth="yes"/>
      <point x="450.166" y="494.40400000000005"/>
      <point x="397.656" y="541.8"/>
      <point x="306.498" y="541.8" type="curve" smooth="yes"/>
      <point x="231.504" y="541.8"/>
      <point x="173.36800000000002" y="517.868"/>
      <point x="108.60000000000001" y="484.78200000000004" type="curve"/>
      <point x="108.60000000000001" y="531.8" type="line"/>
      <point x="72.13" y="531.8" type="line"/>
      <point x="72.13" y="0.0" type="line"/>
      <point x="110.63399999999999" y="0.0" type="line"/>
      <point x="110.63399999999999" y="452.712" type="line"/>
      <point x="173.114" y="485.192"/>
      <point x="227.24200000000002" y="507.754"/>
      <point x="293.874" y="507.754" type="curve" smooth="yes"/>
      <point x="374.604" y="507.754"/>
      <point x="411.66200000000003" y="464.86999999999995"/>
      <point x="411.66200000000003" y="393.546" type="curve" smooth="yes"/>
      <point x="411.66200000000003" y="10.613999999999999" type="line" smooth="yes"/>
      <point x="411.66200000000003" y="-76.454"/>
      <point x="390.21400000000006" y="-133.374"/>
      <point x="350.904" y="-162.494" type="curve" smooth="yes"/>
      <point x="343.904" y="-167.408"/>
      <point x="336.598" y="-171.286"/>
      <point x="328.598" y="-174.254" type="curve"/>
      <point x="336.036" y="-208.19600000000003" type="line"/>
      <point x="347.076" y="-204.49599999999998"/>
      <point x="357.60599999999994" y="-199.25199999999998"/>
      <point x="367.606" y="-193.792" type="curve" smooth="yes"/>
      <point x="420.856" y="-160.85"/>
      <point x="450.166" y="-93.078"/>
    </contour>
  </outline>
</glyph>
<glyph name="OE" format="2">
  <advance width="978.056"/>
  <unicode hex="0152"/>
  <outline>
    <contour>
      <point x="950.5799999999999" y="0.0" type="line"/>
      <point x="950.5799999999999" y="36.559999999999995" type="line"/>
      <point x="561.848" y="36.559999999999995" type="line"/>
      <point x="561.848" y="350.9200000000001" type="line"/>
      <point x="910.712" y="350.9200000000001" type="line"/>
      <point x="910.712" y="387.29999999999995" type="line"/>
      <point x="561.848" y="387.29999999999995" type="line"/>
      <point x="561.848" y="663.62" type="line"/>
      <point x="932.908" y="663.62" type="line"/>
      <point x="932.908" y="700.0" type="line"/>
      <point x="559.148" y="700.0" type="line"/>
      <point x="487.03600000000006" y="703.6880000000001"/>
      <point x="411.824" y="706.688"/>
      <point x="353.128" y="706.688" type="curve" smooth="yes"/>
      <point x="184.472" y="706.688"/>
      <point x="50.612" y="641.176"/>
      <point x="50.612" y="352.688" type="curve" smooth="yes"/>
      <point x="50.612" y="53.272000000000006"/>
      <point x="197.964" y="-7.852"/>
      <point x="362.948" y="-7.852" type="curve" smooth="yes"/>
      <point x="427.08799999999997" y="-7.852"/>
      <point x="488.492" y="-4.36"/>
      <point x="561.848" y="0.0" type="curve"/>
    </contour>
    <contour>
      <point x="522.408" y="32.071999999999996" type="line"/>
      <point x="487.208" y="30.071999999999996"/>
      <point x="423.3" y="26.416"/>
      <point x="369.55999999999995" y="26.416" type="curve" smooth="yes"/>
      <point x="224.364" y="26.416"/>
      <point x="91.592" y="71.792"/>
      <point x="91.592" y="352.0" type="curve" smooth="yes"/>
      <point x="91.592" y="625.42"/>
      <point x="226.66" y="673.0919999999999"/>
      <point x="361.592" y="673.0919999999999" type="curve" smooth="yes"/>
      <point x="389.688" y="673.0919999999999"/>
      <point x="499.312" y="668.5999999999999"/>
      <point x="522.408" y="667.2559999999999" type="curve"/>
    </contour>
  </outline>
</glyph>
<glyph name="oe" format="2">
  <advance width="897.258"/>
  <unicode hex="0153"/>
  <outline>
    <contour>
      <point x="44.354" y="266.954" type="curve" smooth="yes"/>
      <point x="44.354" y="64.194"/>
      <point x="108.876" y="-10.0"/>
      <point x="263.068" y="-10.0" type="curve" smooth="yes"/>
      <point x="380.47800000000007" y="-10.0"/>
      <point x="437.33400000000006" y="35.246"/>
      <point x="461.17" y="130.136" type="curve"/>
      <point x="487.74399999999997" y="38.156"/>
      <point x="552.88" y="-10.0"/>
      <point x="651.404" y="-10.0" type="curve" smooth="yes"/>
      <point x="730.718" y="-10.0"/>
      <point x="802.448" y="1.8199999999999998"/>
      <point x="850.49" y="16.828" type="curve"/>
      <point x="844.492" y="49.382000000000005" type="line"/>
      <point x="798.09" y="36.95"/>
      <point x="725.054" y="23.508"/>
      <point x="654.5820000000001" y="23.508" type="curve" smooth="yes"/>
      <point x="553.2819999999999" y="23.508"/>
      <point x="480.782" y="79.828"/>
      <point x="480.782" y="237.382" type="curve" smooth="yes"/>
      <point x="480.782" y="249.23"/>
      <point x="480.746" y="265.89799999999997"/>
      <point x="481.71" y="279.746" type="curve"/>
      <point x="664.734" y="280.19599999999997"/>
      <point x="809.8079999999999" y="293.05199999999996"/>
      <point x="858.536" y="297.07" type="curve"/>
      <point x="858.626" y="303.402"/>
      <point x="859.626" y="309.706"/>
      <point x="859.626" y="322.192" type="curve" smooth="yes"/>
      <point x="859.626" y="475.53200000000004"/>
      <point x="793.0859999999999" y="541.8"/>
      <point x="668.552" y="541.8" type="curve" smooth="yes"/>
      <point x="569.2959999999999" y="541.8"/>
      <point x="496.29400000000004" y="491.30199999999996"/>
      <point x="465.746" y="391.79" type="curve"/>
      <point x="443.226" y="491.986"/>
      <point x="388.812" y="541.8"/>
      <point x="263.068" y="541.8" type="curve" smooth="yes"/>
      <point x="101.84" y="541.8"/>
      <point x="44.354" y="463.714"/>
    </contour>
    <contour>
      <point x="83.36200000000001" y="266.918" type="curve" smooth="yes"/>
      <point x="83.36200000000001" y="442.638"/>
      <point x="129.032" y="509.444"/>
      <point x="263.032" y="509.444" type="curve" smooth="yes"/>
      <point x="396.014" y="509.444"/>
      <point x="441.702" y="442.638"/>
      <point x="441.702" y="266.918" type="curve" smooth="yes"/>
      <point x="441.702" y="86.378"/>
      <point x="390.41" y="22.41"/>
      <point x="263.032" y="22.41" type="curve" smooth="yes"/>
      <point x="135.60000000000002" y="22.41"/>
      <point x="83.36200000000001" y="86.378"/>
    </contour>
    <contour>
      <point x="482.602" y="306.962" type="curve"/>
      <point x="498.64799999999997" y="470.65599999999995"/>
      <point x="585.4659999999999" y="510.434"/>
      <point x="667.8140000000001" y="510.434" type="curve" smooth="yes"/>
      <point x="768.164" y="510.434"/>
      <point x="820.438" y="456.322"/>
      <point x="820.978" y="321.828" type="curve"/>
      <point x="788.212" y="317.134"/>
      <point x="644.3" y="306.998"/>
    </contour>
  </outline>
</glyph>
<glyph name="uni0162" format="2">
  <advance width="491.756"/>
  <unicode hex="0162"/>
  <outline>
    <contour>
      <point x="161.39800000000002" y="-172.83999999999997" type="curve"/>
      <point x="154.502" y="-199.372" type="line"/>
      <point x="188.14" y="-214.288"/>
      <point x="218.67000000000004" y="-220.0"/>
      <point x="242.92200000000003" y="-220.0" type="curve" smooth="yes"/>
      <point x="303.724" y="-220.0"/>
      <point x="330.71200000000005" y="-180.892"/>
      <point x="330.71200000000005" y="-130.256" type="curve" smooth="yes"/>
      <point x="330.71200000000005" y="-85.152"/>
      <point x="301.53200000000004" y="-35.583999999999996"/>
      <point x="261.45000000000005" y="2.504" type="curve"/>
      <point x="229.82999999999998" y="0.684" type="line"/>
      <point x="266.43600000000004" y="-43.218"/>
      <point x="299.04200000000003" y="-84.944"/>
      <point x="299.04200000000003" y="-126.044" type="curve" smooth="yes"/>
      <point x="299.04200000000003" y="-167.15200000000002"/>
      <point x="276.764" y="-190.96400000000003"/>
      <point x="235.95000000000002" y="-190.96400000000003" type="curve" smooth="yes"/>
      <point x="214.64600000000002" y="-190.96400000000003"/>
      <point x="189.45000000000002" y="-184.86799999999997"/>
    </contour>
    <component base="T"/>
  </outline>
</glyph>
